%TF.GenerationSoftware,KiCad,Pcbnew,10.0.0*%
%TF.CreationDate,2026-04-29T16:22:57+01:00*%
%TF.ProjectId,SHS-Z2M-Presence,5348532d-5a32-44d2-9d50-726573656e63,rev?*%
%TF.SameCoordinates,Original*%
%TF.FileFunction,Copper,L2,Bot*%
%TF.FilePolarity,Positive*%
%FSLAX46Y46*%
G04 Gerber Fmt 4.6, Leading zero omitted, Abs format (unit mm)*
G04 Created by KiCad (PCBNEW 10.0.0) date 2026-04-29 16:22:57*
%MOMM*%
%LPD*%
G01*
G04 APERTURE LIST*
%TA.AperFunction,ComponentPad*%
%ADD10C,1.600000*%
%TD*%
%TA.AperFunction,ComponentPad*%
%ADD11R,1.800000X1.800000*%
%TD*%
%TA.AperFunction,ComponentPad*%
%ADD12C,1.800000*%
%TD*%
%TA.AperFunction,ComponentPad*%
%ADD13R,1.700000X1.700000*%
%TD*%
%TA.AperFunction,ComponentPad*%
%ADD14O,1.700000X1.700000*%
%TD*%
%TA.AperFunction,ViaPad*%
%ADD15C,0.800000*%
%TD*%
%TA.AperFunction,Conductor*%
%ADD16C,0.500000*%
%TD*%
%TA.AperFunction,Conductor*%
%ADD17C,0.250000*%
%TD*%
G04 APERTURE END LIST*
D10*
%TO.P,U2,1*%
%TO.N,UART1_TX*%
X205350000Y-115580000D03*
%TO.P,U2,2*%
%TO.N,UART1_RX*%
X205350000Y-113040000D03*
%TO.P,U2,3*%
%TO.N,N/C*%
X205350000Y-110500000D03*
%TO.P,U2,4*%
%TO.N,GND*%
X205350000Y-107960000D03*
%TO.P,U2,5*%
%TO.N,+5V*%
X205350000Y-105420000D03*
%TD*%
D11*
%TO.P,U3,1*%
%TO.N,+5V*%
X201500000Y-60500000D03*
D12*
%TO.P,U3,2*%
%TO.N,UART0_TX*%
X201500000Y-58500000D03*
%TO.P,U3,3*%
%TO.N,UART0_RX*%
X199500000Y-58500000D03*
%TO.P,U3,4*%
%TO.N,GND*%
X195500000Y-60500000D03*
%TO.P,U3,5*%
%TO.N,N/C*%
X199500000Y-60500000D03*
%TO.P,U3,6*%
X197500000Y-60500000D03*
%TO.P,U3,7*%
X197500000Y-58500000D03*
%TO.P,U3,8*%
X195500000Y-58500000D03*
%TD*%
D13*
%TO.P,U1,1*%
%TO.N,N/C*%
X161500000Y-68500000D03*
D14*
%TO.P,U1,2*%
X161500000Y-71040000D03*
%TO.P,U1,3*%
%TO.N,UART1_RX*%
X161500000Y-73580000D03*
%TO.P,U1,4*%
%TO.N,UART1_TX*%
X161500000Y-76120000D03*
%TO.P,U1,5*%
%TO.N,N/C*%
X161500000Y-78660000D03*
%TO.P,U1,6*%
X161500000Y-81200000D03*
%TO.P,U1,7*%
X161500000Y-83740000D03*
%TO.P,U1,8*%
X161500000Y-86280000D03*
%TO.P,U1,9*%
X161500000Y-88820000D03*
%TO.P,U1,10*%
X161500000Y-91360000D03*
%TO.P,U1,11*%
X161500000Y-93900000D03*
%TO.P,U1,12*%
X161500000Y-96440000D03*
%TO.P,U1,13*%
X161500000Y-98980000D03*
%TO.P,U1,14*%
%TO.N,+5V*%
X161500000Y-101520000D03*
%TO.P,U1,15*%
%TO.N,GND*%
X161500000Y-104060000D03*
%TO.P,U1,16*%
%TO.N,N/C*%
X161500000Y-106600000D03*
%TO.P,U1,17*%
%TO.N,GND*%
X184360000Y-68500000D03*
%TO.P,U1,18*%
%TO.N,N/C*%
X184360000Y-71040000D03*
%TO.P,U1,19*%
X184360000Y-73580000D03*
%TO.P,U1,20*%
X184360000Y-76120000D03*
%TO.P,U1,21*%
X184360000Y-78660000D03*
%TO.P,U1,22*%
X184360000Y-81200000D03*
%TO.P,U1,23*%
X184360000Y-83740000D03*
%TO.P,U1,24*%
X184360000Y-86280000D03*
%TO.P,U1,25*%
%TO.N,UART0_RX*%
X184360000Y-88820000D03*
%TO.P,U1,26*%
%TO.N,UART0_TX*%
X184360000Y-91360000D03*
%TO.P,U1,27*%
%TO.N,N/C*%
X184360000Y-93900000D03*
%TO.P,U1,28*%
%TO.N,GND*%
X184360000Y-96440000D03*
%TO.P,U1,29*%
%TO.N,N/C*%
X184360000Y-98980000D03*
%TO.P,U1,30*%
X184360000Y-101520000D03*
%TO.P,U1,31*%
%TO.N,GND*%
X184360000Y-104060000D03*
%TO.P,U1,32*%
%TO.N,N/C*%
X184360000Y-106600000D03*
%TD*%
D15*
%TO.N,+5V*%
X182410500Y-104119000D03*
%TO.N,GND*%
X200358400Y-111275800D03*
%TD*%
%TO.N,+5V*%
D16*
X182410500Y-104119000D02*
X179811500Y-101520000D01*
X179811500Y-101520000D02*
X161500000Y-101520000D01*
%TO.N,GND*%
X162801700Y-104060000D02*
X163715200Y-104973500D01*
X195500000Y-60500000D02*
X193661700Y-60500000D01*
X163715200Y-104973500D02*
X183446500Y-104973500D01*
X193661700Y-60500000D02*
X185661700Y-68500000D01*
X184360000Y-68500000D02*
X185661700Y-68500000D01*
X183446500Y-104973500D02*
X184360000Y-104060000D01*
X161500000Y-104060000D02*
X162801700Y-104060000D01*
X193142600Y-104060000D02*
X200358400Y-111275800D01*
X193142600Y-104060000D02*
X184360000Y-104060000D01*
%TO.N,UART1_TX*%
D17*
X162676700Y-76487700D02*
X162676700Y-76120000D01*
X183899000Y-97710000D02*
X162676700Y-76487700D01*
X161500000Y-76120000D02*
X162676700Y-76120000D01*
X187820300Y-97710000D02*
X183899000Y-97710000D01*
X205350000Y-115239700D02*
X187820300Y-97710000D01*
X205350000Y-115580000D02*
X205350000Y-115239700D01*
%TO.N,UART1_RX*%
X187480000Y-95170000D02*
X183899000Y-95170000D01*
X162676700Y-73947700D02*
X162676700Y-73580000D01*
X205350000Y-113040000D02*
X187480000Y-95170000D01*
X183899000Y-95170000D02*
X162676700Y-73947700D01*
X161500000Y-73580000D02*
X162676700Y-73580000D01*
%TO.N,UART0_TX*%
X202726700Y-72184300D02*
X184727700Y-90183300D01*
X184727700Y-90183300D02*
X184360000Y-90183300D01*
X201500000Y-58500000D02*
X201806300Y-58500000D01*
X202726700Y-59420400D02*
X202726700Y-72184300D01*
X201806300Y-58500000D02*
X202726700Y-59420400D01*
X184360000Y-91360000D02*
X184360000Y-90183300D01*
%TD*%
%TA.AperFunction,Conductor*%
%TO.N,GND*%
G36*
X187360850Y-95515185D02*
G01*
X187381492Y-95531819D01*
X204390837Y-112541164D01*
X204424322Y-112602487D01*
X204419338Y-112672179D01*
X204417737Y-112676247D01*
X204387949Y-112748165D01*
X204387947Y-112748171D01*
X204349500Y-112941456D01*
X204349500Y-112941459D01*
X204349500Y-113138541D01*
X204349500Y-113138543D01*
X204349499Y-113138543D01*
X204387947Y-113331829D01*
X204387950Y-113331839D01*
X204463364Y-113513907D01*
X204463371Y-113513920D01*
X204526740Y-113608758D01*
X204547618Y-113675436D01*
X204529133Y-113742816D01*
X204477154Y-113789506D01*
X204408184Y-113800682D01*
X204344121Y-113772796D01*
X204335957Y-113765330D01*
X188020164Y-97449537D01*
X188020162Y-97449535D01*
X187983050Y-97428108D01*
X187945940Y-97406682D01*
X187904546Y-97395591D01*
X187863153Y-97384500D01*
X187863152Y-97384500D01*
X185585836Y-97384500D01*
X185518797Y-97364815D01*
X185473042Y-97312011D01*
X185463098Y-97242853D01*
X185485518Y-97187615D01*
X185514620Y-97147557D01*
X185611095Y-96958217D01*
X185676757Y-96756129D01*
X185676757Y-96756126D01*
X185687231Y-96690000D01*
X184793012Y-96690000D01*
X184825925Y-96632993D01*
X184860000Y-96505826D01*
X184860000Y-96374174D01*
X184825925Y-96247007D01*
X184793012Y-96190000D01*
X185687231Y-96190000D01*
X185676757Y-96123873D01*
X185676757Y-96123870D01*
X185611095Y-95921782D01*
X185514620Y-95732442D01*
X185485518Y-95692385D01*
X185462038Y-95626578D01*
X185477864Y-95558525D01*
X185527970Y-95509830D01*
X185585836Y-95495500D01*
X187293811Y-95495500D01*
X187360850Y-95515185D01*
G37*
%TD.AperFunction*%
%TA.AperFunction,Conductor*%
G36*
X196526040Y-59086078D02*
G01*
X196527636Y-59085981D01*
X196556829Y-59102324D01*
X196586421Y-59117938D01*
X196588023Y-59119786D01*
X196588602Y-59120111D01*
X196589077Y-59121003D01*
X196600315Y-59133973D01*
X196660586Y-59216928D01*
X196783072Y-59339414D01*
X196783078Y-59339418D01*
X196866023Y-59399683D01*
X196908689Y-59455013D01*
X196914667Y-59524626D01*
X196882061Y-59586421D01*
X196868491Y-59598478D01*
X196867267Y-59599413D01*
X196783072Y-59660586D01*
X196769216Y-59674441D01*
X196762692Y-59679434D01*
X196737435Y-59689158D01*
X196713691Y-59702123D01*
X196701640Y-59702941D01*
X196697489Y-59704540D01*
X196692692Y-59703549D01*
X196677609Y-59704574D01*
X196651066Y-59702485D01*
X195942137Y-60411414D01*
X195919333Y-60326306D01*
X195860090Y-60223694D01*
X195776306Y-60139910D01*
X195673694Y-60080667D01*
X195588583Y-60057861D01*
X196297513Y-59348932D01*
X196295424Y-59322393D01*
X196309787Y-59254015D01*
X196320565Y-59237308D01*
X196325554Y-59230787D01*
X196339414Y-59216928D01*
X196400581Y-59132737D01*
X196401523Y-59131508D01*
X196428506Y-59111749D01*
X196455012Y-59091311D01*
X196456605Y-59091174D01*
X196457896Y-59090229D01*
X196491300Y-59088194D01*
X196524626Y-59085332D01*
X196526040Y-59086078D01*
G37*
%TD.AperFunction*%
%TA.AperFunction,Conductor*%
G36*
X209642539Y-50320185D02*
G01*
X209688294Y-50372989D01*
X209699500Y-50424500D01*
X209699500Y-125575500D01*
X209679815Y-125642539D01*
X209627011Y-125688294D01*
X209575500Y-125699500D01*
X155924500Y-125699500D01*
X155857461Y-125679815D01*
X155811706Y-125627011D01*
X155800500Y-125575500D01*
X155800500Y-103810000D01*
X160172769Y-103810000D01*
X161066988Y-103810000D01*
X161034075Y-103867007D01*
X161000000Y-103994174D01*
X161000000Y-104125826D01*
X161034075Y-104252993D01*
X161066988Y-104310000D01*
X160172769Y-104310000D01*
X160183242Y-104376126D01*
X160183242Y-104376129D01*
X160248904Y-104578217D01*
X160345379Y-104767557D01*
X160470272Y-104939459D01*
X160470276Y-104939464D01*
X160620535Y-105089723D01*
X160620540Y-105089727D01*
X160792442Y-105214620D01*
X160981782Y-105311095D01*
X161157973Y-105368343D01*
X161215648Y-105407780D01*
X161242847Y-105472139D01*
X161230932Y-105540985D01*
X161183688Y-105592461D01*
X161167108Y-105600835D01*
X161002403Y-105669057D01*
X160830342Y-105784024D01*
X160684024Y-105930342D01*
X160569058Y-106102403D01*
X160489870Y-106293579D01*
X160489868Y-106293587D01*
X160449500Y-106496530D01*
X160449500Y-106703469D01*
X160489868Y-106906412D01*
X160489870Y-106906420D01*
X160569058Y-107097596D01*
X160684024Y-107269657D01*
X160830342Y-107415975D01*
X160830345Y-107415977D01*
X161002402Y-107530941D01*
X161193580Y-107610130D01*
X161396530Y-107650499D01*
X161396534Y-107650500D01*
X161396535Y-107650500D01*
X161603466Y-107650500D01*
X161603467Y-107650499D01*
X161806420Y-107610130D01*
X161997598Y-107530941D01*
X162169655Y-107415977D01*
X162315977Y-107269655D01*
X162430941Y-107097598D01*
X162510130Y-106906420D01*
X162550500Y-106703465D01*
X162550500Y-106496535D01*
X162510130Y-106293580D01*
X162430941Y-106102402D01*
X162315977Y-105930345D01*
X162315975Y-105930342D01*
X162169657Y-105784024D01*
X162061608Y-105711829D01*
X161997598Y-105669059D01*
X161997593Y-105669057D01*
X161935891Y-105643499D01*
X161832890Y-105600834D01*
X161778488Y-105556994D01*
X161756423Y-105490700D01*
X161773702Y-105423001D01*
X161824839Y-105375390D01*
X161842026Y-105368343D01*
X162018217Y-105311095D01*
X162207557Y-105214620D01*
X162379459Y-105089727D01*
X162379464Y-105089723D01*
X162529723Y-104939464D01*
X162529727Y-104939459D01*
X162654620Y-104767557D01*
X162751095Y-104578217D01*
X162816757Y-104376129D01*
X162816757Y-104376126D01*
X162827231Y-104310000D01*
X161933012Y-104310000D01*
X161965925Y-104252993D01*
X162000000Y-104125826D01*
X162000000Y-103994174D01*
X161965925Y-103867007D01*
X161933012Y-103810000D01*
X162827231Y-103810000D01*
X162816757Y-103743873D01*
X162816757Y-103743870D01*
X162751095Y-103541782D01*
X162654620Y-103352442D01*
X162529727Y-103180540D01*
X162529723Y-103180535D01*
X162379464Y-103030276D01*
X162379459Y-103030272D01*
X162207557Y-102905379D01*
X162018216Y-102808904D01*
X161842026Y-102751656D01*
X161784350Y-102712218D01*
X161757152Y-102647860D01*
X161769067Y-102579013D01*
X161816311Y-102527538D01*
X161832882Y-102519168D01*
X161997598Y-102450941D01*
X162169655Y-102335977D01*
X162315977Y-102189655D01*
X162425589Y-102025609D01*
X162479201Y-101980804D01*
X162528691Y-101970500D01*
X179573535Y-101970500D01*
X179640574Y-101990185D01*
X179661216Y-102006819D01*
X181773799Y-104119402D01*
X181807284Y-104180725D01*
X181809056Y-104190893D01*
X181809998Y-104198050D01*
X181810000Y-104198057D01*
X181834720Y-104290315D01*
X181850923Y-104350783D01*
X181850926Y-104350790D01*
X181929975Y-104487709D01*
X181929979Y-104487714D01*
X181929980Y-104487716D01*
X182041784Y-104599520D01*
X182041786Y-104599521D01*
X182041790Y-104599524D01*
X182116857Y-104642863D01*
X182178716Y-104678577D01*
X182331443Y-104719500D01*
X182331445Y-104719500D01*
X182489555Y-104719500D01*
X182489557Y-104719500D01*
X182642284Y-104678577D01*
X182779216Y-104599520D01*
X182890197Y-104488538D01*
X182951516Y-104455056D01*
X183021208Y-104460040D01*
X183077142Y-104501911D01*
X183095806Y-104537904D01*
X183108904Y-104578217D01*
X183205379Y-104767557D01*
X183330272Y-104939459D01*
X183330276Y-104939464D01*
X183480535Y-105089723D01*
X183480540Y-105089727D01*
X183652442Y-105214620D01*
X183841782Y-105311095D01*
X184017973Y-105368343D01*
X184075648Y-105407780D01*
X184102847Y-105472139D01*
X184090932Y-105540985D01*
X184043688Y-105592461D01*
X184027108Y-105600835D01*
X183862403Y-105669057D01*
X183690342Y-105784024D01*
X183544024Y-105930342D01*
X183429058Y-106102403D01*
X183349870Y-106293579D01*
X183349868Y-106293587D01*
X183309500Y-106496530D01*
X183309500Y-106703469D01*
X183349868Y-106906412D01*
X183349870Y-106906420D01*
X183429058Y-107097596D01*
X183544024Y-107269657D01*
X183690342Y-107415975D01*
X183690345Y-107415977D01*
X183862402Y-107530941D01*
X184053580Y-107610130D01*
X184256530Y-107650499D01*
X184256534Y-107650500D01*
X184256535Y-107650500D01*
X184463466Y-107650500D01*
X184463467Y-107650499D01*
X184666420Y-107610130D01*
X184857598Y-107530941D01*
X185029655Y-107415977D01*
X185175977Y-107269655D01*
X185290941Y-107097598D01*
X185370130Y-106906420D01*
X185410500Y-106703465D01*
X185410500Y-106496535D01*
X185370130Y-106293580D01*
X185290941Y-106102402D01*
X185175977Y-105930345D01*
X185175975Y-105930342D01*
X185029657Y-105784024D01*
X184921608Y-105711829D01*
X184857598Y-105669059D01*
X184857593Y-105669057D01*
X184795891Y-105643499D01*
X184692890Y-105600834D01*
X184638488Y-105556994D01*
X184616423Y-105490700D01*
X184633702Y-105423001D01*
X184684839Y-105375390D01*
X184702026Y-105368343D01*
X184878217Y-105311095D01*
X185067557Y-105214620D01*
X185239459Y-105089727D01*
X185239464Y-105089723D01*
X185389723Y-104939464D01*
X185389727Y-104939459D01*
X185514620Y-104767557D01*
X185611095Y-104578217D01*
X185676757Y-104376129D01*
X185676757Y-104376126D01*
X185687231Y-104310000D01*
X184793012Y-104310000D01*
X184825925Y-104252993D01*
X184860000Y-104125826D01*
X184860000Y-103994174D01*
X184825925Y-103867007D01*
X184793012Y-103810000D01*
X185687231Y-103810000D01*
X185676757Y-103743873D01*
X185676757Y-103743870D01*
X185611095Y-103541782D01*
X185514620Y-103352442D01*
X185389727Y-103180540D01*
X185389723Y-103180535D01*
X185239464Y-103030276D01*
X185239459Y-103030272D01*
X185067557Y-102905379D01*
X184878216Y-102808904D01*
X184702026Y-102751656D01*
X184644350Y-102712218D01*
X184617152Y-102647860D01*
X184629067Y-102579013D01*
X184676311Y-102527538D01*
X184692882Y-102519168D01*
X184857598Y-102450941D01*
X185029655Y-102335977D01*
X185175977Y-102189655D01*
X185290941Y-102017598D01*
X185370130Y-101826420D01*
X185410500Y-101623465D01*
X185410500Y-101416535D01*
X185370130Y-101213580D01*
X185290941Y-101022402D01*
X185175977Y-100850345D01*
X185175976Y-100850344D01*
X185175975Y-100850342D01*
X185029657Y-100704024D01*
X184943626Y-100646541D01*
X184857598Y-100589059D01*
X184666420Y-100509870D01*
X184666412Y-100509868D01*
X184463469Y-100469500D01*
X184463465Y-100469500D01*
X184256535Y-100469500D01*
X184256530Y-100469500D01*
X184053587Y-100509868D01*
X184053579Y-100509870D01*
X183862403Y-100589058D01*
X183690342Y-100704024D01*
X183544024Y-100850342D01*
X183429058Y-101022403D01*
X183349870Y-101213579D01*
X183349868Y-101213587D01*
X183309500Y-101416530D01*
X183309500Y-101623469D01*
X183349868Y-101826412D01*
X183349870Y-101826420D01*
X183429058Y-102017596D01*
X183544024Y-102189657D01*
X183690342Y-102335975D01*
X183862405Y-102450943D01*
X183965043Y-102493456D01*
X184027108Y-102519164D01*
X184081511Y-102563005D01*
X184103576Y-102629299D01*
X184086297Y-102696998D01*
X184035160Y-102744609D01*
X184017974Y-102751656D01*
X183841781Y-102808905D01*
X183652442Y-102905379D01*
X183480540Y-103030272D01*
X183480535Y-103030276D01*
X183330276Y-103180535D01*
X183330272Y-103180540D01*
X183205379Y-103352442D01*
X183108904Y-103541782D01*
X183066868Y-103671157D01*
X183027430Y-103728833D01*
X182963072Y-103756031D01*
X182894225Y-103744116D01*
X182861256Y-103720520D01*
X182779217Y-103638481D01*
X182779209Y-103638475D01*
X182642290Y-103559426D01*
X182642286Y-103559424D01*
X182642284Y-103559423D01*
X182489557Y-103518500D01*
X182489550Y-103518498D01*
X182482393Y-103517556D01*
X182418497Y-103489287D01*
X182410902Y-103482299D01*
X180088116Y-101159513D01*
X180088114Y-101159511D01*
X180036750Y-101129856D01*
X179985388Y-101100201D01*
X179973280Y-101096957D01*
X179961173Y-101093713D01*
X179961170Y-101093712D01*
X179922978Y-101083478D01*
X179870809Y-101069500D01*
X179870808Y-101069500D01*
X162528691Y-101069500D01*
X162461652Y-101049815D01*
X162425589Y-101014391D01*
X162315977Y-100850344D01*
X162169657Y-100704024D01*
X162083626Y-100646541D01*
X161997598Y-100589059D01*
X161806420Y-100509870D01*
X161806412Y-100509868D01*
X161603469Y-100469500D01*
X161603465Y-100469500D01*
X161396535Y-100469500D01*
X161396530Y-100469500D01*
X161193587Y-100509868D01*
X161193579Y-100509870D01*
X161002403Y-100589058D01*
X160830342Y-100704024D01*
X160684024Y-100850342D01*
X160569058Y-101022403D01*
X160489870Y-101213579D01*
X160489868Y-101213587D01*
X160449500Y-101416530D01*
X160449500Y-101623469D01*
X160489868Y-101826412D01*
X160489870Y-101826420D01*
X160569058Y-102017596D01*
X160684024Y-102189657D01*
X160830342Y-102335975D01*
X161002405Y-102450943D01*
X161105043Y-102493456D01*
X161167108Y-102519164D01*
X161221511Y-102563005D01*
X161243576Y-102629299D01*
X161226297Y-102696998D01*
X161175160Y-102744609D01*
X161157974Y-102751656D01*
X160981781Y-102808905D01*
X160792442Y-102905379D01*
X160620540Y-103030272D01*
X160620535Y-103030276D01*
X160470276Y-103180535D01*
X160470272Y-103180540D01*
X160345379Y-103352442D01*
X160248904Y-103541782D01*
X160183242Y-103743870D01*
X160183242Y-103743873D01*
X160172769Y-103810000D01*
X155800500Y-103810000D01*
X155800500Y-98876530D01*
X160449500Y-98876530D01*
X160449500Y-99083469D01*
X160489868Y-99286412D01*
X160489870Y-99286420D01*
X160569058Y-99477596D01*
X160684024Y-99649657D01*
X160830342Y-99795975D01*
X160830345Y-99795977D01*
X161002402Y-99910941D01*
X161193580Y-99990130D01*
X161396530Y-100030499D01*
X161396534Y-100030500D01*
X161396535Y-100030500D01*
X161603466Y-100030500D01*
X161603467Y-100030499D01*
X161806420Y-99990130D01*
X161997598Y-99910941D01*
X162169655Y-99795977D01*
X162315977Y-99649655D01*
X162430941Y-99477598D01*
X162510130Y-99286420D01*
X162550500Y-99083465D01*
X162550500Y-98876535D01*
X162510130Y-98673580D01*
X162430941Y-98482402D01*
X162315977Y-98310345D01*
X162315975Y-98310342D01*
X162169657Y-98164024D01*
X162006766Y-98055185D01*
X161997598Y-98049059D01*
X161806420Y-97969870D01*
X161806412Y-97969868D01*
X161603469Y-97929500D01*
X161603465Y-97929500D01*
X161396535Y-97929500D01*
X161396530Y-97929500D01*
X161193587Y-97969868D01*
X161193579Y-97969870D01*
X161002403Y-98049058D01*
X160830342Y-98164024D01*
X160684024Y-98310342D01*
X160569058Y-98482403D01*
X160489870Y-98673579D01*
X160489868Y-98673587D01*
X160449500Y-98876530D01*
X155800500Y-98876530D01*
X155800500Y-96336530D01*
X160449500Y-96336530D01*
X160449500Y-96543469D01*
X160489868Y-96746412D01*
X160489870Y-96746420D01*
X160569058Y-96937596D01*
X160684024Y-97109657D01*
X160830342Y-97255975D01*
X160830345Y-97255977D01*
X161002402Y-97370941D01*
X161193580Y-97450130D01*
X161396530Y-97490499D01*
X161396534Y-97490500D01*
X161396535Y-97490500D01*
X161603466Y-97490500D01*
X161603467Y-97490499D01*
X161806420Y-97450130D01*
X161997598Y-97370941D01*
X162169655Y-97255977D01*
X162315977Y-97109655D01*
X162430941Y-96937598D01*
X162510130Y-96746420D01*
X162550500Y-96543465D01*
X162550500Y-96336535D01*
X162510130Y-96133580D01*
X162430941Y-95942402D01*
X162315977Y-95770345D01*
X162315975Y-95770342D01*
X162169657Y-95624024D01*
X162006766Y-95515185D01*
X161997598Y-95509059D01*
X161806420Y-95429870D01*
X161806412Y-95429868D01*
X161603469Y-95389500D01*
X161603465Y-95389500D01*
X161396535Y-95389500D01*
X161396530Y-95389500D01*
X161193587Y-95429868D01*
X161193579Y-95429870D01*
X161002403Y-95509058D01*
X160830342Y-95624024D01*
X160684024Y-95770342D01*
X160569058Y-95942403D01*
X160489870Y-96133579D01*
X160489868Y-96133587D01*
X160449500Y-96336530D01*
X155800500Y-96336530D01*
X155800500Y-93796530D01*
X160449500Y-93796530D01*
X160449500Y-94003469D01*
X160489868Y-94206412D01*
X160489870Y-94206420D01*
X160569058Y-94397596D01*
X160684024Y-94569657D01*
X160830342Y-94715975D01*
X160830345Y-94715977D01*
X161002402Y-94830941D01*
X161193580Y-94910130D01*
X161396530Y-94950499D01*
X161396534Y-94950500D01*
X161396535Y-94950500D01*
X161603466Y-94950500D01*
X161603467Y-94950499D01*
X161806420Y-94910130D01*
X161997598Y-94830941D01*
X162169655Y-94715977D01*
X162315977Y-94569655D01*
X162430941Y-94397598D01*
X162510130Y-94206420D01*
X162550500Y-94003465D01*
X162550500Y-93796535D01*
X162510130Y-93593580D01*
X162430941Y-93402402D01*
X162315977Y-93230345D01*
X162315975Y-93230342D01*
X162169657Y-93084024D01*
X162083626Y-93026541D01*
X161997598Y-92969059D01*
X161806420Y-92889870D01*
X161806412Y-92889868D01*
X161603469Y-92849500D01*
X161603465Y-92849500D01*
X161396535Y-92849500D01*
X161396530Y-92849500D01*
X161193587Y-92889868D01*
X161193579Y-92889870D01*
X161002403Y-92969058D01*
X160830342Y-93084024D01*
X160684024Y-93230342D01*
X160569058Y-93402403D01*
X160489870Y-93593579D01*
X160489868Y-93593587D01*
X160449500Y-93796530D01*
X155800500Y-93796530D01*
X155800500Y-91256530D01*
X160449500Y-91256530D01*
X160449500Y-91463469D01*
X160489868Y-91666412D01*
X160489870Y-91666420D01*
X160569058Y-91857596D01*
X160684024Y-92029657D01*
X160830342Y-92175975D01*
X160830345Y-92175977D01*
X161002402Y-92290941D01*
X161193580Y-92370130D01*
X161396530Y-92410499D01*
X161396534Y-92410500D01*
X161396535Y-92410500D01*
X161603466Y-92410500D01*
X161603467Y-92410499D01*
X161806420Y-92370130D01*
X161997598Y-92290941D01*
X162169655Y-92175977D01*
X162315977Y-92029655D01*
X162430941Y-91857598D01*
X162510130Y-91666420D01*
X162550500Y-91463465D01*
X162550500Y-91256535D01*
X162510130Y-91053580D01*
X162430941Y-90862402D01*
X162315977Y-90690345D01*
X162315975Y-90690342D01*
X162169657Y-90544024D01*
X162019607Y-90443765D01*
X161997598Y-90429059D01*
X161997593Y-90429057D01*
X161806420Y-90349870D01*
X161806412Y-90349868D01*
X161603469Y-90309500D01*
X161603465Y-90309500D01*
X161396535Y-90309500D01*
X161396530Y-90309500D01*
X161193587Y-90349868D01*
X161193579Y-90349870D01*
X161002403Y-90429058D01*
X160830342Y-90544024D01*
X160684024Y-90690342D01*
X160569058Y-90862403D01*
X160489870Y-91053579D01*
X160489868Y-91053587D01*
X160449500Y-91256530D01*
X155800500Y-91256530D01*
X155800500Y-88716530D01*
X160449500Y-88716530D01*
X160449500Y-88923469D01*
X160489868Y-89126412D01*
X160489870Y-89126420D01*
X160569058Y-89317596D01*
X160684024Y-89489657D01*
X160830342Y-89635975D01*
X160830345Y-89635977D01*
X161002402Y-89750941D01*
X161193580Y-89830130D01*
X161396530Y-89870499D01*
X161396534Y-89870500D01*
X161396535Y-89870500D01*
X161603466Y-89870500D01*
X161603467Y-89870499D01*
X161806420Y-89830130D01*
X161997598Y-89750941D01*
X162169655Y-89635977D01*
X162315977Y-89489655D01*
X162430941Y-89317598D01*
X162510130Y-89126420D01*
X162550500Y-88923465D01*
X162550500Y-88716535D01*
X162510130Y-88513580D01*
X162430941Y-88322402D01*
X162315977Y-88150345D01*
X162315975Y-88150342D01*
X162169657Y-88004024D01*
X162083626Y-87946541D01*
X161997598Y-87889059D01*
X161806420Y-87809870D01*
X161806412Y-87809868D01*
X161603469Y-87769500D01*
X161603465Y-87769500D01*
X161396535Y-87769500D01*
X161396530Y-87769500D01*
X161193587Y-87809868D01*
X161193579Y-87809870D01*
X161002403Y-87889058D01*
X160830342Y-88004024D01*
X160684024Y-88150342D01*
X160569058Y-88322403D01*
X160489870Y-88513579D01*
X160489868Y-88513587D01*
X160449500Y-88716530D01*
X155800500Y-88716530D01*
X155800500Y-86176530D01*
X160449500Y-86176530D01*
X160449500Y-86383469D01*
X160489868Y-86586412D01*
X160489870Y-86586420D01*
X160569058Y-86777596D01*
X160684024Y-86949657D01*
X160830342Y-87095975D01*
X160830345Y-87095977D01*
X161002402Y-87210941D01*
X161193580Y-87290130D01*
X161396530Y-87330499D01*
X161396534Y-87330500D01*
X161396535Y-87330500D01*
X161603466Y-87330500D01*
X161603467Y-87330499D01*
X161806420Y-87290130D01*
X161997598Y-87210941D01*
X162169655Y-87095977D01*
X162315977Y-86949655D01*
X162430941Y-86777598D01*
X162510130Y-86586420D01*
X162550500Y-86383465D01*
X162550500Y-86176535D01*
X162510130Y-85973580D01*
X162430941Y-85782402D01*
X162315977Y-85610345D01*
X162315975Y-85610342D01*
X162169657Y-85464024D01*
X162083626Y-85406541D01*
X161997598Y-85349059D01*
X161806420Y-85269870D01*
X161806412Y-85269868D01*
X161603469Y-85229500D01*
X161603465Y-85229500D01*
X161396535Y-85229500D01*
X161396530Y-85229500D01*
X161193587Y-85269868D01*
X161193579Y-85269870D01*
X161002403Y-85349058D01*
X160830342Y-85464024D01*
X160684024Y-85610342D01*
X160569058Y-85782403D01*
X160489870Y-85973579D01*
X160489868Y-85973587D01*
X160449500Y-86176530D01*
X155800500Y-86176530D01*
X155800500Y-83636530D01*
X160449500Y-83636530D01*
X160449500Y-83843469D01*
X160489868Y-84046412D01*
X160489870Y-84046420D01*
X160569058Y-84237596D01*
X160684024Y-84409657D01*
X160830342Y-84555975D01*
X160830345Y-84555977D01*
X161002402Y-84670941D01*
X161193580Y-84750130D01*
X161396530Y-84790499D01*
X161396534Y-84790500D01*
X161396535Y-84790500D01*
X161603466Y-84790500D01*
X161603467Y-84790499D01*
X161806420Y-84750130D01*
X161997598Y-84670941D01*
X162169655Y-84555977D01*
X162315977Y-84409655D01*
X162430941Y-84237598D01*
X162510130Y-84046420D01*
X162550500Y-83843465D01*
X162550500Y-83636535D01*
X162510130Y-83433580D01*
X162430941Y-83242402D01*
X162315977Y-83070345D01*
X162315975Y-83070342D01*
X162169657Y-82924024D01*
X162083626Y-82866541D01*
X161997598Y-82809059D01*
X161806420Y-82729870D01*
X161806412Y-82729868D01*
X161603469Y-82689500D01*
X161603465Y-82689500D01*
X161396535Y-82689500D01*
X161396530Y-82689500D01*
X161193587Y-82729868D01*
X161193579Y-82729870D01*
X161002403Y-82809058D01*
X160830342Y-82924024D01*
X160684024Y-83070342D01*
X160569058Y-83242403D01*
X160489870Y-83433579D01*
X160489868Y-83433587D01*
X160449500Y-83636530D01*
X155800500Y-83636530D01*
X155800500Y-81096530D01*
X160449500Y-81096530D01*
X160449500Y-81303469D01*
X160489868Y-81506412D01*
X160489870Y-81506420D01*
X160569058Y-81697596D01*
X160684024Y-81869657D01*
X160830342Y-82015975D01*
X160830345Y-82015977D01*
X161002402Y-82130941D01*
X161193580Y-82210130D01*
X161396530Y-82250499D01*
X161396534Y-82250500D01*
X161396535Y-82250500D01*
X161603466Y-82250500D01*
X161603467Y-82250499D01*
X161806420Y-82210130D01*
X161997598Y-82130941D01*
X162169655Y-82015977D01*
X162315977Y-81869655D01*
X162430941Y-81697598D01*
X162510130Y-81506420D01*
X162550500Y-81303465D01*
X162550500Y-81096535D01*
X162510130Y-80893580D01*
X162430941Y-80702402D01*
X162315977Y-80530345D01*
X162315975Y-80530342D01*
X162169657Y-80384024D01*
X162083626Y-80326541D01*
X161997598Y-80269059D01*
X161806420Y-80189870D01*
X161806412Y-80189868D01*
X161603469Y-80149500D01*
X161603465Y-80149500D01*
X161396535Y-80149500D01*
X161396530Y-80149500D01*
X161193587Y-80189868D01*
X161193579Y-80189870D01*
X161002403Y-80269058D01*
X160830342Y-80384024D01*
X160684024Y-80530342D01*
X160569058Y-80702403D01*
X160489870Y-80893579D01*
X160489868Y-80893587D01*
X160449500Y-81096530D01*
X155800500Y-81096530D01*
X155800500Y-78556530D01*
X160449500Y-78556530D01*
X160449500Y-78763469D01*
X160489868Y-78966412D01*
X160489870Y-78966420D01*
X160569058Y-79157596D01*
X160684024Y-79329657D01*
X160830342Y-79475975D01*
X160830345Y-79475977D01*
X161002402Y-79590941D01*
X161193580Y-79670130D01*
X161396530Y-79710499D01*
X161396534Y-79710500D01*
X161396535Y-79710500D01*
X161603466Y-79710500D01*
X161603467Y-79710499D01*
X161806420Y-79670130D01*
X161997598Y-79590941D01*
X162169655Y-79475977D01*
X162315977Y-79329655D01*
X162430941Y-79157598D01*
X162510130Y-78966420D01*
X162550500Y-78763465D01*
X162550500Y-78556535D01*
X162510130Y-78353580D01*
X162430941Y-78162402D01*
X162315977Y-77990345D01*
X162315975Y-77990342D01*
X162169657Y-77844024D01*
X162083626Y-77786541D01*
X161997598Y-77729059D01*
X161806420Y-77649870D01*
X161806412Y-77649868D01*
X161603469Y-77609500D01*
X161603465Y-77609500D01*
X161396535Y-77609500D01*
X161396530Y-77609500D01*
X161193587Y-77649868D01*
X161193579Y-77649870D01*
X161002403Y-77729058D01*
X160830342Y-77844024D01*
X160684024Y-77990342D01*
X160569058Y-78162403D01*
X160489870Y-78353579D01*
X160489868Y-78353587D01*
X160449500Y-78556530D01*
X155800500Y-78556530D01*
X155800500Y-73476530D01*
X160449500Y-73476530D01*
X160449500Y-73683469D01*
X160489868Y-73886412D01*
X160489870Y-73886420D01*
X160569058Y-74077596D01*
X160684024Y-74249657D01*
X160830342Y-74395975D01*
X160830345Y-74395977D01*
X161002402Y-74510941D01*
X161193580Y-74590130D01*
X161396530Y-74630499D01*
X161396534Y-74630500D01*
X161396535Y-74630500D01*
X161603466Y-74630500D01*
X161603467Y-74630499D01*
X161806420Y-74590130D01*
X161997598Y-74510941D01*
X162169655Y-74395977D01*
X162315977Y-74249655D01*
X162315980Y-74249649D01*
X162319837Y-74244951D01*
X162321885Y-74246631D01*
X162366684Y-74209184D01*
X162436008Y-74200470D01*
X162499039Y-74230618D01*
X162503867Y-74235194D01*
X183492794Y-95224121D01*
X183526279Y-95285444D01*
X183521295Y-95355136D01*
X183483250Y-95405956D01*
X183484239Y-95407114D01*
X183480531Y-95410280D01*
X183330276Y-95560535D01*
X183330272Y-95560540D01*
X183205379Y-95732442D01*
X183108904Y-95921782D01*
X183043242Y-96123871D01*
X183042652Y-96126330D01*
X183042171Y-96127167D01*
X183041736Y-96128507D01*
X183041454Y-96128415D01*
X183007864Y-96186923D01*
X182945839Y-96219090D01*
X182876270Y-96212617D01*
X182834396Y-96185069D01*
X163038519Y-76389192D01*
X163005034Y-76327869D01*
X163002200Y-76301511D01*
X163002200Y-76077149D01*
X163002200Y-76077147D01*
X162980018Y-75994362D01*
X162980014Y-75994355D01*
X162937169Y-75920144D01*
X162937163Y-75920136D01*
X162876563Y-75859536D01*
X162876555Y-75859530D01*
X162802344Y-75816685D01*
X162802340Y-75816683D01*
X162802338Y-75816682D01*
X162719553Y-75794500D01*
X162719552Y-75794500D01*
X162585081Y-75794500D01*
X162518042Y-75774815D01*
X162472287Y-75722011D01*
X162470520Y-75717953D01*
X162430942Y-75622403D01*
X162315975Y-75450342D01*
X162169657Y-75304024D01*
X162083626Y-75246541D01*
X161997598Y-75189059D01*
X161806420Y-75109870D01*
X161806412Y-75109868D01*
X161603469Y-75069500D01*
X161603465Y-75069500D01*
X161396535Y-75069500D01*
X161396530Y-75069500D01*
X161193587Y-75109868D01*
X161193579Y-75109870D01*
X161002403Y-75189058D01*
X160830342Y-75304024D01*
X160684024Y-75450342D01*
X160569058Y-75622403D01*
X160489870Y-75813579D01*
X160489868Y-75813587D01*
X160449500Y-76016530D01*
X160449500Y-76223469D01*
X160489868Y-76426412D01*
X160489870Y-76426420D01*
X160569058Y-76617596D01*
X160684024Y-76789657D01*
X160830342Y-76935975D01*
X160830345Y-76935977D01*
X161002402Y-77050941D01*
X161193580Y-77130130D01*
X161396530Y-77170499D01*
X161396534Y-77170500D01*
X161396535Y-77170500D01*
X161603466Y-77170500D01*
X161603467Y-77170499D01*
X161806420Y-77130130D01*
X161997598Y-77050941D01*
X162169655Y-76935977D01*
X162315977Y-76789655D01*
X162315980Y-76789649D01*
X162319837Y-76784951D01*
X162321885Y-76786631D01*
X162366684Y-76749184D01*
X162436008Y-76740470D01*
X162499039Y-76770618D01*
X162503867Y-76775194D01*
X183704805Y-97976132D01*
X183738290Y-98037455D01*
X183733306Y-98107147D01*
X183694303Y-98159246D01*
X183695053Y-98160159D01*
X183690341Y-98164025D01*
X183544024Y-98310342D01*
X183429058Y-98482403D01*
X183349870Y-98673579D01*
X183349868Y-98673587D01*
X183309500Y-98876530D01*
X183309500Y-99083469D01*
X183349868Y-99286412D01*
X183349870Y-99286420D01*
X183429058Y-99477596D01*
X183544024Y-99649657D01*
X183690342Y-99795975D01*
X183690345Y-99795977D01*
X183862402Y-99910941D01*
X184053580Y-99990130D01*
X184256530Y-100030499D01*
X184256534Y-100030500D01*
X184256535Y-100030500D01*
X184463466Y-100030500D01*
X184463467Y-100030499D01*
X184666420Y-99990130D01*
X184857598Y-99910941D01*
X185029655Y-99795977D01*
X185175977Y-99649655D01*
X185290941Y-99477598D01*
X185370130Y-99286420D01*
X185410500Y-99083465D01*
X185410500Y-98876535D01*
X185370130Y-98673580D01*
X185290941Y-98482402D01*
X185175977Y-98310345D01*
X185175975Y-98310342D01*
X185112814Y-98247181D01*
X185079329Y-98185858D01*
X185084313Y-98116166D01*
X185126185Y-98060233D01*
X185191649Y-98035816D01*
X185200495Y-98035500D01*
X187634111Y-98035500D01*
X187701150Y-98055185D01*
X187721792Y-98071819D01*
X204508645Y-114858672D01*
X204542130Y-114919995D01*
X204537146Y-114989687D01*
X204524066Y-115015244D01*
X204463371Y-115106079D01*
X204463364Y-115106092D01*
X204387950Y-115288160D01*
X204387947Y-115288170D01*
X204349500Y-115481456D01*
X204349500Y-115481459D01*
X204349500Y-115678541D01*
X204349500Y-115678543D01*
X204349499Y-115678543D01*
X204387947Y-115871829D01*
X204387950Y-115871839D01*
X204463364Y-116053907D01*
X204463371Y-116053920D01*
X204572860Y-116217781D01*
X204572863Y-116217785D01*
X204712214Y-116357136D01*
X204712218Y-116357139D01*
X204876079Y-116466628D01*
X204876092Y-116466635D01*
X205058160Y-116542049D01*
X205058165Y-116542051D01*
X205058169Y-116542051D01*
X205058170Y-116542052D01*
X205251456Y-116580500D01*
X205251459Y-116580500D01*
X205448543Y-116580500D01*
X205578582Y-116554632D01*
X205641835Y-116542051D01*
X205823914Y-116466632D01*
X205987782Y-116357139D01*
X206127139Y-116217782D01*
X206236632Y-116053914D01*
X206312051Y-115871835D01*
X206350500Y-115678541D01*
X206350500Y-115481459D01*
X206350500Y-115481456D01*
X206312052Y-115288170D01*
X206312051Y-115288169D01*
X206312051Y-115288165D01*
X206312049Y-115288160D01*
X206236635Y-115106092D01*
X206236628Y-115106079D01*
X206127139Y-114942218D01*
X206127136Y-114942214D01*
X205987785Y-114802863D01*
X205987781Y-114802860D01*
X205823920Y-114693371D01*
X205823907Y-114693364D01*
X205641839Y-114617950D01*
X205641829Y-114617947D01*
X205448543Y-114579500D01*
X205448541Y-114579500D01*
X205251459Y-114579500D01*
X205231943Y-114583382D01*
X205162351Y-114577153D01*
X205120072Y-114549445D01*
X204624669Y-114054042D01*
X204591184Y-113992719D01*
X204596168Y-113923027D01*
X204638040Y-113867094D01*
X204703504Y-113842677D01*
X204771777Y-113857529D01*
X204781241Y-113863259D01*
X204876079Y-113926628D01*
X204876092Y-113926635D01*
X205035635Y-113992719D01*
X205058165Y-114002051D01*
X205058169Y-114002051D01*
X205058170Y-114002052D01*
X205251456Y-114040500D01*
X205251459Y-114040500D01*
X205448543Y-114040500D01*
X205578582Y-114014632D01*
X205641835Y-114002051D01*
X205823914Y-113926632D01*
X205987782Y-113817139D01*
X206127139Y-113677782D01*
X206236632Y-113513914D01*
X206312051Y-113331835D01*
X206350500Y-113138541D01*
X206350500Y-112941459D01*
X206350500Y-112941456D01*
X206312052Y-112748170D01*
X206312051Y-112748169D01*
X206312051Y-112748165D01*
X206250576Y-112599750D01*
X206236635Y-112566092D01*
X206236628Y-112566079D01*
X206127139Y-112402218D01*
X206127136Y-112402214D01*
X205987785Y-112262863D01*
X205987781Y-112262860D01*
X205823920Y-112153371D01*
X205823907Y-112153364D01*
X205641839Y-112077950D01*
X205641829Y-112077947D01*
X205448543Y-112039500D01*
X205448541Y-112039500D01*
X205251459Y-112039500D01*
X205251457Y-112039500D01*
X205058171Y-112077947D01*
X205058167Y-112077948D01*
X205058165Y-112077949D01*
X204986293Y-112107718D01*
X204916827Y-112115186D01*
X204854348Y-112083910D01*
X204851164Y-112080837D01*
X200628009Y-107857682D01*
X204050000Y-107857682D01*
X204050000Y-108062317D01*
X204082009Y-108264417D01*
X204145244Y-108459031D01*
X204238141Y-108641350D01*
X204238147Y-108641359D01*
X204270523Y-108685921D01*
X204270524Y-108685922D01*
X204907861Y-108048584D01*
X204930667Y-108133694D01*
X204989910Y-108236306D01*
X205073694Y-108320090D01*
X205176306Y-108379333D01*
X205261414Y-108402137D01*
X204624076Y-109039474D01*
X204668650Y-109071859D01*
X204850968Y-109164755D01*
X205045582Y-109227990D01*
X205234268Y-109257875D01*
X205297403Y-109287804D01*
X205334334Y-109347116D01*
X205333336Y-109416978D01*
X205294726Y-109475211D01*
X205239062Y-109501965D01*
X205058170Y-109537947D01*
X205058160Y-109537950D01*
X204876092Y-109613364D01*
X204876079Y-109613371D01*
X204712218Y-109722860D01*
X204712214Y-109722863D01*
X204572863Y-109862214D01*
X204572860Y-109862218D01*
X204463371Y-110026079D01*
X204463364Y-110026092D01*
X204387950Y-110208160D01*
X204387947Y-110208170D01*
X204349500Y-110401456D01*
X204349500Y-110401459D01*
X204349500Y-110598541D01*
X204349500Y-110598543D01*
X204349499Y-110598543D01*
X204387947Y-110791829D01*
X204387950Y-110791839D01*
X204463364Y-110973907D01*
X204463371Y-110973920D01*
X204572860Y-111137781D01*
X204572863Y-111137785D01*
X204712214Y-111277136D01*
X204712218Y-111277139D01*
X204876079Y-111386628D01*
X204876092Y-111386635D01*
X205058160Y-111462049D01*
X205058165Y-111462051D01*
X205058169Y-111462051D01*
X205058170Y-111462052D01*
X205251456Y-111500500D01*
X205251459Y-111500500D01*
X205448543Y-111500500D01*
X205578582Y-111474632D01*
X205641835Y-111462051D01*
X205823914Y-111386632D01*
X205987782Y-111277139D01*
X206127139Y-111137782D01*
X206236632Y-110973914D01*
X206312051Y-110791835D01*
X206350500Y-110598541D01*
X206350500Y-110401459D01*
X206350500Y-110401456D01*
X206312052Y-110208170D01*
X206312051Y-110208169D01*
X206312051Y-110208165D01*
X206312049Y-110208160D01*
X206236635Y-110026092D01*
X206236628Y-110026079D01*
X206127139Y-109862218D01*
X206127136Y-109862214D01*
X205987785Y-109722863D01*
X205987781Y-109722860D01*
X205823920Y-109613371D01*
X205823907Y-109613364D01*
X205641839Y-109537950D01*
X205641829Y-109537947D01*
X205460937Y-109501965D01*
X205399026Y-109469580D01*
X205364452Y-109408864D01*
X205368192Y-109339095D01*
X205409059Y-109282423D01*
X205465731Y-109257875D01*
X205654417Y-109227990D01*
X205849031Y-109164755D01*
X206031349Y-109071859D01*
X206075921Y-109039474D01*
X205438585Y-108402138D01*
X205523694Y-108379333D01*
X205626306Y-108320090D01*
X205710090Y-108236306D01*
X205769333Y-108133694D01*
X205792138Y-108048585D01*
X206429474Y-108685921D01*
X206461859Y-108641349D01*
X206554755Y-108459031D01*
X206617990Y-108264417D01*
X206650000Y-108062317D01*
X206650000Y-107857682D01*
X206617990Y-107655582D01*
X206554755Y-107460968D01*
X206461859Y-107278650D01*
X206429474Y-107234077D01*
X206429474Y-107234076D01*
X205792137Y-107871413D01*
X205769333Y-107786306D01*
X205710090Y-107683694D01*
X205626306Y-107599910D01*
X205523694Y-107540667D01*
X205438584Y-107517861D01*
X206075922Y-106880524D01*
X206075921Y-106880523D01*
X206031359Y-106848147D01*
X206031350Y-106848141D01*
X205849031Y-106755244D01*
X205654417Y-106692009D01*
X205465731Y-106662124D01*
X205402596Y-106632194D01*
X205365665Y-106572883D01*
X205366663Y-106503020D01*
X205405273Y-106444788D01*
X205460938Y-106418034D01*
X205641835Y-106382051D01*
X205823914Y-106306632D01*
X205987782Y-106197139D01*
X206127139Y-106057782D01*
X206236632Y-105893914D01*
X206312051Y-105711835D01*
X206350500Y-105518541D01*
X206350500Y-105321459D01*
X206350500Y-105321456D01*
X206312052Y-105128170D01*
X206312051Y-105128169D01*
X206312051Y-105128165D01*
X206296128Y-105089723D01*
X206236635Y-104946092D01*
X206236628Y-104946079D01*
X206127139Y-104782218D01*
X206127136Y-104782214D01*
X205987785Y-104642863D01*
X205987781Y-104642860D01*
X205823920Y-104533371D01*
X205823907Y-104533364D01*
X205641839Y-104457950D01*
X205641829Y-104457947D01*
X205448543Y-104419500D01*
X205448541Y-104419500D01*
X205251459Y-104419500D01*
X205251457Y-104419500D01*
X205058170Y-104457947D01*
X205058160Y-104457950D01*
X204876092Y-104533364D01*
X204876079Y-104533371D01*
X204712218Y-104642860D01*
X204712214Y-104642863D01*
X204572863Y-104782214D01*
X204572860Y-104782218D01*
X204463371Y-104946079D01*
X204463364Y-104946092D01*
X204387950Y-105128160D01*
X204387947Y-105128170D01*
X204349500Y-105321456D01*
X204349500Y-105321459D01*
X204349500Y-105518541D01*
X204349500Y-105518543D01*
X204349499Y-105518543D01*
X204387947Y-105711829D01*
X204387950Y-105711839D01*
X204463364Y-105893907D01*
X204463371Y-105893920D01*
X204572860Y-106057781D01*
X204572863Y-106057785D01*
X204712214Y-106197136D01*
X204712218Y-106197139D01*
X204876079Y-106306628D01*
X204876092Y-106306635D01*
X205058160Y-106382049D01*
X205058165Y-106382051D01*
X205190674Y-106408409D01*
X205239061Y-106418034D01*
X205300972Y-106450419D01*
X205335546Y-106511134D01*
X205331807Y-106580904D01*
X205290940Y-106637576D01*
X205234269Y-106662124D01*
X205045581Y-106692010D01*
X204850968Y-106755244D01*
X204668644Y-106848143D01*
X204624077Y-106880523D01*
X204624077Y-106880524D01*
X205261415Y-107517861D01*
X205176306Y-107540667D01*
X205073694Y-107599910D01*
X204989910Y-107683694D01*
X204930667Y-107786306D01*
X204907861Y-107871414D01*
X204270524Y-107234077D01*
X204270523Y-107234077D01*
X204238143Y-107278644D01*
X204145244Y-107460968D01*
X204082009Y-107655582D01*
X204050000Y-107857682D01*
X200628009Y-107857682D01*
X187679864Y-94909537D01*
X187679862Y-94909535D01*
X187642750Y-94888108D01*
X187605640Y-94866682D01*
X187564246Y-94855591D01*
X187522853Y-94844500D01*
X187522852Y-94844500D01*
X185200495Y-94844500D01*
X185133456Y-94824815D01*
X185087701Y-94772011D01*
X185077757Y-94702853D01*
X185106782Y-94639297D01*
X185112814Y-94632819D01*
X185175974Y-94569658D01*
X185175975Y-94569657D01*
X185175977Y-94569655D01*
X185290941Y-94397598D01*
X185370130Y-94206420D01*
X185410500Y-94003465D01*
X185410500Y-93796535D01*
X185370130Y-93593580D01*
X185290941Y-93402402D01*
X185175977Y-93230345D01*
X185175975Y-93230342D01*
X185029657Y-93084024D01*
X184943626Y-93026541D01*
X184857598Y-92969059D01*
X184666420Y-92889870D01*
X184666412Y-92889868D01*
X184463469Y-92849500D01*
X184463465Y-92849500D01*
X184256535Y-92849500D01*
X184256530Y-92849500D01*
X184053587Y-92889868D01*
X184053579Y-92889870D01*
X183862403Y-92969058D01*
X183690342Y-93084024D01*
X183544024Y-93230342D01*
X183429058Y-93402403D01*
X183349870Y-93593579D01*
X183349868Y-93593587D01*
X183309500Y-93796530D01*
X183309500Y-93820811D01*
X183289815Y-93887850D01*
X183237011Y-93933605D01*
X183167853Y-93943549D01*
X183104297Y-93914524D01*
X183097819Y-93908492D01*
X177905857Y-88716530D01*
X183309500Y-88716530D01*
X183309500Y-88923469D01*
X183349868Y-89126412D01*
X183349870Y-89126420D01*
X183429058Y-89317596D01*
X183544024Y-89489657D01*
X183690342Y-89635975D01*
X183690345Y-89635977D01*
X183862402Y-89750941D01*
X184031464Y-89820969D01*
X184085867Y-89864810D01*
X184107932Y-89931104D01*
X184091399Y-89997529D01*
X184056682Y-90057661D01*
X184056682Y-90057662D01*
X184034500Y-90140447D01*
X184034500Y-90274919D01*
X184014815Y-90341958D01*
X183962011Y-90387713D01*
X183957953Y-90389480D01*
X183862403Y-90429057D01*
X183690342Y-90544024D01*
X183544024Y-90690342D01*
X183429058Y-90862403D01*
X183349870Y-91053579D01*
X183349868Y-91053587D01*
X183309500Y-91256530D01*
X183309500Y-91463469D01*
X183349868Y-91666412D01*
X183349870Y-91666420D01*
X183429058Y-91857596D01*
X183544024Y-92029657D01*
X183690342Y-92175975D01*
X183690345Y-92175977D01*
X183862402Y-92290941D01*
X184053580Y-92370130D01*
X184256530Y-92410499D01*
X184256534Y-92410500D01*
X184256535Y-92410500D01*
X184463466Y-92410500D01*
X184463467Y-92410499D01*
X184666420Y-92370130D01*
X184857598Y-92290941D01*
X185029655Y-92175977D01*
X185175977Y-92029655D01*
X185290941Y-91857598D01*
X185370130Y-91666420D01*
X185410500Y-91463465D01*
X185410500Y-91256535D01*
X185370130Y-91053580D01*
X185290941Y-90862402D01*
X185175977Y-90690345D01*
X185175975Y-90690342D01*
X185029658Y-90544025D01*
X185024947Y-90540159D01*
X185026614Y-90538126D01*
X184989139Y-90493208D01*
X184980489Y-90423876D01*
X185010697Y-90360873D01*
X185015195Y-90356132D01*
X193864915Y-81506412D01*
X202987165Y-72384162D01*
X203030018Y-72309939D01*
X203052200Y-72227153D01*
X203052200Y-72141447D01*
X203052200Y-59377547D01*
X203030018Y-59294762D01*
X203030018Y-59294761D01*
X202987165Y-59220538D01*
X202611367Y-58844740D01*
X202577882Y-58783417D01*
X202576575Y-58737666D01*
X202600500Y-58586611D01*
X202600500Y-58413389D01*
X202573402Y-58242299D01*
X202519873Y-58077555D01*
X202441232Y-57923212D01*
X202339414Y-57783072D01*
X202216928Y-57660586D01*
X202076788Y-57558768D01*
X201922445Y-57480127D01*
X201757701Y-57426598D01*
X201757699Y-57426597D01*
X201757698Y-57426597D01*
X201626271Y-57405781D01*
X201586611Y-57399500D01*
X201413389Y-57399500D01*
X201373728Y-57405781D01*
X201242302Y-57426597D01*
X201077552Y-57480128D01*
X200923211Y-57558768D01*
X200843256Y-57616859D01*
X200783072Y-57660586D01*
X200783070Y-57660588D01*
X200783069Y-57660588D01*
X200660588Y-57783069D01*
X200660581Y-57783078D01*
X200600317Y-57866023D01*
X200544987Y-57908689D01*
X200475374Y-57914667D01*
X200413579Y-57882061D01*
X200399683Y-57866023D01*
X200339418Y-57783078D01*
X200339414Y-57783072D01*
X200216928Y-57660586D01*
X200076788Y-57558768D01*
X199922445Y-57480127D01*
X199757701Y-57426598D01*
X199757699Y-57426597D01*
X199757698Y-57426597D01*
X199626271Y-57405781D01*
X199586611Y-57399500D01*
X199413389Y-57399500D01*
X199373728Y-57405781D01*
X199242302Y-57426597D01*
X199077552Y-57480128D01*
X198923211Y-57558768D01*
X198843256Y-57616859D01*
X198783072Y-57660586D01*
X198783070Y-57660588D01*
X198783069Y-57660588D01*
X198660588Y-57783069D01*
X198660581Y-57783078D01*
X198600317Y-57866023D01*
X198544987Y-57908689D01*
X198475374Y-57914667D01*
X198413579Y-57882061D01*
X198399683Y-57866023D01*
X198339418Y-57783078D01*
X198339414Y-57783072D01*
X198216928Y-57660586D01*
X198076788Y-57558768D01*
X197922445Y-57480127D01*
X197757701Y-57426598D01*
X197757699Y-57426597D01*
X197757698Y-57426597D01*
X197626271Y-57405781D01*
X197586611Y-57399500D01*
X197413389Y-57399500D01*
X197373728Y-57405781D01*
X197242302Y-57426597D01*
X197077552Y-57480128D01*
X196923211Y-57558768D01*
X196843256Y-57616859D01*
X196783072Y-57660586D01*
X196783070Y-57660588D01*
X196783069Y-57660588D01*
X196660588Y-57783069D01*
X196660581Y-57783078D01*
X196600317Y-57866023D01*
X196544987Y-57908689D01*
X196475374Y-57914667D01*
X196413579Y-57882061D01*
X196399683Y-57866023D01*
X196339418Y-57783078D01*
X196339414Y-57783072D01*
X196216928Y-57660586D01*
X196076788Y-57558768D01*
X195922445Y-57480127D01*
X195757701Y-57426598D01*
X195757699Y-57426597D01*
X195757698Y-57426597D01*
X195626271Y-57405781D01*
X195586611Y-57399500D01*
X195413389Y-57399500D01*
X195373728Y-57405781D01*
X195242302Y-57426597D01*
X195077552Y-57480128D01*
X194923211Y-57558768D01*
X194843256Y-57616859D01*
X194783072Y-57660586D01*
X194783070Y-57660588D01*
X194783069Y-57660588D01*
X194660588Y-57783069D01*
X194660588Y-57783070D01*
X194660586Y-57783072D01*
X194660582Y-57783078D01*
X194558768Y-57923211D01*
X194480128Y-58077552D01*
X194426597Y-58242302D01*
X194399500Y-58413389D01*
X194399500Y-58586611D01*
X194426598Y-58757701D01*
X194480127Y-58922445D01*
X194558768Y-59076788D01*
X194660586Y-59216928D01*
X194660588Y-59216930D01*
X194668637Y-59224979D01*
X194702122Y-59286302D01*
X194704574Y-59322389D01*
X194702485Y-59348931D01*
X195411415Y-60057861D01*
X195326306Y-60080667D01*
X195223694Y-60139910D01*
X195139910Y-60223694D01*
X195080667Y-60326306D01*
X195057861Y-60411414D01*
X194348932Y-59702485D01*
X194348931Y-59702485D01*
X194302616Y-59766233D01*
X194202567Y-59962589D01*
X194134473Y-60172164D01*
X194100000Y-60389818D01*
X194100000Y-60610181D01*
X194134473Y-60827835D01*
X194202567Y-61037410D01*
X194302611Y-61233756D01*
X194348932Y-61297513D01*
X195057861Y-60588584D01*
X195080667Y-60673694D01*
X195139910Y-60776306D01*
X195223694Y-60860090D01*
X195326306Y-60919333D01*
X195411414Y-60942137D01*
X194702485Y-61651065D01*
X194702485Y-61651066D01*
X194766243Y-61697388D01*
X194962589Y-61797432D01*
X195172164Y-61865526D01*
X195389819Y-61900000D01*
X195610181Y-61900000D01*
X195827835Y-61865526D01*
X196037410Y-61797432D01*
X196233760Y-61697386D01*
X196297513Y-61651066D01*
X196297514Y-61651066D01*
X195588585Y-60942138D01*
X195673694Y-60919333D01*
X195776306Y-60860090D01*
X195860090Y-60776306D01*
X195919333Y-60673694D01*
X195942138Y-60588585D01*
X196651066Y-61297513D01*
X196677608Y-61295424D01*
X196745985Y-61309788D01*
X196775019Y-61331361D01*
X196783072Y-61339414D01*
X196923212Y-61441232D01*
X197077555Y-61519873D01*
X197242299Y-61573402D01*
X197413389Y-61600500D01*
X197413390Y-61600500D01*
X197586610Y-61600500D01*
X197586611Y-61600500D01*
X197757701Y-61573402D01*
X197922445Y-61519873D01*
X198076788Y-61441232D01*
X198216928Y-61339414D01*
X198339414Y-61216928D01*
X198399682Y-61133975D01*
X198455012Y-61091311D01*
X198524626Y-61085332D01*
X198586421Y-61117938D01*
X198600315Y-61133973D01*
X198660586Y-61216928D01*
X198783072Y-61339414D01*
X198923212Y-61441232D01*
X199077555Y-61519873D01*
X199242299Y-61573402D01*
X199413389Y-61600500D01*
X199413390Y-61600500D01*
X199586610Y-61600500D01*
X199586611Y-61600500D01*
X199757701Y-61573402D01*
X199922445Y-61519873D01*
X200076788Y-61441232D01*
X200205774Y-61347517D01*
X200271577Y-61324038D01*
X200339631Y-61339863D01*
X200388326Y-61389968D01*
X200400274Y-61423644D01*
X200411132Y-61478229D01*
X200411132Y-61478230D01*
X200455447Y-61544552D01*
X200521769Y-61588867D01*
X200521770Y-61588868D01*
X200580247Y-61600499D01*
X200580250Y-61600500D01*
X200580252Y-61600500D01*
X202277200Y-61600500D01*
X202344239Y-61620185D01*
X202389994Y-61672989D01*
X202401200Y-61724500D01*
X202401200Y-71998110D01*
X202381515Y-72065149D01*
X202364881Y-72085791D01*
X185622181Y-88828491D01*
X185560858Y-88861976D01*
X185491166Y-88856992D01*
X185435233Y-88815120D01*
X185410816Y-88749656D01*
X185410500Y-88740810D01*
X185410500Y-88716534D01*
X185410499Y-88716530D01*
X185370131Y-88513587D01*
X185370130Y-88513580D01*
X185290941Y-88322402D01*
X185175977Y-88150345D01*
X185175975Y-88150342D01*
X185029657Y-88004024D01*
X184943626Y-87946541D01*
X184857598Y-87889059D01*
X184666420Y-87809870D01*
X184666412Y-87809868D01*
X184463469Y-87769500D01*
X184463465Y-87769500D01*
X184256535Y-87769500D01*
X184256530Y-87769500D01*
X184053587Y-87809868D01*
X184053579Y-87809870D01*
X183862403Y-87889058D01*
X183690342Y-88004024D01*
X183544024Y-88150342D01*
X183429058Y-88322403D01*
X183349870Y-88513579D01*
X183349868Y-88513587D01*
X183309500Y-88716530D01*
X177905857Y-88716530D01*
X175365857Y-86176530D01*
X183309500Y-86176530D01*
X183309500Y-86383469D01*
X183349868Y-86586412D01*
X183349870Y-86586420D01*
X183429058Y-86777596D01*
X183544024Y-86949657D01*
X183690342Y-87095975D01*
X183690345Y-87095977D01*
X183862402Y-87210941D01*
X184053580Y-87290130D01*
X184256530Y-87330499D01*
X184256534Y-87330500D01*
X184256535Y-87330500D01*
X184463466Y-87330500D01*
X184463467Y-87330499D01*
X184666420Y-87290130D01*
X184857598Y-87210941D01*
X185029655Y-87095977D01*
X185175977Y-86949655D01*
X185290941Y-86777598D01*
X185370130Y-86586420D01*
X185410500Y-86383465D01*
X185410500Y-86176535D01*
X185370130Y-85973580D01*
X185290941Y-85782402D01*
X185175977Y-85610345D01*
X185175975Y-85610342D01*
X185029657Y-85464024D01*
X184943626Y-85406541D01*
X184857598Y-85349059D01*
X184666420Y-85269870D01*
X184666412Y-85269868D01*
X184463469Y-85229500D01*
X184463465Y-85229500D01*
X184256535Y-85229500D01*
X184256530Y-85229500D01*
X184053587Y-85269868D01*
X184053579Y-85269870D01*
X183862403Y-85349058D01*
X183690342Y-85464024D01*
X183544024Y-85610342D01*
X183429058Y-85782403D01*
X183349870Y-85973579D01*
X183349868Y-85973587D01*
X183309500Y-86176530D01*
X175365857Y-86176530D01*
X172825857Y-83636530D01*
X183309500Y-83636530D01*
X183309500Y-83843469D01*
X183349868Y-84046412D01*
X183349870Y-84046420D01*
X183429058Y-84237596D01*
X183544024Y-84409657D01*
X183690342Y-84555975D01*
X183690345Y-84555977D01*
X183862402Y-84670941D01*
X184053580Y-84750130D01*
X184256530Y-84790499D01*
X184256534Y-84790500D01*
X184256535Y-84790500D01*
X184463466Y-84790500D01*
X184463467Y-84790499D01*
X184666420Y-84750130D01*
X184857598Y-84670941D01*
X185029655Y-84555977D01*
X185175977Y-84409655D01*
X185290941Y-84237598D01*
X185370130Y-84046420D01*
X185410500Y-83843465D01*
X185410500Y-83636535D01*
X185370130Y-83433580D01*
X185290941Y-83242402D01*
X185175977Y-83070345D01*
X185175975Y-83070342D01*
X185029657Y-82924024D01*
X184943626Y-82866541D01*
X184857598Y-82809059D01*
X184666420Y-82729870D01*
X184666412Y-82729868D01*
X184463469Y-82689500D01*
X184463465Y-82689500D01*
X184256535Y-82689500D01*
X184256530Y-82689500D01*
X184053587Y-82729868D01*
X184053579Y-82729870D01*
X183862403Y-82809058D01*
X183690342Y-82924024D01*
X183544024Y-83070342D01*
X183429058Y-83242403D01*
X183349870Y-83433579D01*
X183349868Y-83433587D01*
X183309500Y-83636530D01*
X172825857Y-83636530D01*
X170285857Y-81096530D01*
X183309500Y-81096530D01*
X183309500Y-81303469D01*
X183349868Y-81506412D01*
X183349870Y-81506420D01*
X183429058Y-81697596D01*
X183544024Y-81869657D01*
X183690342Y-82015975D01*
X183690345Y-82015977D01*
X183862402Y-82130941D01*
X184053580Y-82210130D01*
X184256530Y-82250499D01*
X184256534Y-82250500D01*
X184256535Y-82250500D01*
X184463466Y-82250500D01*
X184463467Y-82250499D01*
X184666420Y-82210130D01*
X184857598Y-82130941D01*
X185029655Y-82015977D01*
X185175977Y-81869655D01*
X185290941Y-81697598D01*
X185370130Y-81506420D01*
X185410500Y-81303465D01*
X185410500Y-81096535D01*
X185370130Y-80893580D01*
X185290941Y-80702402D01*
X185175977Y-80530345D01*
X185175975Y-80530342D01*
X185029657Y-80384024D01*
X184943626Y-80326541D01*
X184857598Y-80269059D01*
X184666420Y-80189870D01*
X184666412Y-80189868D01*
X184463469Y-80149500D01*
X184463465Y-80149500D01*
X184256535Y-80149500D01*
X184256530Y-80149500D01*
X184053587Y-80189868D01*
X184053579Y-80189870D01*
X183862403Y-80269058D01*
X183690342Y-80384024D01*
X183544024Y-80530342D01*
X183429058Y-80702403D01*
X183349870Y-80893579D01*
X183349868Y-80893587D01*
X183309500Y-81096530D01*
X170285857Y-81096530D01*
X167745857Y-78556530D01*
X183309500Y-78556530D01*
X183309500Y-78763469D01*
X183349868Y-78966412D01*
X183349870Y-78966420D01*
X183429058Y-79157596D01*
X183544024Y-79329657D01*
X183690342Y-79475975D01*
X183690345Y-79475977D01*
X183862402Y-79590941D01*
X184053580Y-79670130D01*
X184256530Y-79710499D01*
X184256534Y-79710500D01*
X184256535Y-79710500D01*
X184463466Y-79710500D01*
X184463467Y-79710499D01*
X184666420Y-79670130D01*
X184857598Y-79590941D01*
X185029655Y-79475977D01*
X185175977Y-79329655D01*
X185290941Y-79157598D01*
X185370130Y-78966420D01*
X185410500Y-78763465D01*
X185410500Y-78556535D01*
X185370130Y-78353580D01*
X185290941Y-78162402D01*
X185175977Y-77990345D01*
X185175975Y-77990342D01*
X185029657Y-77844024D01*
X184943626Y-77786541D01*
X184857598Y-77729059D01*
X184666420Y-77649870D01*
X184666412Y-77649868D01*
X184463469Y-77609500D01*
X184463465Y-77609500D01*
X184256535Y-77609500D01*
X184256530Y-77609500D01*
X184053587Y-77649868D01*
X184053579Y-77649870D01*
X183862403Y-77729058D01*
X183690342Y-77844024D01*
X183544024Y-77990342D01*
X183429058Y-78162403D01*
X183349870Y-78353579D01*
X183349868Y-78353587D01*
X183309500Y-78556530D01*
X167745857Y-78556530D01*
X165205857Y-76016530D01*
X183309500Y-76016530D01*
X183309500Y-76223469D01*
X183349868Y-76426412D01*
X183349870Y-76426420D01*
X183429058Y-76617596D01*
X183544024Y-76789657D01*
X183690342Y-76935975D01*
X183690345Y-76935977D01*
X183862402Y-77050941D01*
X184053580Y-77130130D01*
X184256530Y-77170499D01*
X184256534Y-77170500D01*
X184256535Y-77170500D01*
X184463466Y-77170500D01*
X184463467Y-77170499D01*
X184666420Y-77130130D01*
X184857598Y-77050941D01*
X185029655Y-76935977D01*
X185175977Y-76789655D01*
X185290941Y-76617598D01*
X185370130Y-76426420D01*
X185410500Y-76223465D01*
X185410500Y-76016535D01*
X185370130Y-75813580D01*
X185290941Y-75622402D01*
X185175977Y-75450345D01*
X185175975Y-75450342D01*
X185029657Y-75304024D01*
X184943626Y-75246541D01*
X184857598Y-75189059D01*
X184666420Y-75109870D01*
X184666412Y-75109868D01*
X184463469Y-75069500D01*
X184463465Y-75069500D01*
X184256535Y-75069500D01*
X184256530Y-75069500D01*
X184053587Y-75109868D01*
X184053579Y-75109870D01*
X183862403Y-75189058D01*
X183690342Y-75304024D01*
X183544024Y-75450342D01*
X183429058Y-75622403D01*
X183349870Y-75813579D01*
X183349868Y-75813587D01*
X183309500Y-76016530D01*
X165205857Y-76016530D01*
X163038519Y-73849192D01*
X163005034Y-73787869D01*
X163002200Y-73761511D01*
X163002200Y-73537149D01*
X163002200Y-73537147D01*
X162985958Y-73476530D01*
X183309500Y-73476530D01*
X183309500Y-73683469D01*
X183349868Y-73886412D01*
X183349870Y-73886420D01*
X183429058Y-74077596D01*
X183544024Y-74249657D01*
X183690342Y-74395975D01*
X183690345Y-74395977D01*
X183862402Y-74510941D01*
X184053580Y-74590130D01*
X184256530Y-74630499D01*
X184256534Y-74630500D01*
X184256535Y-74630500D01*
X184463466Y-74630500D01*
X184463467Y-74630499D01*
X184666420Y-74590130D01*
X184857598Y-74510941D01*
X185029655Y-74395977D01*
X185175977Y-74249655D01*
X185290941Y-74077598D01*
X185370130Y-73886420D01*
X185410500Y-73683465D01*
X185410500Y-73476535D01*
X185370130Y-73273580D01*
X185290941Y-73082402D01*
X185175977Y-72910345D01*
X185175975Y-72910342D01*
X185029657Y-72764024D01*
X184943626Y-72706541D01*
X184857598Y-72649059D01*
X184666420Y-72569870D01*
X184666412Y-72569868D01*
X184463469Y-72529500D01*
X184463465Y-72529500D01*
X184256535Y-72529500D01*
X184256530Y-72529500D01*
X184053587Y-72569868D01*
X184053579Y-72569870D01*
X183862403Y-72649058D01*
X183690342Y-72764024D01*
X183544024Y-72910342D01*
X183429058Y-73082403D01*
X183349870Y-73273579D01*
X183349868Y-73273587D01*
X183309500Y-73476530D01*
X162985958Y-73476530D01*
X162980018Y-73454362D01*
X162980014Y-73454355D01*
X162937169Y-73380144D01*
X162937163Y-73380136D01*
X162876563Y-73319536D01*
X162876555Y-73319530D01*
X162802344Y-73276685D01*
X162802340Y-73276683D01*
X162802338Y-73276682D01*
X162719553Y-73254500D01*
X162719552Y-73254500D01*
X162585081Y-73254500D01*
X162518042Y-73234815D01*
X162472287Y-73182011D01*
X162470520Y-73177953D01*
X162430942Y-73082403D01*
X162315975Y-72910342D01*
X162169657Y-72764024D01*
X162083626Y-72706541D01*
X161997598Y-72649059D01*
X161806420Y-72569870D01*
X161806412Y-72569868D01*
X161603469Y-72529500D01*
X161603465Y-72529500D01*
X161396535Y-72529500D01*
X161396530Y-72529500D01*
X161193587Y-72569868D01*
X161193579Y-72569870D01*
X161002403Y-72649058D01*
X160830342Y-72764024D01*
X160684024Y-72910342D01*
X160569058Y-73082403D01*
X160489870Y-73273579D01*
X160489868Y-73273587D01*
X160449500Y-73476530D01*
X155800500Y-73476530D01*
X155800500Y-70936530D01*
X160449500Y-70936530D01*
X160449500Y-71143469D01*
X160489868Y-71346412D01*
X160489870Y-71346420D01*
X160569058Y-71537596D01*
X160684024Y-71709657D01*
X160830342Y-71855975D01*
X160830345Y-71855977D01*
X161002402Y-71970941D01*
X161193580Y-72050130D01*
X161372861Y-72085791D01*
X161396530Y-72090499D01*
X161396534Y-72090500D01*
X161396535Y-72090500D01*
X161603466Y-72090500D01*
X161603467Y-72090499D01*
X161806420Y-72050130D01*
X161997598Y-71970941D01*
X162169655Y-71855977D01*
X162315977Y-71709655D01*
X162430941Y-71537598D01*
X162510130Y-71346420D01*
X162550500Y-71143465D01*
X162550500Y-70936535D01*
X162510130Y-70733580D01*
X162430941Y-70542402D01*
X162315977Y-70370345D01*
X162315975Y-70370342D01*
X162169657Y-70224024D01*
X162083626Y-70166541D01*
X161997598Y-70109059D01*
X161997593Y-70109057D01*
X161806420Y-70029870D01*
X161806412Y-70029868D01*
X161603469Y-69989500D01*
X161603465Y-69989500D01*
X161396535Y-69989500D01*
X161396530Y-69989500D01*
X161193587Y-70029868D01*
X161193579Y-70029870D01*
X161002403Y-70109058D01*
X160830342Y-70224024D01*
X160684024Y-70370342D01*
X160569058Y-70542403D01*
X160489870Y-70733579D01*
X160489868Y-70733587D01*
X160449500Y-70936530D01*
X155800500Y-70936530D01*
X155800500Y-67630247D01*
X160449500Y-67630247D01*
X160449500Y-69369752D01*
X160461131Y-69428229D01*
X160461132Y-69428230D01*
X160505447Y-69494552D01*
X160571769Y-69538867D01*
X160571770Y-69538868D01*
X160630247Y-69550499D01*
X160630250Y-69550500D01*
X160630252Y-69550500D01*
X162369750Y-69550500D01*
X162369751Y-69550499D01*
X162384568Y-69547552D01*
X162428229Y-69538868D01*
X162428229Y-69538867D01*
X162428231Y-69538867D01*
X162494552Y-69494552D01*
X162538867Y-69428231D01*
X162538867Y-69428229D01*
X162538868Y-69428229D01*
X162550499Y-69369752D01*
X162550500Y-69369750D01*
X162550500Y-68250000D01*
X183032769Y-68250000D01*
X183926988Y-68250000D01*
X183894075Y-68307007D01*
X183860000Y-68434174D01*
X183860000Y-68565826D01*
X183894075Y-68692993D01*
X183926988Y-68750000D01*
X183032769Y-68750000D01*
X183043242Y-68816126D01*
X183043242Y-68816129D01*
X183108904Y-69018217D01*
X183205379Y-69207557D01*
X183330272Y-69379459D01*
X183330276Y-69379464D01*
X183480535Y-69529723D01*
X183480540Y-69529727D01*
X183652442Y-69654620D01*
X183841782Y-69751095D01*
X184017973Y-69808343D01*
X184075648Y-69847780D01*
X184102847Y-69912139D01*
X184090932Y-69980985D01*
X184043688Y-70032461D01*
X184027108Y-70040835D01*
X183862403Y-70109057D01*
X183690342Y-70224024D01*
X183544024Y-70370342D01*
X183429058Y-70542403D01*
X183349870Y-70733579D01*
X183349868Y-70733587D01*
X183309500Y-70936530D01*
X183309500Y-71143469D01*
X183349868Y-71346412D01*
X183349870Y-71346420D01*
X183429058Y-71537596D01*
X183544024Y-71709657D01*
X183690342Y-71855975D01*
X183690345Y-71855977D01*
X183862402Y-71970941D01*
X184053580Y-72050130D01*
X184232861Y-72085791D01*
X184256530Y-72090499D01*
X184256534Y-72090500D01*
X184256535Y-72090500D01*
X184463466Y-72090500D01*
X184463467Y-72090499D01*
X184666420Y-72050130D01*
X184857598Y-71970941D01*
X185029655Y-71855977D01*
X185175977Y-71709655D01*
X185290941Y-71537598D01*
X185370130Y-71346420D01*
X185410500Y-71143465D01*
X185410500Y-70936535D01*
X185370130Y-70733580D01*
X185290941Y-70542402D01*
X185175977Y-70370345D01*
X185175975Y-70370342D01*
X185029657Y-70224024D01*
X184943626Y-70166541D01*
X184857598Y-70109059D01*
X184857593Y-70109057D01*
X184795891Y-70083499D01*
X184692890Y-70040834D01*
X184638488Y-69996994D01*
X184616423Y-69930700D01*
X184633702Y-69863001D01*
X184684839Y-69815390D01*
X184702026Y-69808343D01*
X184878217Y-69751095D01*
X185067557Y-69654620D01*
X185239459Y-69529727D01*
X185239464Y-69529723D01*
X185389723Y-69379464D01*
X185389727Y-69379459D01*
X185514620Y-69207557D01*
X185611095Y-69018217D01*
X185676757Y-68816129D01*
X185676757Y-68816126D01*
X185687231Y-68750000D01*
X184793012Y-68750000D01*
X184825925Y-68692993D01*
X184860000Y-68565826D01*
X184860000Y-68434174D01*
X184825925Y-68307007D01*
X184793012Y-68250000D01*
X185687231Y-68250000D01*
X185676757Y-68183873D01*
X185676757Y-68183870D01*
X185611095Y-67981782D01*
X185514620Y-67792442D01*
X185389727Y-67620540D01*
X185389723Y-67620535D01*
X185239464Y-67470276D01*
X185239459Y-67470272D01*
X185067557Y-67345379D01*
X184878215Y-67248903D01*
X184676124Y-67183241D01*
X184610000Y-67172768D01*
X184610000Y-68066988D01*
X184552993Y-68034075D01*
X184425826Y-68000000D01*
X184294174Y-68000000D01*
X184167007Y-68034075D01*
X184110000Y-68066988D01*
X184110000Y-67172768D01*
X184109999Y-67172768D01*
X184043875Y-67183241D01*
X183841784Y-67248903D01*
X183652442Y-67345379D01*
X183480540Y-67470272D01*
X183480535Y-67470276D01*
X183330276Y-67620535D01*
X183330272Y-67620540D01*
X183205379Y-67792442D01*
X183108904Y-67981782D01*
X183043242Y-68183870D01*
X183043242Y-68183873D01*
X183032769Y-68250000D01*
X162550500Y-68250000D01*
X162550500Y-67630249D01*
X162550499Y-67630247D01*
X162538868Y-67571770D01*
X162538867Y-67571769D01*
X162494552Y-67505447D01*
X162428230Y-67461132D01*
X162428229Y-67461131D01*
X162369752Y-67449500D01*
X162369748Y-67449500D01*
X160630252Y-67449500D01*
X160630247Y-67449500D01*
X160571770Y-67461131D01*
X160571769Y-67461132D01*
X160505447Y-67505447D01*
X160461132Y-67571769D01*
X160461131Y-67571770D01*
X160449500Y-67630247D01*
X155800500Y-67630247D01*
X155800500Y-50424500D01*
X155820185Y-50357461D01*
X155872989Y-50311706D01*
X155924500Y-50300500D01*
X209575500Y-50300500D01*
X209642539Y-50320185D01*
G37*
%TD.AperFunction*%
%TD*%
M02*
