%TF.GenerationSoftware,KiCad,Pcbnew,10.0.0*%
%TF.CreationDate,2026-04-29T16:22:57+01:00*%
%TF.ProjectId,SHS-Z2M-Presence,5348532d-5a32-44d2-9d50-726573656e63,rev?*%
%TF.SameCoordinates,Original*%
%TF.FileFunction,Copper,L1,Top*%
%TF.FilePolarity,Positive*%
%FSLAX46Y46*%
G04 Gerber Fmt 4.6, Leading zero omitted, Abs format (unit mm)*
G04 Created by KiCad (PCBNEW 10.0.0) date 2026-04-29 16:22:57*
%MOMM*%
%LPD*%
G01*
G04 APERTURE LIST*
%TA.AperFunction,SMDPad,CuDef*%
%ADD10R,1.000000X1.200000*%
%TD*%
%TA.AperFunction,ComponentPad*%
%ADD11C,1.600000*%
%TD*%
%TA.AperFunction,SMDPad,CuDef*%
%ADD12R,1.200000X1.000000*%
%TD*%
%TA.AperFunction,ComponentPad*%
%ADD13R,1.800000X1.800000*%
%TD*%
%TA.AperFunction,ComponentPad*%
%ADD14C,1.800000*%
%TD*%
%TA.AperFunction,ComponentPad*%
%ADD15R,1.700000X1.700000*%
%TD*%
%TA.AperFunction,ComponentPad*%
%ADD16O,1.700000X1.700000*%
%TD*%
%TA.AperFunction,ViaPad*%
%ADD17C,0.800000*%
%TD*%
%TA.AperFunction,Conductor*%
%ADD18C,0.500000*%
%TD*%
%TA.AperFunction,Conductor*%
%ADD19C,0.250000*%
%TD*%
G04 APERTURE END LIST*
D10*
%TO.P,C3,1*%
%TO.N,+5V*%
X193000000Y-121500000D03*
%TO.P,C3,2*%
%TO.N,GND*%
X195000000Y-121500000D03*
%TD*%
D11*
%TO.P,U2,1*%
%TO.N,UART1_TX*%
X205350000Y-115580000D03*
%TO.P,U2,2*%
%TO.N,UART1_RX*%
X205350000Y-113040000D03*
%TO.P,U2,3*%
%TO.N,N/C*%
X205350000Y-110500000D03*
%TO.P,U2,4*%
%TO.N,GND*%
X205350000Y-107960000D03*
%TO.P,U2,5*%
%TO.N,+5V*%
X205350000Y-105420000D03*
%TD*%
D12*
%TO.P,C2,1*%
%TO.N,+5V*%
X188000000Y-97000000D03*
%TO.P,C2,2*%
%TO.N,GND*%
X188000000Y-95000000D03*
%TD*%
%TO.P,C1,1*%
%TO.N,+5V*%
X208500000Y-105500000D03*
%TO.P,C1,2*%
%TO.N,GND*%
X208500000Y-107500000D03*
%TD*%
D13*
%TO.P,U3,1*%
%TO.N,+5V*%
X201500000Y-60500000D03*
D14*
%TO.P,U3,2*%
%TO.N,UART0_TX*%
X201500000Y-58500000D03*
%TO.P,U3,3*%
%TO.N,UART0_RX*%
X199500000Y-58500000D03*
%TO.P,U3,4*%
%TO.N,GND*%
X195500000Y-60500000D03*
%TO.P,U3,5*%
%TO.N,N/C*%
X199500000Y-60500000D03*
%TO.P,U3,6*%
X197500000Y-60500000D03*
%TO.P,U3,7*%
X197500000Y-58500000D03*
%TO.P,U3,8*%
X195500000Y-58500000D03*
%TD*%
D15*
%TO.P,U1,1*%
%TO.N,N/C*%
X161500000Y-68500000D03*
D16*
%TO.P,U1,2*%
X161500000Y-71040000D03*
%TO.P,U1,3*%
%TO.N,UART1_RX*%
X161500000Y-73580000D03*
%TO.P,U1,4*%
%TO.N,UART1_TX*%
X161500000Y-76120000D03*
%TO.P,U1,5*%
%TO.N,N/C*%
X161500000Y-78660000D03*
%TO.P,U1,6*%
X161500000Y-81200000D03*
%TO.P,U1,7*%
X161500000Y-83740000D03*
%TO.P,U1,8*%
X161500000Y-86280000D03*
%TO.P,U1,9*%
X161500000Y-88820000D03*
%TO.P,U1,10*%
X161500000Y-91360000D03*
%TO.P,U1,11*%
X161500000Y-93900000D03*
%TO.P,U1,12*%
X161500000Y-96440000D03*
%TO.P,U1,13*%
X161500000Y-98980000D03*
%TO.P,U1,14*%
%TO.N,+5V*%
X161500000Y-101520000D03*
%TO.P,U1,15*%
%TO.N,GND*%
X161500000Y-104060000D03*
%TO.P,U1,16*%
%TO.N,N/C*%
X161500000Y-106600000D03*
%TO.P,U1,17*%
%TO.N,GND*%
X184360000Y-68500000D03*
%TO.P,U1,18*%
%TO.N,N/C*%
X184360000Y-71040000D03*
%TO.P,U1,19*%
X184360000Y-73580000D03*
%TO.P,U1,20*%
X184360000Y-76120000D03*
%TO.P,U1,21*%
X184360000Y-78660000D03*
%TO.P,U1,22*%
X184360000Y-81200000D03*
%TO.P,U1,23*%
X184360000Y-83740000D03*
%TO.P,U1,24*%
X184360000Y-86280000D03*
%TO.P,U1,25*%
%TO.N,UART0_RX*%
X184360000Y-88820000D03*
%TO.P,U1,26*%
%TO.N,UART0_TX*%
X184360000Y-91360000D03*
%TO.P,U1,27*%
%TO.N,N/C*%
X184360000Y-93900000D03*
%TO.P,U1,28*%
%TO.N,GND*%
X184360000Y-96440000D03*
%TO.P,U1,29*%
%TO.N,N/C*%
X184360000Y-98980000D03*
%TO.P,U1,30*%
X184360000Y-101520000D03*
%TO.P,U1,31*%
%TO.N,GND*%
X184360000Y-104060000D03*
%TO.P,U1,32*%
%TO.N,N/C*%
X184360000Y-106600000D03*
%TD*%
D17*
%TO.N,+5V*%
X182410500Y-104119000D03*
%TO.N,GND*%
X200358400Y-111275800D03*
%TD*%
%TO.N,+5V*%
D18*
X188000000Y-107951300D02*
X188000000Y-117451700D01*
X193000000Y-121500000D02*
X192048300Y-121500000D01*
X205430000Y-105500000D02*
X208500000Y-105500000D01*
X205350000Y-105420000D02*
X205430000Y-105500000D01*
X188000000Y-117451700D02*
X192048300Y-121500000D01*
X205350000Y-105420000D02*
X201500000Y-101570000D01*
X183847600Y-107951300D02*
X182410500Y-106514200D01*
X205009800Y-105420000D02*
X193000000Y-117429800D01*
X201500000Y-101570000D02*
X201500000Y-60500000D01*
X182410500Y-106514200D02*
X182410500Y-104119000D01*
X188000000Y-97000000D02*
X188000000Y-107951300D01*
X205350000Y-105420000D02*
X205009800Y-105420000D01*
X188000000Y-107951300D02*
X183847600Y-107951300D01*
X193000000Y-117429800D02*
X193000000Y-121500000D01*
%TO.N,GND*%
X183821522Y-95200000D02*
X183060000Y-94438478D01*
X200358400Y-111275800D02*
X202034200Y-111275800D01*
X188000000Y-95000000D02*
X187800000Y-95200000D01*
X195000000Y-116634200D02*
X200358400Y-111275800D01*
X206988300Y-107960000D02*
X207448300Y-107500000D01*
X183060000Y-69800000D02*
X184360000Y-68500000D01*
X208500000Y-107500000D02*
X207448300Y-107500000D01*
X202034200Y-111275800D02*
X205350000Y-107960000D01*
X183060000Y-94438478D02*
X183060000Y-69800000D01*
X186150000Y-95951700D02*
X185661700Y-96440000D01*
X188000000Y-95951700D02*
X186150000Y-95951700D01*
X187800000Y-95200000D02*
X183821522Y-95200000D01*
X188000000Y-95000000D02*
X188000000Y-95951700D01*
X195000000Y-121500000D02*
X195000000Y-116634200D01*
X205350000Y-107960000D02*
X206988300Y-107960000D01*
X185661700Y-96440000D02*
X184360000Y-96440000D01*
%TO.N,UART0_RX*%
D19*
X184727800Y-87643300D02*
X184360000Y-87643300D01*
X184360000Y-88820000D02*
X184360000Y-87643300D01*
X185536700Y-66707300D02*
X185536700Y-86834400D01*
X185536700Y-86834400D02*
X184727800Y-87643300D01*
X199500000Y-58500000D02*
X198248100Y-57248100D01*
X194995900Y-57248100D02*
X185536700Y-66707300D01*
X198248100Y-57248100D02*
X194995900Y-57248100D01*
%TD*%
%TA.AperFunction,Conductor*%
%TO.N,GND*%
G36*
X196526040Y-59086078D02*
G01*
X196527636Y-59085981D01*
X196556829Y-59102324D01*
X196586421Y-59117938D01*
X196588023Y-59119786D01*
X196588602Y-59120111D01*
X196589077Y-59121003D01*
X196600315Y-59133973D01*
X196660586Y-59216928D01*
X196783072Y-59339414D01*
X196783078Y-59339418D01*
X196866023Y-59399683D01*
X196908689Y-59455013D01*
X196914667Y-59524626D01*
X196882061Y-59586421D01*
X196868491Y-59598478D01*
X196867267Y-59599413D01*
X196783072Y-59660586D01*
X196769216Y-59674441D01*
X196762692Y-59679434D01*
X196737435Y-59689158D01*
X196713691Y-59702123D01*
X196701640Y-59702941D01*
X196697489Y-59704540D01*
X196692692Y-59703549D01*
X196677609Y-59704574D01*
X196651066Y-59702485D01*
X195942137Y-60411414D01*
X195919333Y-60326306D01*
X195860090Y-60223694D01*
X195776306Y-60139910D01*
X195673694Y-60080667D01*
X195588583Y-60057861D01*
X196297513Y-59348932D01*
X196295424Y-59322393D01*
X196309787Y-59254015D01*
X196320565Y-59237308D01*
X196325554Y-59230787D01*
X196339414Y-59216928D01*
X196400581Y-59132737D01*
X196401523Y-59131508D01*
X196428506Y-59111749D01*
X196455012Y-59091311D01*
X196456605Y-59091174D01*
X196457896Y-59090229D01*
X196491300Y-59088194D01*
X196524626Y-59085332D01*
X196526040Y-59086078D01*
G37*
%TD.AperFunction*%
%TA.AperFunction,Conductor*%
G36*
X209642539Y-50320185D02*
G01*
X209688294Y-50372989D01*
X209699500Y-50424500D01*
X209699500Y-106593940D01*
X209679815Y-106660979D01*
X209627011Y-106706734D01*
X209557853Y-106716678D01*
X209494297Y-106687653D01*
X209476234Y-106668252D01*
X209457187Y-106642809D01*
X209342093Y-106556649D01*
X209342086Y-106556645D01*
X209207379Y-106506403D01*
X209207372Y-106506401D01*
X209147844Y-106500000D01*
X208750000Y-106500000D01*
X208750000Y-108500000D01*
X209147828Y-108500000D01*
X209147844Y-108499999D01*
X209207372Y-108493598D01*
X209207379Y-108493596D01*
X209342086Y-108443354D01*
X209342093Y-108443350D01*
X209457187Y-108357190D01*
X209457188Y-108357189D01*
X209476233Y-108331749D01*
X209532166Y-108289877D01*
X209601858Y-108284893D01*
X209663181Y-108318378D01*
X209696666Y-108379701D01*
X209699500Y-108406059D01*
X209699500Y-125575500D01*
X209679815Y-125642539D01*
X209627011Y-125688294D01*
X209575500Y-125699500D01*
X155924500Y-125699500D01*
X155857461Y-125679815D01*
X155811706Y-125627011D01*
X155800500Y-125575500D01*
X155800500Y-103810000D01*
X160172769Y-103810000D01*
X161066988Y-103810000D01*
X161034075Y-103867007D01*
X161000000Y-103994174D01*
X161000000Y-104125826D01*
X161034075Y-104252993D01*
X161066988Y-104310000D01*
X160172769Y-104310000D01*
X160183242Y-104376126D01*
X160183242Y-104376129D01*
X160248904Y-104578217D01*
X160345379Y-104767557D01*
X160470272Y-104939459D01*
X160470276Y-104939464D01*
X160620535Y-105089723D01*
X160620540Y-105089727D01*
X160792442Y-105214620D01*
X160981782Y-105311095D01*
X161157973Y-105368343D01*
X161215648Y-105407780D01*
X161242847Y-105472139D01*
X161230932Y-105540985D01*
X161183688Y-105592461D01*
X161167108Y-105600835D01*
X161002403Y-105669057D01*
X160830342Y-105784024D01*
X160684024Y-105930342D01*
X160569058Y-106102403D01*
X160489870Y-106293579D01*
X160489868Y-106293587D01*
X160449500Y-106496530D01*
X160449500Y-106703469D01*
X160489868Y-106906412D01*
X160489870Y-106906420D01*
X160569058Y-107097596D01*
X160684024Y-107269657D01*
X160830342Y-107415975D01*
X160830345Y-107415977D01*
X161002402Y-107530941D01*
X161193580Y-107610130D01*
X161396530Y-107650499D01*
X161396534Y-107650500D01*
X161396535Y-107650500D01*
X161603466Y-107650500D01*
X161603467Y-107650499D01*
X161806420Y-107610130D01*
X161997598Y-107530941D01*
X162169655Y-107415977D01*
X162315977Y-107269655D01*
X162430941Y-107097598D01*
X162510130Y-106906420D01*
X162550500Y-106703465D01*
X162550500Y-106496535D01*
X162510130Y-106293580D01*
X162430941Y-106102402D01*
X162315977Y-105930345D01*
X162315975Y-105930342D01*
X162169657Y-105784024D01*
X162083626Y-105726541D01*
X161997598Y-105669059D01*
X161997593Y-105669057D01*
X161935891Y-105643499D01*
X161832890Y-105600834D01*
X161778488Y-105556994D01*
X161756423Y-105490700D01*
X161773702Y-105423001D01*
X161824839Y-105375390D01*
X161842026Y-105368343D01*
X162018217Y-105311095D01*
X162207557Y-105214620D01*
X162379459Y-105089727D01*
X162379464Y-105089723D01*
X162529723Y-104939464D01*
X162529727Y-104939459D01*
X162654620Y-104767557D01*
X162751095Y-104578217D01*
X162816757Y-104376129D01*
X162816757Y-104376126D01*
X162827231Y-104310000D01*
X161933012Y-104310000D01*
X161965925Y-104252993D01*
X162000000Y-104125826D01*
X162000000Y-104039943D01*
X181810000Y-104039943D01*
X181810000Y-104198057D01*
X181834721Y-104290315D01*
X181850923Y-104350783D01*
X181850926Y-104350790D01*
X181929973Y-104487706D01*
X181929977Y-104487712D01*
X181929980Y-104487716D01*
X181929982Y-104487718D01*
X181934372Y-104493438D01*
X181959569Y-104558606D01*
X181960000Y-104568930D01*
X181960000Y-106573509D01*
X181965740Y-106594930D01*
X181984212Y-106663872D01*
X181990700Y-106688085D01*
X181990700Y-106688086D01*
X181999580Y-106703466D01*
X182050011Y-106790814D01*
X183570986Y-108311789D01*
X183570987Y-108311790D01*
X183570989Y-108311791D01*
X183630293Y-108346029D01*
X183630296Y-108346032D01*
X183649623Y-108357190D01*
X183673714Y-108371099D01*
X183788291Y-108401800D01*
X187425500Y-108401800D01*
X187492539Y-108421485D01*
X187538294Y-108474289D01*
X187549500Y-108525800D01*
X187549500Y-117511008D01*
X187573712Y-117601372D01*
X187580200Y-117625585D01*
X187580200Y-117625586D01*
X187580201Y-117625587D01*
X187639511Y-117728314D01*
X191771686Y-121860490D01*
X191874413Y-121919799D01*
X191898621Y-121926284D01*
X191898624Y-121926286D01*
X191898625Y-121926286D01*
X191928747Y-121934357D01*
X191988991Y-121950500D01*
X192175500Y-121950500D01*
X192242539Y-121970185D01*
X192288294Y-122022989D01*
X192299500Y-122074500D01*
X192299500Y-122119752D01*
X192311131Y-122178229D01*
X192311132Y-122178230D01*
X192355447Y-122244552D01*
X192421769Y-122288867D01*
X192421770Y-122288868D01*
X192480247Y-122300499D01*
X192480250Y-122300500D01*
X192480252Y-122300500D01*
X193519750Y-122300500D01*
X193519751Y-122300499D01*
X193534568Y-122297552D01*
X193578229Y-122288868D01*
X193578229Y-122288867D01*
X193578231Y-122288867D01*
X193644552Y-122244552D01*
X193688867Y-122178231D01*
X193688867Y-122178229D01*
X193688868Y-122178229D01*
X193694912Y-122147844D01*
X194000000Y-122147844D01*
X194006401Y-122207372D01*
X194006403Y-122207379D01*
X194056645Y-122342086D01*
X194056649Y-122342093D01*
X194142809Y-122457187D01*
X194142812Y-122457190D01*
X194257906Y-122543350D01*
X194257913Y-122543354D01*
X194392620Y-122593596D01*
X194392627Y-122593598D01*
X194452155Y-122599999D01*
X194452172Y-122600000D01*
X194750000Y-122600000D01*
X195250000Y-122600000D01*
X195547828Y-122600000D01*
X195547844Y-122599999D01*
X195607372Y-122593598D01*
X195607379Y-122593596D01*
X195742086Y-122543354D01*
X195742093Y-122543350D01*
X195857187Y-122457190D01*
X195857190Y-122457187D01*
X195943350Y-122342093D01*
X195943354Y-122342086D01*
X195993596Y-122207379D01*
X195993598Y-122207372D01*
X195999999Y-122147844D01*
X196000000Y-122147827D01*
X196000000Y-121750000D01*
X195250000Y-121750000D01*
X195250000Y-122600000D01*
X194750000Y-122600000D01*
X194750000Y-121750000D01*
X194000000Y-121750000D01*
X194000000Y-122147844D01*
X193694912Y-122147844D01*
X193700499Y-122119752D01*
X193700500Y-122119750D01*
X193700500Y-120880249D01*
X193700499Y-120880247D01*
X193699066Y-120873038D01*
X193699066Y-120873037D01*
X193694912Y-120852155D01*
X194000000Y-120852155D01*
X194000000Y-121250000D01*
X194750000Y-121250000D01*
X195250000Y-121250000D01*
X196000000Y-121250000D01*
X196000000Y-120852172D01*
X195999999Y-120852155D01*
X195993598Y-120792627D01*
X195993596Y-120792620D01*
X195943354Y-120657913D01*
X195943350Y-120657906D01*
X195857190Y-120542812D01*
X195857187Y-120542809D01*
X195742093Y-120456649D01*
X195742086Y-120456645D01*
X195607379Y-120406403D01*
X195607372Y-120406401D01*
X195547844Y-120400000D01*
X195250000Y-120400000D01*
X195250000Y-121250000D01*
X194750000Y-121250000D01*
X194750000Y-120400000D01*
X194452155Y-120400000D01*
X194392627Y-120406401D01*
X194392620Y-120406403D01*
X194257913Y-120456645D01*
X194257906Y-120456649D01*
X194142812Y-120542809D01*
X194142809Y-120542812D01*
X194056649Y-120657906D01*
X194056645Y-120657913D01*
X194006403Y-120792620D01*
X194006401Y-120792627D01*
X194000000Y-120852155D01*
X193694912Y-120852155D01*
X193688867Y-120821770D01*
X193688867Y-120821769D01*
X193644552Y-120755447D01*
X193578230Y-120711132D01*
X193550308Y-120705578D01*
X193488397Y-120673193D01*
X193453823Y-120612477D01*
X193450500Y-120583961D01*
X193450500Y-117667764D01*
X193470185Y-117600725D01*
X193486814Y-117580088D01*
X195388359Y-115678543D01*
X204349499Y-115678543D01*
X204387947Y-115871829D01*
X204387950Y-115871839D01*
X204463364Y-116053907D01*
X204463371Y-116053920D01*
X204572860Y-116217781D01*
X204572863Y-116217785D01*
X204712214Y-116357136D01*
X204712218Y-116357139D01*
X204876079Y-116466628D01*
X204876092Y-116466635D01*
X205058160Y-116542049D01*
X205058165Y-116542051D01*
X205058169Y-116542051D01*
X205058170Y-116542052D01*
X205251456Y-116580500D01*
X205251459Y-116580500D01*
X205448543Y-116580500D01*
X205578582Y-116554632D01*
X205641835Y-116542051D01*
X205823914Y-116466632D01*
X205987782Y-116357139D01*
X206127139Y-116217782D01*
X206236632Y-116053914D01*
X206312051Y-115871835D01*
X206350500Y-115678541D01*
X206350500Y-115481459D01*
X206350500Y-115481456D01*
X206312052Y-115288170D01*
X206312051Y-115288169D01*
X206312051Y-115288165D01*
X206312049Y-115288160D01*
X206236635Y-115106092D01*
X206236628Y-115106079D01*
X206127139Y-114942218D01*
X206127136Y-114942214D01*
X205987785Y-114802863D01*
X205987781Y-114802860D01*
X205823920Y-114693371D01*
X205823907Y-114693364D01*
X205641839Y-114617950D01*
X205641829Y-114617947D01*
X205448543Y-114579500D01*
X205448541Y-114579500D01*
X205251459Y-114579500D01*
X205251457Y-114579500D01*
X205058170Y-114617947D01*
X205058160Y-114617950D01*
X204876092Y-114693364D01*
X204876079Y-114693371D01*
X204712218Y-114802860D01*
X204712214Y-114802863D01*
X204572863Y-114942214D01*
X204572860Y-114942218D01*
X204463371Y-115106079D01*
X204463364Y-115106092D01*
X204387950Y-115288160D01*
X204387947Y-115288170D01*
X204349500Y-115481456D01*
X204349500Y-115481459D01*
X204349500Y-115678541D01*
X204349500Y-115678543D01*
X204349499Y-115678543D01*
X195388359Y-115678543D01*
X197928359Y-113138543D01*
X204349499Y-113138543D01*
X204387947Y-113331829D01*
X204387950Y-113331839D01*
X204463364Y-113513907D01*
X204463371Y-113513920D01*
X204572860Y-113677781D01*
X204572863Y-113677785D01*
X204712214Y-113817136D01*
X204712218Y-113817139D01*
X204876079Y-113926628D01*
X204876092Y-113926635D01*
X205058160Y-114002049D01*
X205058165Y-114002051D01*
X205058169Y-114002051D01*
X205058170Y-114002052D01*
X205251456Y-114040500D01*
X205251459Y-114040500D01*
X205448543Y-114040500D01*
X205578582Y-114014632D01*
X205641835Y-114002051D01*
X205823914Y-113926632D01*
X205987782Y-113817139D01*
X206127139Y-113677782D01*
X206236632Y-113513914D01*
X206312051Y-113331835D01*
X206350500Y-113138541D01*
X206350500Y-112941459D01*
X206350500Y-112941456D01*
X206312052Y-112748170D01*
X206312051Y-112748169D01*
X206312051Y-112748165D01*
X206312049Y-112748160D01*
X206236635Y-112566092D01*
X206236628Y-112566079D01*
X206127139Y-112402218D01*
X206127136Y-112402214D01*
X205987785Y-112262863D01*
X205987781Y-112262860D01*
X205823920Y-112153371D01*
X205823907Y-112153364D01*
X205641839Y-112077950D01*
X205641829Y-112077947D01*
X205448543Y-112039500D01*
X205448541Y-112039500D01*
X205251459Y-112039500D01*
X205251457Y-112039500D01*
X205058170Y-112077947D01*
X205058160Y-112077950D01*
X204876092Y-112153364D01*
X204876079Y-112153371D01*
X204712218Y-112262860D01*
X204712214Y-112262863D01*
X204572863Y-112402214D01*
X204572860Y-112402218D01*
X204463371Y-112566079D01*
X204463364Y-112566092D01*
X204387950Y-112748160D01*
X204387947Y-112748170D01*
X204349500Y-112941456D01*
X204349500Y-112941459D01*
X204349500Y-113138541D01*
X204349500Y-113138543D01*
X204349499Y-113138543D01*
X197928359Y-113138543D01*
X204735607Y-106331294D01*
X204796928Y-106297811D01*
X204866620Y-106302795D01*
X204870739Y-106304416D01*
X204876081Y-106306628D01*
X204876086Y-106306632D01*
X205058165Y-106382051D01*
X205190674Y-106408409D01*
X205239061Y-106418034D01*
X205300972Y-106450419D01*
X205335546Y-106511134D01*
X205331807Y-106580904D01*
X205290940Y-106637576D01*
X205234269Y-106662124D01*
X205045581Y-106692010D01*
X204850968Y-106755244D01*
X204668644Y-106848143D01*
X204624077Y-106880523D01*
X204624077Y-106880524D01*
X205261415Y-107517861D01*
X205176306Y-107540667D01*
X205073694Y-107599910D01*
X204989910Y-107683694D01*
X204930667Y-107786306D01*
X204907861Y-107871414D01*
X204270524Y-107234077D01*
X204270523Y-107234077D01*
X204238143Y-107278644D01*
X204145244Y-107460968D01*
X204082009Y-107655582D01*
X204050000Y-107857682D01*
X204050000Y-108062317D01*
X204082009Y-108264417D01*
X204145244Y-108459031D01*
X204238141Y-108641350D01*
X204238147Y-108641359D01*
X204270523Y-108685921D01*
X204270524Y-108685922D01*
X204907861Y-108048584D01*
X204930667Y-108133694D01*
X204989910Y-108236306D01*
X205073694Y-108320090D01*
X205176306Y-108379333D01*
X205261414Y-108402137D01*
X204624076Y-109039474D01*
X204668650Y-109071859D01*
X204850968Y-109164755D01*
X205045582Y-109227990D01*
X205234268Y-109257875D01*
X205297403Y-109287804D01*
X205334334Y-109347116D01*
X205333336Y-109416978D01*
X205294726Y-109475211D01*
X205239062Y-109501965D01*
X205058170Y-109537947D01*
X205058160Y-109537950D01*
X204876092Y-109613364D01*
X204876079Y-109613371D01*
X204712218Y-109722860D01*
X204712214Y-109722863D01*
X204572863Y-109862214D01*
X204572860Y-109862218D01*
X204463371Y-110026079D01*
X204463364Y-110026092D01*
X204387950Y-110208160D01*
X204387947Y-110208170D01*
X204349500Y-110401456D01*
X204349500Y-110401459D01*
X204349500Y-110598541D01*
X204349500Y-110598543D01*
X204349499Y-110598543D01*
X204387947Y-110791829D01*
X204387950Y-110791839D01*
X204463364Y-110973907D01*
X204463371Y-110973920D01*
X204572860Y-111137781D01*
X204572863Y-111137785D01*
X204712214Y-111277136D01*
X204712218Y-111277139D01*
X204876079Y-111386628D01*
X204876092Y-111386635D01*
X205058160Y-111462049D01*
X205058165Y-111462051D01*
X205058169Y-111462051D01*
X205058170Y-111462052D01*
X205251456Y-111500500D01*
X205251459Y-111500500D01*
X205448543Y-111500500D01*
X205578582Y-111474632D01*
X205641835Y-111462051D01*
X205823914Y-111386632D01*
X205987782Y-111277139D01*
X206127139Y-111137782D01*
X206236632Y-110973914D01*
X206312051Y-110791835D01*
X206350500Y-110598541D01*
X206350500Y-110401459D01*
X206350500Y-110401456D01*
X206312052Y-110208170D01*
X206312051Y-110208169D01*
X206312051Y-110208165D01*
X206312049Y-110208160D01*
X206236635Y-110026092D01*
X206236628Y-110026079D01*
X206127139Y-109862218D01*
X206127136Y-109862214D01*
X205987785Y-109722863D01*
X205987781Y-109722860D01*
X205823920Y-109613371D01*
X205823907Y-109613364D01*
X205641839Y-109537950D01*
X205641829Y-109537947D01*
X205460937Y-109501965D01*
X205399026Y-109469580D01*
X205364452Y-109408864D01*
X205368192Y-109339095D01*
X205409059Y-109282423D01*
X205465731Y-109257875D01*
X205654417Y-109227990D01*
X205849031Y-109164755D01*
X206031349Y-109071859D01*
X206075921Y-109039474D01*
X205438585Y-108402138D01*
X205523694Y-108379333D01*
X205626306Y-108320090D01*
X205710090Y-108236306D01*
X205769333Y-108133694D01*
X205792138Y-108048585D01*
X206429474Y-108685921D01*
X206461859Y-108641349D01*
X206554755Y-108459031D01*
X206617990Y-108264417D01*
X206650000Y-108062317D01*
X206650000Y-108047844D01*
X207400000Y-108047844D01*
X207406401Y-108107372D01*
X207406403Y-108107379D01*
X207456645Y-108242086D01*
X207456649Y-108242093D01*
X207542809Y-108357187D01*
X207542812Y-108357190D01*
X207657906Y-108443350D01*
X207657913Y-108443354D01*
X207792620Y-108493596D01*
X207792627Y-108493598D01*
X207852155Y-108499999D01*
X207852172Y-108500000D01*
X208250000Y-108500000D01*
X208250000Y-107750000D01*
X207400000Y-107750000D01*
X207400000Y-108047844D01*
X206650000Y-108047844D01*
X206650000Y-107857682D01*
X206627882Y-107718036D01*
X206617990Y-107655582D01*
X206554755Y-107460968D01*
X206461859Y-107278650D01*
X206429474Y-107234077D01*
X206429474Y-107234076D01*
X205792137Y-107871413D01*
X205769333Y-107786306D01*
X205710090Y-107683694D01*
X205626306Y-107599910D01*
X205523694Y-107540667D01*
X205438584Y-107517861D01*
X206004291Y-106952155D01*
X207400000Y-106952155D01*
X207400000Y-107250000D01*
X208250000Y-107250000D01*
X208250000Y-106500000D01*
X207852155Y-106500000D01*
X207792627Y-106506401D01*
X207792620Y-106506403D01*
X207657913Y-106556645D01*
X207657906Y-106556649D01*
X207542812Y-106642809D01*
X207542809Y-106642812D01*
X207456649Y-106757906D01*
X207456645Y-106757913D01*
X207406403Y-106892620D01*
X207406401Y-106892627D01*
X207400000Y-106952155D01*
X206004291Y-106952155D01*
X206075922Y-106880524D01*
X206075921Y-106880523D01*
X206031359Y-106848147D01*
X206031350Y-106848141D01*
X205849031Y-106755244D01*
X205654417Y-106692009D01*
X205465731Y-106662124D01*
X205402596Y-106632194D01*
X205365665Y-106572883D01*
X205366663Y-106503020D01*
X205405273Y-106444788D01*
X205460938Y-106418034D01*
X205641835Y-106382051D01*
X205823914Y-106306632D01*
X205987782Y-106197139D01*
X206127139Y-106057782D01*
X206161998Y-106005610D01*
X206215609Y-105960805D01*
X206265101Y-105950500D01*
X207583961Y-105950500D01*
X207651000Y-105970185D01*
X207696755Y-106022989D01*
X207705578Y-106050308D01*
X207711132Y-106078229D01*
X207711132Y-106078230D01*
X207755447Y-106144552D01*
X207821769Y-106188867D01*
X207821770Y-106188868D01*
X207880247Y-106200499D01*
X207880250Y-106200500D01*
X207880252Y-106200500D01*
X209119750Y-106200500D01*
X209119751Y-106200499D01*
X209136660Y-106197136D01*
X209178229Y-106188868D01*
X209178229Y-106188867D01*
X209178231Y-106188867D01*
X209244552Y-106144552D01*
X209288867Y-106078231D01*
X209288867Y-106078229D01*
X209288868Y-106078229D01*
X209300499Y-106019752D01*
X209300500Y-106019750D01*
X209300500Y-104980249D01*
X209300499Y-104980247D01*
X209288868Y-104921770D01*
X209288867Y-104921769D01*
X209244552Y-104855447D01*
X209178230Y-104811132D01*
X209178229Y-104811131D01*
X209119752Y-104799500D01*
X209119748Y-104799500D01*
X207880252Y-104799500D01*
X207880247Y-104799500D01*
X207821770Y-104811131D01*
X207821769Y-104811132D01*
X207755447Y-104855447D01*
X207711132Y-104921769D01*
X207711132Y-104921770D01*
X207705578Y-104949692D01*
X207673193Y-105011603D01*
X207612477Y-105046177D01*
X207583961Y-105049500D01*
X206362321Y-105049500D01*
X206295282Y-105029815D01*
X206249527Y-104977011D01*
X206247773Y-104972984D01*
X206236632Y-104946086D01*
X206176069Y-104855447D01*
X206127139Y-104782217D01*
X205987785Y-104642863D01*
X205987781Y-104642860D01*
X205823920Y-104533371D01*
X205823907Y-104533364D01*
X205641839Y-104457950D01*
X205641829Y-104457947D01*
X205448543Y-104419500D01*
X205448541Y-104419500D01*
X205251459Y-104419500D01*
X205251454Y-104419500D01*
X205095550Y-104450511D01*
X205025958Y-104444284D01*
X204983678Y-104416575D01*
X201986819Y-101419716D01*
X201953334Y-101358393D01*
X201950500Y-101332035D01*
X201950500Y-61724500D01*
X201970185Y-61657461D01*
X202022989Y-61611706D01*
X202074500Y-61600500D01*
X202419750Y-61600500D01*
X202419751Y-61600499D01*
X202434568Y-61597552D01*
X202478229Y-61588868D01*
X202478229Y-61588867D01*
X202478231Y-61588867D01*
X202544552Y-61544552D01*
X202588867Y-61478231D01*
X202588867Y-61478229D01*
X202588868Y-61478229D01*
X202600499Y-61419752D01*
X202600500Y-61419750D01*
X202600500Y-59580249D01*
X202600499Y-59580247D01*
X202588868Y-59521770D01*
X202588867Y-59521769D01*
X202544552Y-59455447D01*
X202478230Y-59411132D01*
X202423644Y-59400274D01*
X202361733Y-59367889D01*
X202327159Y-59307173D01*
X202330900Y-59237403D01*
X202347514Y-59205778D01*
X202441232Y-59076788D01*
X202519873Y-58922445D01*
X202573402Y-58757701D01*
X202600500Y-58586611D01*
X202600500Y-58413389D01*
X202573402Y-58242299D01*
X202519873Y-58077555D01*
X202441232Y-57923212D01*
X202339414Y-57783072D01*
X202216928Y-57660586D01*
X202076788Y-57558768D01*
X201922445Y-57480127D01*
X201757701Y-57426598D01*
X201757699Y-57426597D01*
X201757698Y-57426597D01*
X201626271Y-57405781D01*
X201586611Y-57399500D01*
X201413389Y-57399500D01*
X201373728Y-57405781D01*
X201242302Y-57426597D01*
X201077552Y-57480128D01*
X200923211Y-57558768D01*
X200844029Y-57616298D01*
X200783072Y-57660586D01*
X200783070Y-57660588D01*
X200783069Y-57660588D01*
X200660588Y-57783069D01*
X200660581Y-57783078D01*
X200600317Y-57866023D01*
X200544987Y-57908689D01*
X200475374Y-57914667D01*
X200413579Y-57882061D01*
X200399683Y-57866023D01*
X200339418Y-57783078D01*
X200339414Y-57783072D01*
X200216928Y-57660586D01*
X200076788Y-57558768D01*
X199922445Y-57480127D01*
X199757701Y-57426598D01*
X199757699Y-57426597D01*
X199757698Y-57426597D01*
X199626271Y-57405781D01*
X199586611Y-57399500D01*
X199413389Y-57399500D01*
X199381192Y-57404599D01*
X199242301Y-57426597D01*
X199077556Y-57480126D01*
X199066994Y-57485507D01*
X198998324Y-57498398D01*
X198933585Y-57472117D01*
X198923026Y-57462699D01*
X198447964Y-56987637D01*
X198447962Y-56987635D01*
X198410850Y-56966208D01*
X198373740Y-56944782D01*
X198332346Y-56933691D01*
X198290953Y-56922600D01*
X195038753Y-56922600D01*
X194953047Y-56922600D01*
X194870259Y-56944782D01*
X194796038Y-56987635D01*
X194796035Y-56987637D01*
X185276237Y-66507435D01*
X185276233Y-66507441D01*
X185233381Y-66581661D01*
X185233382Y-66581662D01*
X185211200Y-66664447D01*
X185211200Y-67216218D01*
X185191515Y-67283257D01*
X185138711Y-67329012D01*
X185069553Y-67338956D01*
X185030905Y-67326703D01*
X184878214Y-67248903D01*
X184878216Y-67248903D01*
X184676124Y-67183241D01*
X184610000Y-67172768D01*
X184610000Y-68066988D01*
X184552993Y-68034075D01*
X184425826Y-68000000D01*
X184294174Y-68000000D01*
X184167007Y-68034075D01*
X184110000Y-68066988D01*
X184110000Y-67172768D01*
X184109999Y-67172768D01*
X184043875Y-67183241D01*
X183841784Y-67248903D01*
X183652442Y-67345379D01*
X183480540Y-67470272D01*
X183480535Y-67470276D01*
X183330276Y-67620535D01*
X183330272Y-67620540D01*
X183205379Y-67792442D01*
X183108904Y-67981782D01*
X183043242Y-68183870D01*
X183043242Y-68183873D01*
X183032769Y-68250000D01*
X183926988Y-68250000D01*
X183894075Y-68307007D01*
X183860000Y-68434174D01*
X183860000Y-68565826D01*
X183894075Y-68692993D01*
X183926988Y-68750000D01*
X183032769Y-68750000D01*
X183043242Y-68816126D01*
X183043242Y-68816129D01*
X183108904Y-69018217D01*
X183205379Y-69207557D01*
X183330272Y-69379459D01*
X183330276Y-69379464D01*
X183480535Y-69529723D01*
X183480540Y-69529727D01*
X183652442Y-69654620D01*
X183841782Y-69751095D01*
X184017973Y-69808343D01*
X184075648Y-69847780D01*
X184102847Y-69912139D01*
X184090932Y-69980985D01*
X184043688Y-70032461D01*
X184027108Y-70040835D01*
X183862403Y-70109057D01*
X183690342Y-70224024D01*
X183544024Y-70370342D01*
X183429058Y-70542403D01*
X183349870Y-70733579D01*
X183349868Y-70733587D01*
X183309500Y-70936530D01*
X183309500Y-71143469D01*
X183349868Y-71346412D01*
X183349870Y-71346420D01*
X183429058Y-71537596D01*
X183544024Y-71709657D01*
X183690342Y-71855975D01*
X183690345Y-71855977D01*
X183862402Y-71970941D01*
X184053580Y-72050130D01*
X184256530Y-72090499D01*
X184256534Y-72090500D01*
X184256535Y-72090500D01*
X184463466Y-72090500D01*
X184463467Y-72090499D01*
X184666420Y-72050130D01*
X184857598Y-71970941D01*
X184944098Y-71913144D01*
X185018310Y-71863558D01*
X185084987Y-71842680D01*
X185152367Y-71861165D01*
X185199057Y-71913144D01*
X185211200Y-71966660D01*
X185211200Y-72653339D01*
X185191515Y-72720378D01*
X185138711Y-72766133D01*
X185069553Y-72776077D01*
X185018310Y-72756442D01*
X184917442Y-72689045D01*
X184857598Y-72649059D01*
X184666420Y-72569870D01*
X184666412Y-72569868D01*
X184463469Y-72529500D01*
X184463465Y-72529500D01*
X184256535Y-72529500D01*
X184256530Y-72529500D01*
X184053587Y-72569868D01*
X184053579Y-72569870D01*
X183862403Y-72649058D01*
X183690342Y-72764024D01*
X183544024Y-72910342D01*
X183429058Y-73082403D01*
X183349870Y-73273579D01*
X183349868Y-73273587D01*
X183309500Y-73476530D01*
X183309500Y-73683469D01*
X183349868Y-73886412D01*
X183349870Y-73886420D01*
X183429058Y-74077596D01*
X183544024Y-74249657D01*
X183690342Y-74395975D01*
X183690345Y-74395977D01*
X183862402Y-74510941D01*
X184053580Y-74590130D01*
X184256530Y-74630499D01*
X184256534Y-74630500D01*
X184256535Y-74630500D01*
X184463466Y-74630500D01*
X184463467Y-74630499D01*
X184666420Y-74590130D01*
X184857598Y-74510941D01*
X184944098Y-74453144D01*
X185018310Y-74403558D01*
X185084987Y-74382680D01*
X185152367Y-74401165D01*
X185199057Y-74453144D01*
X185211200Y-74506660D01*
X185211200Y-75193339D01*
X185191515Y-75260378D01*
X185138711Y-75306133D01*
X185069553Y-75316077D01*
X185018310Y-75296442D01*
X184917442Y-75229045D01*
X184857598Y-75189059D01*
X184666420Y-75109870D01*
X184666412Y-75109868D01*
X184463469Y-75069500D01*
X184463465Y-75069500D01*
X184256535Y-75069500D01*
X184256530Y-75069500D01*
X184053587Y-75109868D01*
X184053579Y-75109870D01*
X183862403Y-75189058D01*
X183690342Y-75304024D01*
X183544024Y-75450342D01*
X183429058Y-75622403D01*
X183349870Y-75813579D01*
X183349868Y-75813587D01*
X183309500Y-76016530D01*
X183309500Y-76223469D01*
X183349868Y-76426412D01*
X183349870Y-76426420D01*
X183429058Y-76617596D01*
X183544024Y-76789657D01*
X183690342Y-76935975D01*
X183690345Y-76935977D01*
X183862402Y-77050941D01*
X184053580Y-77130130D01*
X184256530Y-77170499D01*
X184256534Y-77170500D01*
X184256535Y-77170500D01*
X184463466Y-77170500D01*
X184463467Y-77170499D01*
X184666420Y-77130130D01*
X184857598Y-77050941D01*
X184944098Y-76993144D01*
X185018310Y-76943558D01*
X185084987Y-76922680D01*
X185152367Y-76941165D01*
X185199057Y-76993144D01*
X185211200Y-77046660D01*
X185211200Y-77733339D01*
X185191515Y-77800378D01*
X185138711Y-77846133D01*
X185069553Y-77856077D01*
X185018310Y-77836442D01*
X184917442Y-77769045D01*
X184857598Y-77729059D01*
X184666420Y-77649870D01*
X184666412Y-77649868D01*
X184463469Y-77609500D01*
X184463465Y-77609500D01*
X184256535Y-77609500D01*
X184256530Y-77609500D01*
X184053587Y-77649868D01*
X184053579Y-77649870D01*
X183862403Y-77729058D01*
X183690342Y-77844024D01*
X183544024Y-77990342D01*
X183429058Y-78162403D01*
X183349870Y-78353579D01*
X183349868Y-78353587D01*
X183309500Y-78556530D01*
X183309500Y-78763469D01*
X183349868Y-78966412D01*
X183349870Y-78966420D01*
X183429058Y-79157596D01*
X183544024Y-79329657D01*
X183690342Y-79475975D01*
X183690345Y-79475977D01*
X183862402Y-79590941D01*
X184053580Y-79670130D01*
X184256530Y-79710499D01*
X184256534Y-79710500D01*
X184256535Y-79710500D01*
X184463466Y-79710500D01*
X184463467Y-79710499D01*
X184666420Y-79670130D01*
X184857598Y-79590941D01*
X184944098Y-79533144D01*
X185018310Y-79483558D01*
X185084987Y-79462680D01*
X185152367Y-79481165D01*
X185199057Y-79533144D01*
X185211200Y-79586660D01*
X185211200Y-80273339D01*
X185191515Y-80340378D01*
X185138711Y-80386133D01*
X185069553Y-80396077D01*
X185018310Y-80376442D01*
X184917442Y-80309045D01*
X184857598Y-80269059D01*
X184666420Y-80189870D01*
X184666412Y-80189868D01*
X184463469Y-80149500D01*
X184463465Y-80149500D01*
X184256535Y-80149500D01*
X184256530Y-80149500D01*
X184053587Y-80189868D01*
X184053579Y-80189870D01*
X183862403Y-80269058D01*
X183690342Y-80384024D01*
X183544024Y-80530342D01*
X183429058Y-80702403D01*
X183349870Y-80893579D01*
X183349868Y-80893587D01*
X183309500Y-81096530D01*
X183309500Y-81303469D01*
X183349868Y-81506412D01*
X183349870Y-81506420D01*
X183429058Y-81697596D01*
X183544024Y-81869657D01*
X183690342Y-82015975D01*
X183690345Y-82015977D01*
X183862402Y-82130941D01*
X184053580Y-82210130D01*
X184256530Y-82250499D01*
X184256534Y-82250500D01*
X184256535Y-82250500D01*
X184463466Y-82250500D01*
X184463467Y-82250499D01*
X184666420Y-82210130D01*
X184857598Y-82130941D01*
X184944098Y-82073144D01*
X185018310Y-82023558D01*
X185084987Y-82002680D01*
X185152367Y-82021165D01*
X185199057Y-82073144D01*
X185211200Y-82126660D01*
X185211200Y-82813339D01*
X185191515Y-82880378D01*
X185138711Y-82926133D01*
X185069553Y-82936077D01*
X185018310Y-82916442D01*
X184917442Y-82849045D01*
X184857598Y-82809059D01*
X184666420Y-82729870D01*
X184666412Y-82729868D01*
X184463469Y-82689500D01*
X184463465Y-82689500D01*
X184256535Y-82689500D01*
X184256530Y-82689500D01*
X184053587Y-82729868D01*
X184053579Y-82729870D01*
X183862403Y-82809058D01*
X183690342Y-82924024D01*
X183544024Y-83070342D01*
X183429058Y-83242403D01*
X183349870Y-83433579D01*
X183349868Y-83433587D01*
X183309500Y-83636530D01*
X183309500Y-83843469D01*
X183349868Y-84046412D01*
X183349870Y-84046420D01*
X183429058Y-84237596D01*
X183544024Y-84409657D01*
X183690342Y-84555975D01*
X183690345Y-84555977D01*
X183862402Y-84670941D01*
X184053580Y-84750130D01*
X184256530Y-84790499D01*
X184256534Y-84790500D01*
X184256535Y-84790500D01*
X184463466Y-84790500D01*
X184463467Y-84790499D01*
X184666420Y-84750130D01*
X184857598Y-84670941D01*
X184944098Y-84613144D01*
X185018310Y-84563558D01*
X185084987Y-84542680D01*
X185152367Y-84561165D01*
X185199057Y-84613144D01*
X185211200Y-84666660D01*
X185211200Y-85353339D01*
X185191515Y-85420378D01*
X185138711Y-85466133D01*
X185069553Y-85476077D01*
X185018310Y-85456442D01*
X184917442Y-85389045D01*
X184857598Y-85349059D01*
X184666420Y-85269870D01*
X184666412Y-85269868D01*
X184463469Y-85229500D01*
X184463465Y-85229500D01*
X184256535Y-85229500D01*
X184256530Y-85229500D01*
X184053587Y-85269868D01*
X184053579Y-85269870D01*
X183862403Y-85349058D01*
X183690342Y-85464024D01*
X183544024Y-85610342D01*
X183429058Y-85782403D01*
X183349870Y-85973579D01*
X183349868Y-85973587D01*
X183309500Y-86176530D01*
X183309500Y-86383469D01*
X183349868Y-86586412D01*
X183349870Y-86586420D01*
X183429058Y-86777596D01*
X183544024Y-86949657D01*
X183690342Y-87095975D01*
X183690345Y-87095977D01*
X183862402Y-87210941D01*
X184031464Y-87280969D01*
X184085867Y-87324810D01*
X184107932Y-87391104D01*
X184091399Y-87457529D01*
X184056682Y-87517661D01*
X184056682Y-87517662D01*
X184034500Y-87600447D01*
X184034500Y-87734919D01*
X184014815Y-87801958D01*
X183962011Y-87847713D01*
X183957953Y-87849480D01*
X183862403Y-87889057D01*
X183690342Y-88004024D01*
X183544024Y-88150342D01*
X183429058Y-88322403D01*
X183349870Y-88513579D01*
X183349868Y-88513587D01*
X183309500Y-88716530D01*
X183309500Y-88923469D01*
X183349868Y-89126412D01*
X183349870Y-89126420D01*
X183429058Y-89317596D01*
X183544024Y-89489657D01*
X183690342Y-89635975D01*
X183690345Y-89635977D01*
X183862402Y-89750941D01*
X184053580Y-89830130D01*
X184256530Y-89870499D01*
X184256534Y-89870500D01*
X184256535Y-89870500D01*
X184463466Y-89870500D01*
X184463467Y-89870499D01*
X184666420Y-89830130D01*
X184857598Y-89750941D01*
X185029655Y-89635977D01*
X185175977Y-89489655D01*
X185290941Y-89317598D01*
X185370130Y-89126420D01*
X185410500Y-88923465D01*
X185410500Y-88716535D01*
X185370130Y-88513580D01*
X185290941Y-88322402D01*
X185175977Y-88150345D01*
X185175975Y-88150342D01*
X185029658Y-88004025D01*
X185024947Y-88000159D01*
X185026635Y-87998101D01*
X184989223Y-87953307D01*
X184980538Y-87883979D01*
X185010713Y-87820961D01*
X185015235Y-87816191D01*
X185797165Y-87034262D01*
X185806240Y-87018541D01*
X185831856Y-86974176D01*
X185840017Y-86960039D01*
X185840018Y-86960038D01*
X185862200Y-86877253D01*
X185862200Y-66893488D01*
X185881885Y-66826449D01*
X185898514Y-66805812D01*
X194188890Y-58515435D01*
X194250211Y-58481952D01*
X194319903Y-58486936D01*
X194375836Y-58528808D01*
X194399042Y-58583720D01*
X194399500Y-58586610D01*
X194399500Y-58586611D01*
X194426598Y-58757701D01*
X194480127Y-58922445D01*
X194558768Y-59076788D01*
X194660586Y-59216928D01*
X194660588Y-59216930D01*
X194668637Y-59224979D01*
X194702122Y-59286302D01*
X194704574Y-59322389D01*
X194702485Y-59348931D01*
X195411415Y-60057861D01*
X195326306Y-60080667D01*
X195223694Y-60139910D01*
X195139910Y-60223694D01*
X195080667Y-60326306D01*
X195057861Y-60411414D01*
X194348932Y-59702485D01*
X194348931Y-59702485D01*
X194302616Y-59766233D01*
X194202567Y-59962589D01*
X194134473Y-60172164D01*
X194100000Y-60389818D01*
X194100000Y-60610181D01*
X194134473Y-60827835D01*
X194202567Y-61037410D01*
X194302611Y-61233756D01*
X194348932Y-61297513D01*
X195057861Y-60588584D01*
X195080667Y-60673694D01*
X195139910Y-60776306D01*
X195223694Y-60860090D01*
X195326306Y-60919333D01*
X195411414Y-60942137D01*
X194702485Y-61651065D01*
X194702485Y-61651066D01*
X194766243Y-61697388D01*
X194962589Y-61797432D01*
X195172164Y-61865526D01*
X195389819Y-61900000D01*
X195610181Y-61900000D01*
X195827835Y-61865526D01*
X196037410Y-61797432D01*
X196233760Y-61697386D01*
X196297513Y-61651066D01*
X196297514Y-61651066D01*
X195588585Y-60942138D01*
X195673694Y-60919333D01*
X195776306Y-60860090D01*
X195860090Y-60776306D01*
X195919333Y-60673694D01*
X195942138Y-60588585D01*
X196651066Y-61297513D01*
X196677608Y-61295424D01*
X196745985Y-61309788D01*
X196775019Y-61331361D01*
X196783072Y-61339414D01*
X196923212Y-61441232D01*
X197077555Y-61519873D01*
X197242299Y-61573402D01*
X197413389Y-61600500D01*
X197413390Y-61600500D01*
X197586610Y-61600500D01*
X197586611Y-61600500D01*
X197757701Y-61573402D01*
X197922445Y-61519873D01*
X198076788Y-61441232D01*
X198216928Y-61339414D01*
X198339414Y-61216928D01*
X198399682Y-61133975D01*
X198455012Y-61091311D01*
X198524626Y-61085332D01*
X198586421Y-61117938D01*
X198600315Y-61133973D01*
X198660586Y-61216928D01*
X198783072Y-61339414D01*
X198923212Y-61441232D01*
X199077555Y-61519873D01*
X199242299Y-61573402D01*
X199413389Y-61600500D01*
X199413390Y-61600500D01*
X199586610Y-61600500D01*
X199586611Y-61600500D01*
X199757701Y-61573402D01*
X199922445Y-61519873D01*
X200076788Y-61441232D01*
X200205774Y-61347517D01*
X200271577Y-61324038D01*
X200339631Y-61339863D01*
X200388326Y-61389968D01*
X200400274Y-61423644D01*
X200411132Y-61478229D01*
X200411132Y-61478230D01*
X200455447Y-61544552D01*
X200521769Y-61588867D01*
X200521770Y-61588868D01*
X200580247Y-61600499D01*
X200580250Y-61600500D01*
X200580252Y-61600500D01*
X200925500Y-61600500D01*
X200992539Y-61620185D01*
X201038294Y-61672989D01*
X201049500Y-61724500D01*
X201049500Y-101629308D01*
X201073712Y-101719672D01*
X201080200Y-101743885D01*
X201080200Y-101743886D01*
X201080201Y-101743887D01*
X201139511Y-101846614D01*
X201139513Y-101846616D01*
X204346575Y-105053678D01*
X204380060Y-105115001D01*
X204380511Y-105165550D01*
X204349500Y-105321454D01*
X204349500Y-105391835D01*
X204329815Y-105458874D01*
X204313181Y-105479516D01*
X192639513Y-117153183D01*
X192639509Y-117153189D01*
X192580201Y-117255912D01*
X192580200Y-117255917D01*
X192549500Y-117370491D01*
X192549500Y-120583961D01*
X192529815Y-120651000D01*
X192477011Y-120696755D01*
X192449692Y-120705578D01*
X192421770Y-120711132D01*
X192421769Y-120711132D01*
X192355447Y-120755447D01*
X192311132Y-120821769D01*
X192311132Y-120821770D01*
X192305960Y-120847770D01*
X192273574Y-120909681D01*
X192212857Y-120944254D01*
X192143088Y-120940513D01*
X192096662Y-120911258D01*
X188486819Y-117301415D01*
X188453334Y-117240092D01*
X188450500Y-117213734D01*
X188450500Y-97824500D01*
X188470185Y-97757461D01*
X188522989Y-97711706D01*
X188574500Y-97700500D01*
X188619750Y-97700500D01*
X188619751Y-97700499D01*
X188634568Y-97697552D01*
X188678229Y-97688868D01*
X188678229Y-97688867D01*
X188678231Y-97688867D01*
X188744552Y-97644552D01*
X188788867Y-97578231D01*
X188788867Y-97578229D01*
X188788868Y-97578229D01*
X188800499Y-97519752D01*
X188800500Y-97519750D01*
X188800500Y-96480249D01*
X188800499Y-96480247D01*
X188788868Y-96421770D01*
X188788867Y-96421769D01*
X188744552Y-96355447D01*
X188678230Y-96311132D01*
X188678229Y-96311131D01*
X188619752Y-96299500D01*
X188619748Y-96299500D01*
X187380252Y-96299500D01*
X187380247Y-96299500D01*
X187321770Y-96311131D01*
X187321769Y-96311132D01*
X187255447Y-96355447D01*
X187211132Y-96421769D01*
X187211131Y-96421770D01*
X187199500Y-96480247D01*
X187199500Y-97519752D01*
X187211131Y-97578229D01*
X187211132Y-97578230D01*
X187255447Y-97644552D01*
X187321769Y-97688867D01*
X187321770Y-97688868D01*
X187380247Y-97700499D01*
X187380250Y-97700500D01*
X187380252Y-97700500D01*
X187425500Y-97700500D01*
X187492539Y-97720185D01*
X187538294Y-97772989D01*
X187549500Y-97824500D01*
X187549500Y-107376800D01*
X187529815Y-107443839D01*
X187477011Y-107489594D01*
X187425500Y-107500800D01*
X185244195Y-107500800D01*
X185177156Y-107481115D01*
X185131401Y-107428311D01*
X185121457Y-107359153D01*
X185150482Y-107295597D01*
X185156514Y-107289119D01*
X185175974Y-107269658D01*
X185175975Y-107269657D01*
X185175977Y-107269655D01*
X185290941Y-107097598D01*
X185370130Y-106906420D01*
X185410500Y-106703465D01*
X185410500Y-106496535D01*
X185370130Y-106293580D01*
X185290941Y-106102402D01*
X185175977Y-105930345D01*
X185175975Y-105930342D01*
X185029657Y-105784024D01*
X184943626Y-105726541D01*
X184857598Y-105669059D01*
X184857593Y-105669057D01*
X184795891Y-105643499D01*
X184692890Y-105600834D01*
X184638488Y-105556994D01*
X184616423Y-105490700D01*
X184633702Y-105423001D01*
X184684839Y-105375390D01*
X184702026Y-105368343D01*
X184878217Y-105311095D01*
X185067557Y-105214620D01*
X185239459Y-105089727D01*
X185239464Y-105089723D01*
X185389723Y-104939464D01*
X185389727Y-104939459D01*
X185514620Y-104767557D01*
X185611095Y-104578217D01*
X185676757Y-104376129D01*
X185676757Y-104376126D01*
X185687231Y-104310000D01*
X184793012Y-104310000D01*
X184825925Y-104252993D01*
X184860000Y-104125826D01*
X184860000Y-103994174D01*
X184825925Y-103867007D01*
X184793012Y-103810000D01*
X185687231Y-103810000D01*
X185676757Y-103743873D01*
X185676757Y-103743870D01*
X185611095Y-103541782D01*
X185514620Y-103352442D01*
X185389727Y-103180540D01*
X185389723Y-103180535D01*
X185239464Y-103030276D01*
X185239459Y-103030272D01*
X185067557Y-102905379D01*
X184878216Y-102808904D01*
X184702026Y-102751656D01*
X184644350Y-102712218D01*
X184617152Y-102647860D01*
X184629067Y-102579013D01*
X184676311Y-102527538D01*
X184692882Y-102519168D01*
X184857598Y-102450941D01*
X185029655Y-102335977D01*
X185175977Y-102189655D01*
X185290941Y-102017598D01*
X185370130Y-101826420D01*
X185410500Y-101623465D01*
X185410500Y-101416535D01*
X185370130Y-101213580D01*
X185290941Y-101022402D01*
X185175977Y-100850345D01*
X185175975Y-100850342D01*
X185029657Y-100704024D01*
X184943626Y-100646541D01*
X184857598Y-100589059D01*
X184666420Y-100509870D01*
X184666412Y-100509868D01*
X184463469Y-100469500D01*
X184463465Y-100469500D01*
X184256535Y-100469500D01*
X184256530Y-100469500D01*
X184053587Y-100509868D01*
X184053579Y-100509870D01*
X183862403Y-100589058D01*
X183690342Y-100704024D01*
X183544024Y-100850342D01*
X183429058Y-101022403D01*
X183349870Y-101213579D01*
X183349868Y-101213587D01*
X183309500Y-101416530D01*
X183309500Y-101623469D01*
X183349868Y-101826412D01*
X183349870Y-101826420D01*
X183429058Y-102017596D01*
X183544024Y-102189657D01*
X183690342Y-102335975D01*
X183862405Y-102450943D01*
X183965043Y-102493456D01*
X184027108Y-102519164D01*
X184081511Y-102563005D01*
X184103576Y-102629299D01*
X184086297Y-102696998D01*
X184035160Y-102744609D01*
X184017974Y-102751656D01*
X183841781Y-102808905D01*
X183652442Y-102905379D01*
X183480540Y-103030272D01*
X183480535Y-103030276D01*
X183330276Y-103180535D01*
X183330272Y-103180540D01*
X183205379Y-103352442D01*
X183108904Y-103541782D01*
X183066868Y-103671157D01*
X183027430Y-103728833D01*
X182963072Y-103756031D01*
X182894225Y-103744116D01*
X182861256Y-103720520D01*
X182779217Y-103638481D01*
X182779209Y-103638475D01*
X182642290Y-103559426D01*
X182642286Y-103559424D01*
X182642284Y-103559423D01*
X182489557Y-103518500D01*
X182331443Y-103518500D01*
X182178716Y-103559423D01*
X182178709Y-103559426D01*
X182041790Y-103638475D01*
X182041782Y-103638481D01*
X181929981Y-103750282D01*
X181929975Y-103750290D01*
X181850926Y-103887209D01*
X181850923Y-103887216D01*
X181810000Y-104039943D01*
X162000000Y-104039943D01*
X162000000Y-103994174D01*
X161965925Y-103867007D01*
X161933012Y-103810000D01*
X162827231Y-103810000D01*
X162816757Y-103743873D01*
X162816757Y-103743870D01*
X162751095Y-103541782D01*
X162654620Y-103352442D01*
X162529727Y-103180540D01*
X162529723Y-103180535D01*
X162379464Y-103030276D01*
X162379459Y-103030272D01*
X162207557Y-102905379D01*
X162018216Y-102808904D01*
X161842026Y-102751656D01*
X161784350Y-102712218D01*
X161757152Y-102647860D01*
X161769067Y-102579013D01*
X161816311Y-102527538D01*
X161832882Y-102519168D01*
X161997598Y-102450941D01*
X162169655Y-102335977D01*
X162315977Y-102189655D01*
X162430941Y-102017598D01*
X162510130Y-101826420D01*
X162550500Y-101623465D01*
X162550500Y-101416535D01*
X162510130Y-101213580D01*
X162430941Y-101022402D01*
X162315977Y-100850345D01*
X162315975Y-100850342D01*
X162169657Y-100704024D01*
X162083626Y-100646541D01*
X161997598Y-100589059D01*
X161806420Y-100509870D01*
X161806412Y-100509868D01*
X161603469Y-100469500D01*
X161603465Y-100469500D01*
X161396535Y-100469500D01*
X161396530Y-100469500D01*
X161193587Y-100509868D01*
X161193579Y-100509870D01*
X161002403Y-100589058D01*
X160830342Y-100704024D01*
X160684024Y-100850342D01*
X160569058Y-101022403D01*
X160489870Y-101213579D01*
X160489868Y-101213587D01*
X160449500Y-101416530D01*
X160449500Y-101623469D01*
X160489868Y-101826412D01*
X160489870Y-101826420D01*
X160569058Y-102017596D01*
X160684024Y-102189657D01*
X160830342Y-102335975D01*
X161002405Y-102450943D01*
X161105043Y-102493456D01*
X161167108Y-102519164D01*
X161221511Y-102563005D01*
X161243576Y-102629299D01*
X161226297Y-102696998D01*
X161175160Y-102744609D01*
X161157974Y-102751656D01*
X160981781Y-102808905D01*
X160792442Y-102905379D01*
X160620540Y-103030272D01*
X160620535Y-103030276D01*
X160470276Y-103180535D01*
X160470272Y-103180540D01*
X160345379Y-103352442D01*
X160248904Y-103541782D01*
X160183242Y-103743870D01*
X160183242Y-103743873D01*
X160172769Y-103810000D01*
X155800500Y-103810000D01*
X155800500Y-98876530D01*
X160449500Y-98876530D01*
X160449500Y-99083469D01*
X160489868Y-99286412D01*
X160489870Y-99286420D01*
X160569058Y-99477596D01*
X160684024Y-99649657D01*
X160830342Y-99795975D01*
X160830345Y-99795977D01*
X161002402Y-99910941D01*
X161193580Y-99990130D01*
X161396530Y-100030499D01*
X161396534Y-100030500D01*
X161396535Y-100030500D01*
X161603466Y-100030500D01*
X161603467Y-100030499D01*
X161806420Y-99990130D01*
X161997598Y-99910941D01*
X162169655Y-99795977D01*
X162315977Y-99649655D01*
X162430941Y-99477598D01*
X162510130Y-99286420D01*
X162550500Y-99083465D01*
X162550500Y-98876535D01*
X162510130Y-98673580D01*
X162430941Y-98482402D01*
X162315977Y-98310345D01*
X162315975Y-98310342D01*
X162169657Y-98164024D01*
X162083626Y-98106541D01*
X161997598Y-98049059D01*
X161997593Y-98049057D01*
X161806420Y-97969870D01*
X161806412Y-97969868D01*
X161603469Y-97929500D01*
X161603465Y-97929500D01*
X161396535Y-97929500D01*
X161396530Y-97929500D01*
X161193587Y-97969868D01*
X161193579Y-97969870D01*
X161002403Y-98049058D01*
X160830342Y-98164024D01*
X160684024Y-98310342D01*
X160569058Y-98482403D01*
X160489870Y-98673579D01*
X160489868Y-98673587D01*
X160449500Y-98876530D01*
X155800500Y-98876530D01*
X155800500Y-96336530D01*
X160449500Y-96336530D01*
X160449500Y-96543469D01*
X160489868Y-96746412D01*
X160489870Y-96746420D01*
X160569058Y-96937596D01*
X160684024Y-97109657D01*
X160830342Y-97255975D01*
X160830345Y-97255977D01*
X161002402Y-97370941D01*
X161193580Y-97450130D01*
X161396530Y-97490499D01*
X161396534Y-97490500D01*
X161396535Y-97490500D01*
X161603466Y-97490500D01*
X161603467Y-97490499D01*
X161806420Y-97450130D01*
X161997598Y-97370941D01*
X162169655Y-97255977D01*
X162315977Y-97109655D01*
X162430941Y-96937598D01*
X162510130Y-96746420D01*
X162550500Y-96543465D01*
X162550500Y-96336535D01*
X162521353Y-96190000D01*
X183032769Y-96190000D01*
X183926988Y-96190000D01*
X183894075Y-96247007D01*
X183860000Y-96374174D01*
X183860000Y-96505826D01*
X183894075Y-96632993D01*
X183926988Y-96690000D01*
X183032769Y-96690000D01*
X183043242Y-96756126D01*
X183043242Y-96756129D01*
X183108904Y-96958217D01*
X183205379Y-97147557D01*
X183330272Y-97319459D01*
X183330276Y-97319464D01*
X183480535Y-97469723D01*
X183480540Y-97469727D01*
X183652442Y-97594620D01*
X183841782Y-97691095D01*
X184017973Y-97748343D01*
X184075648Y-97787780D01*
X184102847Y-97852139D01*
X184090932Y-97920985D01*
X184043688Y-97972461D01*
X184027108Y-97980835D01*
X183862403Y-98049057D01*
X183690342Y-98164024D01*
X183544024Y-98310342D01*
X183429058Y-98482403D01*
X183349870Y-98673579D01*
X183349868Y-98673587D01*
X183309500Y-98876530D01*
X183309500Y-99083469D01*
X183349868Y-99286412D01*
X183349870Y-99286420D01*
X183429058Y-99477596D01*
X183544024Y-99649657D01*
X183690342Y-99795975D01*
X183690345Y-99795977D01*
X183862402Y-99910941D01*
X184053580Y-99990130D01*
X184256530Y-100030499D01*
X184256534Y-100030500D01*
X184256535Y-100030500D01*
X184463466Y-100030500D01*
X184463467Y-100030499D01*
X184666420Y-99990130D01*
X184857598Y-99910941D01*
X185029655Y-99795977D01*
X185175977Y-99649655D01*
X185290941Y-99477598D01*
X185370130Y-99286420D01*
X185410500Y-99083465D01*
X185410500Y-98876535D01*
X185370130Y-98673580D01*
X185290941Y-98482402D01*
X185175977Y-98310345D01*
X185175975Y-98310342D01*
X185029657Y-98164024D01*
X184943626Y-98106541D01*
X184857598Y-98049059D01*
X184857593Y-98049057D01*
X184795891Y-98023499D01*
X184692890Y-97980834D01*
X184638488Y-97936994D01*
X184616423Y-97870700D01*
X184633702Y-97803001D01*
X184684839Y-97755390D01*
X184702026Y-97748343D01*
X184878217Y-97691095D01*
X185067557Y-97594620D01*
X185239459Y-97469727D01*
X185239464Y-97469723D01*
X185389723Y-97319464D01*
X185389727Y-97319459D01*
X185514620Y-97147557D01*
X185611095Y-96958217D01*
X185676757Y-96756129D01*
X185676757Y-96756126D01*
X185687231Y-96690000D01*
X184793012Y-96690000D01*
X184825925Y-96632993D01*
X184860000Y-96505826D01*
X184860000Y-96374174D01*
X184825925Y-96247007D01*
X184793012Y-96190000D01*
X185687231Y-96190000D01*
X185676757Y-96123873D01*
X185676757Y-96123870D01*
X185611095Y-95921782D01*
X185514620Y-95732442D01*
X185389727Y-95560540D01*
X185389723Y-95560535D01*
X185377032Y-95547844D01*
X186900000Y-95547844D01*
X186906401Y-95607372D01*
X186906403Y-95607379D01*
X186956645Y-95742086D01*
X186956649Y-95742093D01*
X187042809Y-95857187D01*
X187042812Y-95857190D01*
X187157906Y-95943350D01*
X187157913Y-95943354D01*
X187292620Y-95993596D01*
X187292627Y-95993598D01*
X187352155Y-95999999D01*
X187352172Y-96000000D01*
X187750000Y-96000000D01*
X188250000Y-96000000D01*
X188647828Y-96000000D01*
X188647844Y-95999999D01*
X188707372Y-95993598D01*
X188707379Y-95993596D01*
X188842086Y-95943354D01*
X188842093Y-95943350D01*
X188957187Y-95857190D01*
X188957190Y-95857187D01*
X189043350Y-95742093D01*
X189043354Y-95742086D01*
X189093596Y-95607379D01*
X189093598Y-95607372D01*
X189099999Y-95547844D01*
X189100000Y-95547827D01*
X189100000Y-95250000D01*
X188250000Y-95250000D01*
X188250000Y-96000000D01*
X187750000Y-96000000D01*
X187750000Y-95250000D01*
X186900000Y-95250000D01*
X186900000Y-95547844D01*
X185377032Y-95547844D01*
X185239464Y-95410276D01*
X185239459Y-95410272D01*
X185086245Y-95298956D01*
X185067557Y-95285379D01*
X184878216Y-95188904D01*
X184702026Y-95131656D01*
X184644350Y-95092218D01*
X184617152Y-95027860D01*
X184629067Y-94959013D01*
X184676311Y-94907538D01*
X184692882Y-94899168D01*
X184857598Y-94830941D01*
X185029655Y-94715977D01*
X185175977Y-94569655D01*
X185254487Y-94452155D01*
X186900000Y-94452155D01*
X186900000Y-94750000D01*
X187750000Y-94750000D01*
X188250000Y-94750000D01*
X189100000Y-94750000D01*
X189100000Y-94452172D01*
X189099999Y-94452155D01*
X189093598Y-94392627D01*
X189093596Y-94392620D01*
X189043354Y-94257913D01*
X189043350Y-94257906D01*
X188957190Y-94142812D01*
X188957187Y-94142809D01*
X188842093Y-94056649D01*
X188842086Y-94056645D01*
X188707379Y-94006403D01*
X188707372Y-94006401D01*
X188647844Y-94000000D01*
X188250000Y-94000000D01*
X188250000Y-94750000D01*
X187750000Y-94750000D01*
X187750000Y-94000000D01*
X187352155Y-94000000D01*
X187292627Y-94006401D01*
X187292620Y-94006403D01*
X187157913Y-94056645D01*
X187157906Y-94056649D01*
X187042812Y-94142809D01*
X187042809Y-94142812D01*
X186956649Y-94257906D01*
X186956645Y-94257913D01*
X186906403Y-94392620D01*
X186906401Y-94392627D01*
X186900000Y-94452155D01*
X185254487Y-94452155D01*
X185290941Y-94397598D01*
X185370130Y-94206420D01*
X185410500Y-94003465D01*
X185410500Y-93796535D01*
X185370130Y-93593580D01*
X185290941Y-93402402D01*
X185175977Y-93230345D01*
X185175975Y-93230342D01*
X185029657Y-93084024D01*
X184943626Y-93026541D01*
X184857598Y-92969059D01*
X184666420Y-92889870D01*
X184666412Y-92889868D01*
X184463469Y-92849500D01*
X184463465Y-92849500D01*
X184256535Y-92849500D01*
X184256530Y-92849500D01*
X184053587Y-92889868D01*
X184053579Y-92889870D01*
X183862403Y-92969058D01*
X183690342Y-93084024D01*
X183544024Y-93230342D01*
X183429058Y-93402403D01*
X183349870Y-93593579D01*
X183349868Y-93593587D01*
X183309500Y-93796530D01*
X183309500Y-94003469D01*
X183349868Y-94206412D01*
X183349870Y-94206420D01*
X183429058Y-94397596D01*
X183544024Y-94569657D01*
X183690342Y-94715975D01*
X183862405Y-94830943D01*
X183965043Y-94873456D01*
X184027108Y-94899164D01*
X184081511Y-94943005D01*
X184103576Y-95009299D01*
X184086297Y-95076998D01*
X184035160Y-95124609D01*
X184017974Y-95131656D01*
X183841781Y-95188905D01*
X183652442Y-95285379D01*
X183480540Y-95410272D01*
X183480535Y-95410276D01*
X183330276Y-95560535D01*
X183330272Y-95560540D01*
X183205379Y-95732442D01*
X183108904Y-95921782D01*
X183043242Y-96123870D01*
X183043242Y-96123873D01*
X183032769Y-96190000D01*
X162521353Y-96190000D01*
X162510130Y-96133580D01*
X162430941Y-95942402D01*
X162315977Y-95770345D01*
X162315975Y-95770342D01*
X162169657Y-95624024D01*
X162055619Y-95547827D01*
X161997598Y-95509059D01*
X161806420Y-95429870D01*
X161806412Y-95429868D01*
X161603469Y-95389500D01*
X161603465Y-95389500D01*
X161396535Y-95389500D01*
X161396530Y-95389500D01*
X161193587Y-95429868D01*
X161193579Y-95429870D01*
X161002403Y-95509058D01*
X160830342Y-95624024D01*
X160684024Y-95770342D01*
X160569058Y-95942403D01*
X160489870Y-96133579D01*
X160489868Y-96133587D01*
X160449500Y-96336530D01*
X155800500Y-96336530D01*
X155800500Y-93796530D01*
X160449500Y-93796530D01*
X160449500Y-94003469D01*
X160489868Y-94206412D01*
X160489870Y-94206420D01*
X160569058Y-94397596D01*
X160684024Y-94569657D01*
X160830342Y-94715975D01*
X160830345Y-94715977D01*
X161002402Y-94830941D01*
X161193580Y-94910130D01*
X161358855Y-94943005D01*
X161396530Y-94950499D01*
X161396534Y-94950500D01*
X161396535Y-94950500D01*
X161603466Y-94950500D01*
X161603467Y-94950499D01*
X161806420Y-94910130D01*
X161997598Y-94830941D01*
X162169655Y-94715977D01*
X162315977Y-94569655D01*
X162430941Y-94397598D01*
X162510130Y-94206420D01*
X162550500Y-94003465D01*
X162550500Y-93796535D01*
X162510130Y-93593580D01*
X162430941Y-93402402D01*
X162315977Y-93230345D01*
X162315975Y-93230342D01*
X162169657Y-93084024D01*
X162083626Y-93026541D01*
X161997598Y-92969059D01*
X161806420Y-92889870D01*
X161806412Y-92889868D01*
X161603469Y-92849500D01*
X161603465Y-92849500D01*
X161396535Y-92849500D01*
X161396530Y-92849500D01*
X161193587Y-92889868D01*
X161193579Y-92889870D01*
X161002403Y-92969058D01*
X160830342Y-93084024D01*
X160684024Y-93230342D01*
X160569058Y-93402403D01*
X160489870Y-93593579D01*
X160489868Y-93593587D01*
X160449500Y-93796530D01*
X155800500Y-93796530D01*
X155800500Y-91256530D01*
X160449500Y-91256530D01*
X160449500Y-91463469D01*
X160489868Y-91666412D01*
X160489870Y-91666420D01*
X160569058Y-91857596D01*
X160684024Y-92029657D01*
X160830342Y-92175975D01*
X160830345Y-92175977D01*
X161002402Y-92290941D01*
X161193580Y-92370130D01*
X161396530Y-92410499D01*
X161396534Y-92410500D01*
X161396535Y-92410500D01*
X161603466Y-92410500D01*
X161603467Y-92410499D01*
X161806420Y-92370130D01*
X161997598Y-92290941D01*
X162169655Y-92175977D01*
X162315977Y-92029655D01*
X162430941Y-91857598D01*
X162510130Y-91666420D01*
X162550500Y-91463465D01*
X162550500Y-91256535D01*
X162550499Y-91256530D01*
X183309500Y-91256530D01*
X183309500Y-91463469D01*
X183349868Y-91666412D01*
X183349870Y-91666420D01*
X183429058Y-91857596D01*
X183544024Y-92029657D01*
X183690342Y-92175975D01*
X183690345Y-92175977D01*
X183862402Y-92290941D01*
X184053580Y-92370130D01*
X184256530Y-92410499D01*
X184256534Y-92410500D01*
X184256535Y-92410500D01*
X184463466Y-92410500D01*
X184463467Y-92410499D01*
X184666420Y-92370130D01*
X184857598Y-92290941D01*
X185029655Y-92175977D01*
X185175977Y-92029655D01*
X185290941Y-91857598D01*
X185370130Y-91666420D01*
X185410500Y-91463465D01*
X185410500Y-91256535D01*
X185370130Y-91053580D01*
X185290941Y-90862402D01*
X185175977Y-90690345D01*
X185175975Y-90690342D01*
X185029657Y-90544024D01*
X184943626Y-90486541D01*
X184857598Y-90429059D01*
X184666420Y-90349870D01*
X184666412Y-90349868D01*
X184463469Y-90309500D01*
X184463465Y-90309500D01*
X184256535Y-90309500D01*
X184256530Y-90309500D01*
X184053587Y-90349868D01*
X184053579Y-90349870D01*
X183862403Y-90429058D01*
X183690342Y-90544024D01*
X183544024Y-90690342D01*
X183429058Y-90862403D01*
X183349870Y-91053579D01*
X183349868Y-91053587D01*
X183309500Y-91256530D01*
X162550499Y-91256530D01*
X162510130Y-91053580D01*
X162430941Y-90862402D01*
X162315977Y-90690345D01*
X162315975Y-90690342D01*
X162169657Y-90544024D01*
X162083626Y-90486541D01*
X161997598Y-90429059D01*
X161806420Y-90349870D01*
X161806412Y-90349868D01*
X161603469Y-90309500D01*
X161603465Y-90309500D01*
X161396535Y-90309500D01*
X161396530Y-90309500D01*
X161193587Y-90349868D01*
X161193579Y-90349870D01*
X161002403Y-90429058D01*
X160830342Y-90544024D01*
X160684024Y-90690342D01*
X160569058Y-90862403D01*
X160489870Y-91053579D01*
X160489868Y-91053587D01*
X160449500Y-91256530D01*
X155800500Y-91256530D01*
X155800500Y-88716530D01*
X160449500Y-88716530D01*
X160449500Y-88923469D01*
X160489868Y-89126412D01*
X160489870Y-89126420D01*
X160569058Y-89317596D01*
X160684024Y-89489657D01*
X160830342Y-89635975D01*
X160830345Y-89635977D01*
X161002402Y-89750941D01*
X161193580Y-89830130D01*
X161396530Y-89870499D01*
X161396534Y-89870500D01*
X161396535Y-89870500D01*
X161603466Y-89870500D01*
X161603467Y-89870499D01*
X161806420Y-89830130D01*
X161997598Y-89750941D01*
X162169655Y-89635977D01*
X162315977Y-89489655D01*
X162430941Y-89317598D01*
X162510130Y-89126420D01*
X162550500Y-88923465D01*
X162550500Y-88716535D01*
X162510130Y-88513580D01*
X162430941Y-88322402D01*
X162315977Y-88150345D01*
X162315975Y-88150342D01*
X162169657Y-88004024D01*
X162019607Y-87903765D01*
X161997598Y-87889059D01*
X161997593Y-87889057D01*
X161806420Y-87809870D01*
X161806412Y-87809868D01*
X161603469Y-87769500D01*
X161603465Y-87769500D01*
X161396535Y-87769500D01*
X161396530Y-87769500D01*
X161193587Y-87809868D01*
X161193579Y-87809870D01*
X161002403Y-87889058D01*
X160830342Y-88004024D01*
X160684024Y-88150342D01*
X160569058Y-88322403D01*
X160489870Y-88513579D01*
X160489868Y-88513587D01*
X160449500Y-88716530D01*
X155800500Y-88716530D01*
X155800500Y-86176530D01*
X160449500Y-86176530D01*
X160449500Y-86383469D01*
X160489868Y-86586412D01*
X160489870Y-86586420D01*
X160569058Y-86777596D01*
X160684024Y-86949657D01*
X160830342Y-87095975D01*
X160830345Y-87095977D01*
X161002402Y-87210941D01*
X161193580Y-87290130D01*
X161396530Y-87330499D01*
X161396534Y-87330500D01*
X161396535Y-87330500D01*
X161603466Y-87330500D01*
X161603467Y-87330499D01*
X161806420Y-87290130D01*
X161997598Y-87210941D01*
X162169655Y-87095977D01*
X162315977Y-86949655D01*
X162430941Y-86777598D01*
X162510130Y-86586420D01*
X162550500Y-86383465D01*
X162550500Y-86176535D01*
X162510130Y-85973580D01*
X162430941Y-85782402D01*
X162315977Y-85610345D01*
X162315975Y-85610342D01*
X162169657Y-85464024D01*
X162083626Y-85406541D01*
X161997598Y-85349059D01*
X161806420Y-85269870D01*
X161806412Y-85269868D01*
X161603469Y-85229500D01*
X161603465Y-85229500D01*
X161396535Y-85229500D01*
X161396530Y-85229500D01*
X161193587Y-85269868D01*
X161193579Y-85269870D01*
X161002403Y-85349058D01*
X160830342Y-85464024D01*
X160684024Y-85610342D01*
X160569058Y-85782403D01*
X160489870Y-85973579D01*
X160489868Y-85973587D01*
X160449500Y-86176530D01*
X155800500Y-86176530D01*
X155800500Y-83636530D01*
X160449500Y-83636530D01*
X160449500Y-83843469D01*
X160489868Y-84046412D01*
X160489870Y-84046420D01*
X160569058Y-84237596D01*
X160684024Y-84409657D01*
X160830342Y-84555975D01*
X160830345Y-84555977D01*
X161002402Y-84670941D01*
X161193580Y-84750130D01*
X161396530Y-84790499D01*
X161396534Y-84790500D01*
X161396535Y-84790500D01*
X161603466Y-84790500D01*
X161603467Y-84790499D01*
X161806420Y-84750130D01*
X161997598Y-84670941D01*
X162169655Y-84555977D01*
X162315977Y-84409655D01*
X162430941Y-84237598D01*
X162510130Y-84046420D01*
X162550500Y-83843465D01*
X162550500Y-83636535D01*
X162510130Y-83433580D01*
X162430941Y-83242402D01*
X162315977Y-83070345D01*
X162315975Y-83070342D01*
X162169657Y-82924024D01*
X162083626Y-82866541D01*
X161997598Y-82809059D01*
X161806420Y-82729870D01*
X161806412Y-82729868D01*
X161603469Y-82689500D01*
X161603465Y-82689500D01*
X161396535Y-82689500D01*
X161396530Y-82689500D01*
X161193587Y-82729868D01*
X161193579Y-82729870D01*
X161002403Y-82809058D01*
X160830342Y-82924024D01*
X160684024Y-83070342D01*
X160569058Y-83242403D01*
X160489870Y-83433579D01*
X160489868Y-83433587D01*
X160449500Y-83636530D01*
X155800500Y-83636530D01*
X155800500Y-81096530D01*
X160449500Y-81096530D01*
X160449500Y-81303469D01*
X160489868Y-81506412D01*
X160489870Y-81506420D01*
X160569058Y-81697596D01*
X160684024Y-81869657D01*
X160830342Y-82015975D01*
X160830345Y-82015977D01*
X161002402Y-82130941D01*
X161193580Y-82210130D01*
X161396530Y-82250499D01*
X161396534Y-82250500D01*
X161396535Y-82250500D01*
X161603466Y-82250500D01*
X161603467Y-82250499D01*
X161806420Y-82210130D01*
X161997598Y-82130941D01*
X162169655Y-82015977D01*
X162315977Y-81869655D01*
X162430941Y-81697598D01*
X162510130Y-81506420D01*
X162550500Y-81303465D01*
X162550500Y-81096535D01*
X162510130Y-80893580D01*
X162430941Y-80702402D01*
X162315977Y-80530345D01*
X162315975Y-80530342D01*
X162169657Y-80384024D01*
X162083626Y-80326541D01*
X161997598Y-80269059D01*
X161806420Y-80189870D01*
X161806412Y-80189868D01*
X161603469Y-80149500D01*
X161603465Y-80149500D01*
X161396535Y-80149500D01*
X161396530Y-80149500D01*
X161193587Y-80189868D01*
X161193579Y-80189870D01*
X161002403Y-80269058D01*
X160830342Y-80384024D01*
X160684024Y-80530342D01*
X160569058Y-80702403D01*
X160489870Y-80893579D01*
X160489868Y-80893587D01*
X160449500Y-81096530D01*
X155800500Y-81096530D01*
X155800500Y-78556530D01*
X160449500Y-78556530D01*
X160449500Y-78763469D01*
X160489868Y-78966412D01*
X160489870Y-78966420D01*
X160569058Y-79157596D01*
X160684024Y-79329657D01*
X160830342Y-79475975D01*
X160830345Y-79475977D01*
X161002402Y-79590941D01*
X161193580Y-79670130D01*
X161396530Y-79710499D01*
X161396534Y-79710500D01*
X161396535Y-79710500D01*
X161603466Y-79710500D01*
X161603467Y-79710499D01*
X161806420Y-79670130D01*
X161997598Y-79590941D01*
X162169655Y-79475977D01*
X162315977Y-79329655D01*
X162430941Y-79157598D01*
X162510130Y-78966420D01*
X162550500Y-78763465D01*
X162550500Y-78556535D01*
X162510130Y-78353580D01*
X162430941Y-78162402D01*
X162315977Y-77990345D01*
X162315975Y-77990342D01*
X162169657Y-77844024D01*
X162083626Y-77786541D01*
X161997598Y-77729059D01*
X161806420Y-77649870D01*
X161806412Y-77649868D01*
X161603469Y-77609500D01*
X161603465Y-77609500D01*
X161396535Y-77609500D01*
X161396530Y-77609500D01*
X161193587Y-77649868D01*
X161193579Y-77649870D01*
X161002403Y-77729058D01*
X160830342Y-77844024D01*
X160684024Y-77990342D01*
X160569058Y-78162403D01*
X160489870Y-78353579D01*
X160489868Y-78353587D01*
X160449500Y-78556530D01*
X155800500Y-78556530D01*
X155800500Y-76016530D01*
X160449500Y-76016530D01*
X160449500Y-76223469D01*
X160489868Y-76426412D01*
X160489870Y-76426420D01*
X160569058Y-76617596D01*
X160684024Y-76789657D01*
X160830342Y-76935975D01*
X160830345Y-76935977D01*
X161002402Y-77050941D01*
X161193580Y-77130130D01*
X161396530Y-77170499D01*
X161396534Y-77170500D01*
X161396535Y-77170500D01*
X161603466Y-77170500D01*
X161603467Y-77170499D01*
X161806420Y-77130130D01*
X161997598Y-77050941D01*
X162169655Y-76935977D01*
X162315977Y-76789655D01*
X162430941Y-76617598D01*
X162510130Y-76426420D01*
X162550500Y-76223465D01*
X162550500Y-76016535D01*
X162510130Y-75813580D01*
X162430941Y-75622402D01*
X162315977Y-75450345D01*
X162315975Y-75450342D01*
X162169657Y-75304024D01*
X162083626Y-75246541D01*
X161997598Y-75189059D01*
X161806420Y-75109870D01*
X161806412Y-75109868D01*
X161603469Y-75069500D01*
X161603465Y-75069500D01*
X161396535Y-75069500D01*
X161396530Y-75069500D01*
X161193587Y-75109868D01*
X161193579Y-75109870D01*
X161002403Y-75189058D01*
X160830342Y-75304024D01*
X160684024Y-75450342D01*
X160569058Y-75622403D01*
X160489870Y-75813579D01*
X160489868Y-75813587D01*
X160449500Y-76016530D01*
X155800500Y-76016530D01*
X155800500Y-73476530D01*
X160449500Y-73476530D01*
X160449500Y-73683469D01*
X160489868Y-73886412D01*
X160489870Y-73886420D01*
X160569058Y-74077596D01*
X160684024Y-74249657D01*
X160830342Y-74395975D01*
X160830345Y-74395977D01*
X161002402Y-74510941D01*
X161193580Y-74590130D01*
X161396530Y-74630499D01*
X161396534Y-74630500D01*
X161396535Y-74630500D01*
X161603466Y-74630500D01*
X161603467Y-74630499D01*
X161806420Y-74590130D01*
X161997598Y-74510941D01*
X162169655Y-74395977D01*
X162315977Y-74249655D01*
X162430941Y-74077598D01*
X162510130Y-73886420D01*
X162550500Y-73683465D01*
X162550500Y-73476535D01*
X162510130Y-73273580D01*
X162430941Y-73082402D01*
X162315977Y-72910345D01*
X162315975Y-72910342D01*
X162169657Y-72764024D01*
X162083626Y-72706541D01*
X161997598Y-72649059D01*
X161806420Y-72569870D01*
X161806412Y-72569868D01*
X161603469Y-72529500D01*
X161603465Y-72529500D01*
X161396535Y-72529500D01*
X161396530Y-72529500D01*
X161193587Y-72569868D01*
X161193579Y-72569870D01*
X161002403Y-72649058D01*
X160830342Y-72764024D01*
X160684024Y-72910342D01*
X160569058Y-73082403D01*
X160489870Y-73273579D01*
X160489868Y-73273587D01*
X160449500Y-73476530D01*
X155800500Y-73476530D01*
X155800500Y-70936530D01*
X160449500Y-70936530D01*
X160449500Y-71143469D01*
X160489868Y-71346412D01*
X160489870Y-71346420D01*
X160569058Y-71537596D01*
X160684024Y-71709657D01*
X160830342Y-71855975D01*
X160830345Y-71855977D01*
X161002402Y-71970941D01*
X161193580Y-72050130D01*
X161396530Y-72090499D01*
X161396534Y-72090500D01*
X161396535Y-72090500D01*
X161603466Y-72090500D01*
X161603467Y-72090499D01*
X161806420Y-72050130D01*
X161997598Y-71970941D01*
X162169655Y-71855977D01*
X162315977Y-71709655D01*
X162430941Y-71537598D01*
X162510130Y-71346420D01*
X162550500Y-71143465D01*
X162550500Y-70936535D01*
X162510130Y-70733580D01*
X162430941Y-70542402D01*
X162315977Y-70370345D01*
X162315975Y-70370342D01*
X162169657Y-70224024D01*
X162083626Y-70166541D01*
X161997598Y-70109059D01*
X161997593Y-70109057D01*
X161806420Y-70029870D01*
X161806412Y-70029868D01*
X161603469Y-69989500D01*
X161603465Y-69989500D01*
X161396535Y-69989500D01*
X161396530Y-69989500D01*
X161193587Y-70029868D01*
X161193579Y-70029870D01*
X161002403Y-70109058D01*
X160830342Y-70224024D01*
X160684024Y-70370342D01*
X160569058Y-70542403D01*
X160489870Y-70733579D01*
X160489868Y-70733587D01*
X160449500Y-70936530D01*
X155800500Y-70936530D01*
X155800500Y-67630247D01*
X160449500Y-67630247D01*
X160449500Y-69369752D01*
X160461131Y-69428229D01*
X160461132Y-69428230D01*
X160505447Y-69494552D01*
X160571769Y-69538867D01*
X160571770Y-69538868D01*
X160630247Y-69550499D01*
X160630250Y-69550500D01*
X160630252Y-69550500D01*
X162369750Y-69550500D01*
X162369751Y-69550499D01*
X162384568Y-69547552D01*
X162428229Y-69538868D01*
X162428229Y-69538867D01*
X162428231Y-69538867D01*
X162494552Y-69494552D01*
X162538867Y-69428231D01*
X162538867Y-69428229D01*
X162538868Y-69428229D01*
X162550499Y-69369752D01*
X162550500Y-69369750D01*
X162550500Y-67630249D01*
X162550499Y-67630247D01*
X162538868Y-67571770D01*
X162538867Y-67571769D01*
X162494552Y-67505447D01*
X162428230Y-67461132D01*
X162428229Y-67461131D01*
X162369752Y-67449500D01*
X162369748Y-67449500D01*
X160630252Y-67449500D01*
X160630247Y-67449500D01*
X160571770Y-67461131D01*
X160571769Y-67461132D01*
X160505447Y-67505447D01*
X160461132Y-67571769D01*
X160461131Y-67571770D01*
X160449500Y-67630247D01*
X155800500Y-67630247D01*
X155800500Y-50424500D01*
X155820185Y-50357461D01*
X155872989Y-50311706D01*
X155924500Y-50300500D01*
X209575500Y-50300500D01*
X209642539Y-50320185D01*
G37*
%TD.AperFunction*%
%TD*%
M02*
