M48
; DRILL file KiCad 10.0.0 date 2026-04-29T16:23:02
; FORMAT={-:-/ absolute / metric / decimal}
; #@! TF.CreationDate,2026-04-29T16:23:02+01:00
; #@! TF.GenerationSoftware,Kicad,Pcbnew,10.0.0
; #@! TF.FileFunction,Plated,1,2,PTH
FMAT,2
METRIC
; #@! TA.AperFunction,Plated,PTH,ViaDrill
T1C0.400
; #@! TA.AperFunction,Plated,PTH,ComponentDrill
T2C0.900
; #@! TA.AperFunction,Plated,PTH,ComponentDrill
T3C1.000
%
G90
G05
T1
X182.41Y-104.119
X200.358Y-111.276
T2
X195.5Y-58.5
X195.5Y-60.5
X197.5Y-58.5
X197.5Y-60.5
X199.5Y-58.5
X199.5Y-60.5
X201.5Y-58.5
X201.5Y-60.5
X205.35Y-105.42
X205.35Y-107.96
X205.35Y-110.5
X205.35Y-113.04
X205.35Y-115.58
T3
X161.5Y-68.5
X161.5Y-71.04
X161.5Y-73.58
X161.5Y-76.12
X161.5Y-78.66
X161.5Y-81.2
X161.5Y-83.74
X161.5Y-86.28
X161.5Y-88.82
X161.5Y-91.36
X161.5Y-93.9
X161.5Y-96.44
X161.5Y-98.98
X161.5Y-101.52
X161.5Y-104.06
X161.5Y-106.6
X184.36Y-68.5
X184.36Y-71.04
X184.36Y-73.58
X184.36Y-76.12
X184.36Y-78.66
X184.36Y-81.2
X184.36Y-83.74
X184.36Y-86.28
X184.36Y-88.82
X184.36Y-91.36
X184.36Y-93.9
X184.36Y-96.44
X184.36Y-98.98
X184.36Y-101.52
X184.36Y-104.06
X184.36Y-106.6
M30
