%TF.GenerationSoftware,KiCad,Pcbnew,10.0.0*%
%TF.CreationDate,2026-04-29T16:28:03+01:00*%
%TF.ProjectId,SHS-Z2M-Presence,5348532d-5a32-44d2-9d50-726573656e63,rev?*%
%TF.SameCoordinates,Original*%
%TF.FileFunction,AssemblyDrawing,Top*%
%FSLAX46Y46*%
G04 Gerber Fmt 4.6, Leading zero omitted, Abs format (unit mm)*
G04 Created by KiCad (PCBNEW 10.0.0) date 2026-04-29 16:28:03*
%MOMM*%
%LPD*%
G01*
G04 APERTURE LIST*
%ADD10C,0.120000*%
%ADD11C,0.150000*%
%ADD12C,0.100000*%
%ADD13C,0.080000*%
G04 APERTURE END LIST*
D10*
X193142856Y-124363855D02*
X192685713Y-124363855D01*
X192914285Y-124363855D02*
X192914285Y-123563855D01*
X192914285Y-123563855D02*
X192838094Y-123678140D01*
X192838094Y-123678140D02*
X192761904Y-123754331D01*
X192761904Y-123754331D02*
X192685713Y-123792426D01*
X193638095Y-123563855D02*
X193714285Y-123563855D01*
X193714285Y-123563855D02*
X193790476Y-123601950D01*
X193790476Y-123601950D02*
X193828571Y-123640045D01*
X193828571Y-123640045D02*
X193866666Y-123716236D01*
X193866666Y-123716236D02*
X193904761Y-123868617D01*
X193904761Y-123868617D02*
X193904761Y-124059093D01*
X193904761Y-124059093D02*
X193866666Y-124211474D01*
X193866666Y-124211474D02*
X193828571Y-124287664D01*
X193828571Y-124287664D02*
X193790476Y-124325760D01*
X193790476Y-124325760D02*
X193714285Y-124363855D01*
X193714285Y-124363855D02*
X193638095Y-124363855D01*
X193638095Y-124363855D02*
X193561904Y-124325760D01*
X193561904Y-124325760D02*
X193523809Y-124287664D01*
X193523809Y-124287664D02*
X193485714Y-124211474D01*
X193485714Y-124211474D02*
X193447618Y-124059093D01*
X193447618Y-124059093D02*
X193447618Y-123868617D01*
X193447618Y-123868617D02*
X193485714Y-123716236D01*
X193485714Y-123716236D02*
X193523809Y-123640045D01*
X193523809Y-123640045D02*
X193561904Y-123601950D01*
X193561904Y-123601950D02*
X193638095Y-123563855D01*
X194590476Y-123830521D02*
X194590476Y-124363855D01*
X194247619Y-123830521D02*
X194247619Y-124249569D01*
X194247619Y-124249569D02*
X194285714Y-124325760D01*
X194285714Y-124325760D02*
X194361904Y-124363855D01*
X194361904Y-124363855D02*
X194476190Y-124363855D01*
X194476190Y-124363855D02*
X194552381Y-124325760D01*
X194552381Y-124325760D02*
X194590476Y-124287664D01*
X195238095Y-123944807D02*
X194971429Y-123944807D01*
X194971429Y-124363855D02*
X194971429Y-123563855D01*
X194971429Y-123563855D02*
X195352381Y-123563855D01*
D11*
X195904761Y-113454819D02*
X195428571Y-113454819D01*
X195428571Y-113454819D02*
X195428571Y-112454819D01*
X196238095Y-113454819D02*
X196238095Y-112454819D01*
X196238095Y-112454819D02*
X196476190Y-112454819D01*
X196476190Y-112454819D02*
X196619047Y-112502438D01*
X196619047Y-112502438D02*
X196714285Y-112597676D01*
X196714285Y-112597676D02*
X196761904Y-112692914D01*
X196761904Y-112692914D02*
X196809523Y-112883390D01*
X196809523Y-112883390D02*
X196809523Y-113026247D01*
X196809523Y-113026247D02*
X196761904Y-113216723D01*
X196761904Y-113216723D02*
X196714285Y-113311961D01*
X196714285Y-113311961D02*
X196619047Y-113407200D01*
X196619047Y-113407200D02*
X196476190Y-113454819D01*
X196476190Y-113454819D02*
X196238095Y-113454819D01*
X197190476Y-112550057D02*
X197238095Y-112502438D01*
X197238095Y-112502438D02*
X197333333Y-112454819D01*
X197333333Y-112454819D02*
X197571428Y-112454819D01*
X197571428Y-112454819D02*
X197666666Y-112502438D01*
X197666666Y-112502438D02*
X197714285Y-112550057D01*
X197714285Y-112550057D02*
X197761904Y-112645295D01*
X197761904Y-112645295D02*
X197761904Y-112740533D01*
X197761904Y-112740533D02*
X197714285Y-112883390D01*
X197714285Y-112883390D02*
X197142857Y-113454819D01*
X197142857Y-113454819D02*
X197761904Y-113454819D01*
X198619047Y-112788152D02*
X198619047Y-113454819D01*
X198380952Y-112407200D02*
X198142857Y-113121485D01*
X198142857Y-113121485D02*
X198761904Y-113121485D01*
X199666666Y-113454819D02*
X199095238Y-113454819D01*
X199380952Y-113454819D02*
X199380952Y-112454819D01*
X199380952Y-112454819D02*
X199285714Y-112597676D01*
X199285714Y-112597676D02*
X199190476Y-112692914D01*
X199190476Y-112692914D02*
X199095238Y-112740533D01*
X200285714Y-112454819D02*
X200380952Y-112454819D01*
X200380952Y-112454819D02*
X200476190Y-112502438D01*
X200476190Y-112502438D02*
X200523809Y-112550057D01*
X200523809Y-112550057D02*
X200571428Y-112645295D01*
X200571428Y-112645295D02*
X200619047Y-112835771D01*
X200619047Y-112835771D02*
X200619047Y-113073866D01*
X200619047Y-113073866D02*
X200571428Y-113264342D01*
X200571428Y-113264342D02*
X200523809Y-113359580D01*
X200523809Y-113359580D02*
X200476190Y-113407200D01*
X200476190Y-113407200D02*
X200380952Y-113454819D01*
X200380952Y-113454819D02*
X200285714Y-113454819D01*
X200285714Y-113454819D02*
X200190476Y-113407200D01*
X200190476Y-113407200D02*
X200142857Y-113359580D01*
X200142857Y-113359580D02*
X200095238Y-113264342D01*
X200095238Y-113264342D02*
X200047619Y-113073866D01*
X200047619Y-113073866D02*
X200047619Y-112835771D01*
X200047619Y-112835771D02*
X200095238Y-112645295D01*
X200095238Y-112645295D02*
X200142857Y-112550057D01*
X200142857Y-112550057D02*
X200190476Y-112502438D01*
X200190476Y-112502438D02*
X200285714Y-112454819D01*
X201619047Y-113359580D02*
X201571428Y-113407200D01*
X201571428Y-113407200D02*
X201428571Y-113454819D01*
X201428571Y-113454819D02*
X201333333Y-113454819D01*
X201333333Y-113454819D02*
X201190476Y-113407200D01*
X201190476Y-113407200D02*
X201095238Y-113311961D01*
X201095238Y-113311961D02*
X201047619Y-113216723D01*
X201047619Y-113216723D02*
X201000000Y-113026247D01*
X201000000Y-113026247D02*
X201000000Y-112883390D01*
X201000000Y-112883390D02*
X201047619Y-112692914D01*
X201047619Y-112692914D02*
X201095238Y-112597676D01*
X201095238Y-112597676D02*
X201190476Y-112502438D01*
X201190476Y-112502438D02*
X201333333Y-112454819D01*
X201333333Y-112454819D02*
X201428571Y-112454819D01*
X201428571Y-112454819D02*
X201571428Y-112502438D01*
X201571428Y-112502438D02*
X201619047Y-112550057D01*
D12*
X202049999Y-105092371D02*
X202249999Y-105692371D01*
X202249999Y-105692371D02*
X202449999Y-105092371D01*
X202992857Y-105635228D02*
X202964285Y-105663800D01*
X202964285Y-105663800D02*
X202878571Y-105692371D01*
X202878571Y-105692371D02*
X202821428Y-105692371D01*
X202821428Y-105692371D02*
X202735714Y-105663800D01*
X202735714Y-105663800D02*
X202678571Y-105606657D01*
X202678571Y-105606657D02*
X202650000Y-105549514D01*
X202650000Y-105549514D02*
X202621428Y-105435228D01*
X202621428Y-105435228D02*
X202621428Y-105349514D01*
X202621428Y-105349514D02*
X202650000Y-105235228D01*
X202650000Y-105235228D02*
X202678571Y-105178085D01*
X202678571Y-105178085D02*
X202735714Y-105120942D01*
X202735714Y-105120942D02*
X202821428Y-105092371D01*
X202821428Y-105092371D02*
X202878571Y-105092371D01*
X202878571Y-105092371D02*
X202964285Y-105120942D01*
X202964285Y-105120942D02*
X202992857Y-105149514D01*
X203592857Y-105635228D02*
X203564285Y-105663800D01*
X203564285Y-105663800D02*
X203478571Y-105692371D01*
X203478571Y-105692371D02*
X203421428Y-105692371D01*
X203421428Y-105692371D02*
X203335714Y-105663800D01*
X203335714Y-105663800D02*
X203278571Y-105606657D01*
X203278571Y-105606657D02*
X203250000Y-105549514D01*
X203250000Y-105549514D02*
X203221428Y-105435228D01*
X203221428Y-105435228D02*
X203221428Y-105349514D01*
X203221428Y-105349514D02*
X203250000Y-105235228D01*
X203250000Y-105235228D02*
X203278571Y-105178085D01*
X203278571Y-105178085D02*
X203335714Y-105120942D01*
X203335714Y-105120942D02*
X203421428Y-105092371D01*
X203421428Y-105092371D02*
X203478571Y-105092371D01*
X203478571Y-105092371D02*
X203564285Y-105120942D01*
X203564285Y-105120942D02*
X203592857Y-105149514D01*
X202392857Y-107660942D02*
X202335715Y-107632371D01*
X202335715Y-107632371D02*
X202250000Y-107632371D01*
X202250000Y-107632371D02*
X202164286Y-107660942D01*
X202164286Y-107660942D02*
X202107143Y-107718085D01*
X202107143Y-107718085D02*
X202078572Y-107775228D01*
X202078572Y-107775228D02*
X202050000Y-107889514D01*
X202050000Y-107889514D02*
X202050000Y-107975228D01*
X202050000Y-107975228D02*
X202078572Y-108089514D01*
X202078572Y-108089514D02*
X202107143Y-108146657D01*
X202107143Y-108146657D02*
X202164286Y-108203800D01*
X202164286Y-108203800D02*
X202250000Y-108232371D01*
X202250000Y-108232371D02*
X202307143Y-108232371D01*
X202307143Y-108232371D02*
X202392857Y-108203800D01*
X202392857Y-108203800D02*
X202421429Y-108175228D01*
X202421429Y-108175228D02*
X202421429Y-107975228D01*
X202421429Y-107975228D02*
X202307143Y-107975228D01*
X202678572Y-108232371D02*
X202678572Y-107632371D01*
X202678572Y-107632371D02*
X203021429Y-108232371D01*
X203021429Y-108232371D02*
X203021429Y-107632371D01*
X203307143Y-108232371D02*
X203307143Y-107632371D01*
X203307143Y-107632371D02*
X203450000Y-107632371D01*
X203450000Y-107632371D02*
X203535714Y-107660942D01*
X203535714Y-107660942D02*
X203592857Y-107718085D01*
X203592857Y-107718085D02*
X203621428Y-107775228D01*
X203621428Y-107775228D02*
X203650000Y-107889514D01*
X203650000Y-107889514D02*
X203650000Y-107975228D01*
X203650000Y-107975228D02*
X203621428Y-108089514D01*
X203621428Y-108089514D02*
X203592857Y-108146657D01*
X203592857Y-108146657D02*
X203535714Y-108203800D01*
X203535714Y-108203800D02*
X203450000Y-108232371D01*
X203450000Y-108232371D02*
X203307143Y-108232371D01*
X202250000Y-110172371D02*
X202364286Y-110172371D01*
X202364286Y-110172371D02*
X202421429Y-110200942D01*
X202421429Y-110200942D02*
X202478572Y-110258085D01*
X202478572Y-110258085D02*
X202507143Y-110372371D01*
X202507143Y-110372371D02*
X202507143Y-110572371D01*
X202507143Y-110572371D02*
X202478572Y-110686657D01*
X202478572Y-110686657D02*
X202421429Y-110743800D01*
X202421429Y-110743800D02*
X202364286Y-110772371D01*
X202364286Y-110772371D02*
X202250000Y-110772371D01*
X202250000Y-110772371D02*
X202192858Y-110743800D01*
X202192858Y-110743800D02*
X202135715Y-110686657D01*
X202135715Y-110686657D02*
X202107143Y-110572371D01*
X202107143Y-110572371D02*
X202107143Y-110372371D01*
X202107143Y-110372371D02*
X202135715Y-110258085D01*
X202135715Y-110258085D02*
X202192858Y-110200942D01*
X202192858Y-110200942D02*
X202250000Y-110172371D01*
X202764286Y-110172371D02*
X202764286Y-110658085D01*
X202764286Y-110658085D02*
X202792857Y-110715228D01*
X202792857Y-110715228D02*
X202821429Y-110743800D01*
X202821429Y-110743800D02*
X202878571Y-110772371D01*
X202878571Y-110772371D02*
X202992857Y-110772371D01*
X202992857Y-110772371D02*
X203050000Y-110743800D01*
X203050000Y-110743800D02*
X203078571Y-110715228D01*
X203078571Y-110715228D02*
X203107143Y-110658085D01*
X203107143Y-110658085D02*
X203107143Y-110172371D01*
X203307142Y-110172371D02*
X203650000Y-110172371D01*
X203478571Y-110772371D02*
X203478571Y-110172371D01*
X202750000Y-113312371D02*
X202550000Y-113026657D01*
X202407143Y-113312371D02*
X202407143Y-112712371D01*
X202407143Y-112712371D02*
X202635714Y-112712371D01*
X202635714Y-112712371D02*
X202692857Y-112740942D01*
X202692857Y-112740942D02*
X202721428Y-112769514D01*
X202721428Y-112769514D02*
X202750000Y-112826657D01*
X202750000Y-112826657D02*
X202750000Y-112912371D01*
X202750000Y-112912371D02*
X202721428Y-112969514D01*
X202721428Y-112969514D02*
X202692857Y-112998085D01*
X202692857Y-112998085D02*
X202635714Y-113026657D01*
X202635714Y-113026657D02*
X202407143Y-113026657D01*
X202950000Y-112712371D02*
X203350000Y-113312371D01*
X203350000Y-112712371D02*
X202950000Y-113312371D01*
X202392856Y-115252371D02*
X202735714Y-115252371D01*
X202564285Y-115852371D02*
X202564285Y-115252371D01*
X202878571Y-115252371D02*
X203278571Y-115852371D01*
X203278571Y-115252371D02*
X202878571Y-115852371D01*
D10*
X190863855Y-97238095D02*
X190863855Y-97695238D01*
X190863855Y-97466666D02*
X190063855Y-97466666D01*
X190063855Y-97466666D02*
X190178140Y-97542857D01*
X190178140Y-97542857D02*
X190254331Y-97619047D01*
X190254331Y-97619047D02*
X190292426Y-97695238D01*
X190063855Y-96742856D02*
X190063855Y-96666666D01*
X190063855Y-96666666D02*
X190101950Y-96590475D01*
X190101950Y-96590475D02*
X190140045Y-96552380D01*
X190140045Y-96552380D02*
X190216236Y-96514285D01*
X190216236Y-96514285D02*
X190368617Y-96476190D01*
X190368617Y-96476190D02*
X190559093Y-96476190D01*
X190559093Y-96476190D02*
X190711474Y-96514285D01*
X190711474Y-96514285D02*
X190787664Y-96552380D01*
X190787664Y-96552380D02*
X190825760Y-96590475D01*
X190825760Y-96590475D02*
X190863855Y-96666666D01*
X190863855Y-96666666D02*
X190863855Y-96742856D01*
X190863855Y-96742856D02*
X190825760Y-96819047D01*
X190825760Y-96819047D02*
X190787664Y-96857142D01*
X190787664Y-96857142D02*
X190711474Y-96895237D01*
X190711474Y-96895237D02*
X190559093Y-96933333D01*
X190559093Y-96933333D02*
X190368617Y-96933333D01*
X190368617Y-96933333D02*
X190216236Y-96895237D01*
X190216236Y-96895237D02*
X190140045Y-96857142D01*
X190140045Y-96857142D02*
X190101950Y-96819047D01*
X190101950Y-96819047D02*
X190063855Y-96742856D01*
X190063855Y-95980951D02*
X190063855Y-95904761D01*
X190063855Y-95904761D02*
X190101950Y-95828570D01*
X190101950Y-95828570D02*
X190140045Y-95790475D01*
X190140045Y-95790475D02*
X190216236Y-95752380D01*
X190216236Y-95752380D02*
X190368617Y-95714285D01*
X190368617Y-95714285D02*
X190559093Y-95714285D01*
X190559093Y-95714285D02*
X190711474Y-95752380D01*
X190711474Y-95752380D02*
X190787664Y-95790475D01*
X190787664Y-95790475D02*
X190825760Y-95828570D01*
X190825760Y-95828570D02*
X190863855Y-95904761D01*
X190863855Y-95904761D02*
X190863855Y-95980951D01*
X190863855Y-95980951D02*
X190825760Y-96057142D01*
X190825760Y-96057142D02*
X190787664Y-96095237D01*
X190787664Y-96095237D02*
X190711474Y-96133332D01*
X190711474Y-96133332D02*
X190559093Y-96171428D01*
X190559093Y-96171428D02*
X190368617Y-96171428D01*
X190368617Y-96171428D02*
X190216236Y-96133332D01*
X190216236Y-96133332D02*
X190140045Y-96095237D01*
X190140045Y-96095237D02*
X190101950Y-96057142D01*
X190101950Y-96057142D02*
X190063855Y-95980951D01*
X190330521Y-95371427D02*
X190863855Y-95371427D01*
X190406712Y-95371427D02*
X190368617Y-95333332D01*
X190368617Y-95333332D02*
X190330521Y-95257142D01*
X190330521Y-95257142D02*
X190330521Y-95142856D01*
X190330521Y-95142856D02*
X190368617Y-95066665D01*
X190368617Y-95066665D02*
X190444807Y-95028570D01*
X190444807Y-95028570D02*
X190863855Y-95028570D01*
X190444807Y-94380951D02*
X190444807Y-94647617D01*
X190863855Y-94647617D02*
X190063855Y-94647617D01*
X190063855Y-94647617D02*
X190063855Y-94266665D01*
X206363855Y-107738095D02*
X206363855Y-108195238D01*
X206363855Y-107966666D02*
X205563855Y-107966666D01*
X205563855Y-107966666D02*
X205678140Y-108042857D01*
X205678140Y-108042857D02*
X205754331Y-108119047D01*
X205754331Y-108119047D02*
X205792426Y-108195238D01*
X205563855Y-107242856D02*
X205563855Y-107166666D01*
X205563855Y-107166666D02*
X205601950Y-107090475D01*
X205601950Y-107090475D02*
X205640045Y-107052380D01*
X205640045Y-107052380D02*
X205716236Y-107014285D01*
X205716236Y-107014285D02*
X205868617Y-106976190D01*
X205868617Y-106976190D02*
X206059093Y-106976190D01*
X206059093Y-106976190D02*
X206211474Y-107014285D01*
X206211474Y-107014285D02*
X206287664Y-107052380D01*
X206287664Y-107052380D02*
X206325760Y-107090475D01*
X206325760Y-107090475D02*
X206363855Y-107166666D01*
X206363855Y-107166666D02*
X206363855Y-107242856D01*
X206363855Y-107242856D02*
X206325760Y-107319047D01*
X206325760Y-107319047D02*
X206287664Y-107357142D01*
X206287664Y-107357142D02*
X206211474Y-107395237D01*
X206211474Y-107395237D02*
X206059093Y-107433333D01*
X206059093Y-107433333D02*
X205868617Y-107433333D01*
X205868617Y-107433333D02*
X205716236Y-107395237D01*
X205716236Y-107395237D02*
X205640045Y-107357142D01*
X205640045Y-107357142D02*
X205601950Y-107319047D01*
X205601950Y-107319047D02*
X205563855Y-107242856D01*
X205563855Y-106480951D02*
X205563855Y-106404761D01*
X205563855Y-106404761D02*
X205601950Y-106328570D01*
X205601950Y-106328570D02*
X205640045Y-106290475D01*
X205640045Y-106290475D02*
X205716236Y-106252380D01*
X205716236Y-106252380D02*
X205868617Y-106214285D01*
X205868617Y-106214285D02*
X206059093Y-106214285D01*
X206059093Y-106214285D02*
X206211474Y-106252380D01*
X206211474Y-106252380D02*
X206287664Y-106290475D01*
X206287664Y-106290475D02*
X206325760Y-106328570D01*
X206325760Y-106328570D02*
X206363855Y-106404761D01*
X206363855Y-106404761D02*
X206363855Y-106480951D01*
X206363855Y-106480951D02*
X206325760Y-106557142D01*
X206325760Y-106557142D02*
X206287664Y-106595237D01*
X206287664Y-106595237D02*
X206211474Y-106633332D01*
X206211474Y-106633332D02*
X206059093Y-106671428D01*
X206059093Y-106671428D02*
X205868617Y-106671428D01*
X205868617Y-106671428D02*
X205716236Y-106633332D01*
X205716236Y-106633332D02*
X205640045Y-106595237D01*
X205640045Y-106595237D02*
X205601950Y-106557142D01*
X205601950Y-106557142D02*
X205563855Y-106480951D01*
X205830521Y-105871427D02*
X206363855Y-105871427D01*
X205906712Y-105871427D02*
X205868617Y-105833332D01*
X205868617Y-105833332D02*
X205830521Y-105757142D01*
X205830521Y-105757142D02*
X205830521Y-105642856D01*
X205830521Y-105642856D02*
X205868617Y-105566665D01*
X205868617Y-105566665D02*
X205944807Y-105528570D01*
X205944807Y-105528570D02*
X206363855Y-105528570D01*
X205944807Y-104880951D02*
X205944807Y-105147617D01*
X206363855Y-105147617D02*
X205563855Y-105147617D01*
X205563855Y-105147617D02*
X205563855Y-104766665D01*
D11*
X195404761Y-52954819D02*
X194928571Y-52954819D01*
X194928571Y-52954819D02*
X194928571Y-51954819D01*
X195738095Y-52954819D02*
X195738095Y-51954819D01*
X195738095Y-51954819D02*
X195976190Y-51954819D01*
X195976190Y-51954819D02*
X196119047Y-52002438D01*
X196119047Y-52002438D02*
X196214285Y-52097676D01*
X196214285Y-52097676D02*
X196261904Y-52192914D01*
X196261904Y-52192914D02*
X196309523Y-52383390D01*
X196309523Y-52383390D02*
X196309523Y-52526247D01*
X196309523Y-52526247D02*
X196261904Y-52716723D01*
X196261904Y-52716723D02*
X196214285Y-52811961D01*
X196214285Y-52811961D02*
X196119047Y-52907200D01*
X196119047Y-52907200D02*
X195976190Y-52954819D01*
X195976190Y-52954819D02*
X195738095Y-52954819D01*
X196690476Y-52050057D02*
X196738095Y-52002438D01*
X196738095Y-52002438D02*
X196833333Y-51954819D01*
X196833333Y-51954819D02*
X197071428Y-51954819D01*
X197071428Y-51954819D02*
X197166666Y-52002438D01*
X197166666Y-52002438D02*
X197214285Y-52050057D01*
X197214285Y-52050057D02*
X197261904Y-52145295D01*
X197261904Y-52145295D02*
X197261904Y-52240533D01*
X197261904Y-52240533D02*
X197214285Y-52383390D01*
X197214285Y-52383390D02*
X196642857Y-52954819D01*
X196642857Y-52954819D02*
X197261904Y-52954819D01*
X198119047Y-52288152D02*
X198119047Y-52954819D01*
X197880952Y-51907200D02*
X197642857Y-52621485D01*
X197642857Y-52621485D02*
X198261904Y-52621485D01*
X199119047Y-51954819D02*
X198642857Y-51954819D01*
X198642857Y-51954819D02*
X198595238Y-52431009D01*
X198595238Y-52431009D02*
X198642857Y-52383390D01*
X198642857Y-52383390D02*
X198738095Y-52335771D01*
X198738095Y-52335771D02*
X198976190Y-52335771D01*
X198976190Y-52335771D02*
X199071428Y-52383390D01*
X199071428Y-52383390D02*
X199119047Y-52431009D01*
X199119047Y-52431009D02*
X199166666Y-52526247D01*
X199166666Y-52526247D02*
X199166666Y-52764342D01*
X199166666Y-52764342D02*
X199119047Y-52859580D01*
X199119047Y-52859580D02*
X199071428Y-52907200D01*
X199071428Y-52907200D02*
X198976190Y-52954819D01*
X198976190Y-52954819D02*
X198738095Y-52954819D01*
X198738095Y-52954819D02*
X198642857Y-52907200D01*
X198642857Y-52907200D02*
X198595238Y-52859580D01*
X199785714Y-51954819D02*
X199880952Y-51954819D01*
X199880952Y-51954819D02*
X199976190Y-52002438D01*
X199976190Y-52002438D02*
X200023809Y-52050057D01*
X200023809Y-52050057D02*
X200071428Y-52145295D01*
X200071428Y-52145295D02*
X200119047Y-52335771D01*
X200119047Y-52335771D02*
X200119047Y-52573866D01*
X200119047Y-52573866D02*
X200071428Y-52764342D01*
X200071428Y-52764342D02*
X200023809Y-52859580D01*
X200023809Y-52859580D02*
X199976190Y-52907200D01*
X199976190Y-52907200D02*
X199880952Y-52954819D01*
X199880952Y-52954819D02*
X199785714Y-52954819D01*
X199785714Y-52954819D02*
X199690476Y-52907200D01*
X199690476Y-52907200D02*
X199642857Y-52859580D01*
X199642857Y-52859580D02*
X199595238Y-52764342D01*
X199595238Y-52764342D02*
X199547619Y-52573866D01*
X199547619Y-52573866D02*
X199547619Y-52335771D01*
X199547619Y-52335771D02*
X199595238Y-52145295D01*
X199595238Y-52145295D02*
X199642857Y-52050057D01*
X199642857Y-52050057D02*
X199690476Y-52002438D01*
X199690476Y-52002438D02*
X199785714Y-51954819D01*
D13*
X197083333Y-58807149D02*
X197083333Y-58307149D01*
X197083333Y-58307149D02*
X197202381Y-58307149D01*
X197202381Y-58307149D02*
X197273809Y-58330959D01*
X197273809Y-58330959D02*
X197321428Y-58378578D01*
X197321428Y-58378578D02*
X197345238Y-58426197D01*
X197345238Y-58426197D02*
X197369047Y-58521435D01*
X197369047Y-58521435D02*
X197369047Y-58592863D01*
X197369047Y-58592863D02*
X197345238Y-58688101D01*
X197345238Y-58688101D02*
X197321428Y-58735720D01*
X197321428Y-58735720D02*
X197273809Y-58783340D01*
X197273809Y-58783340D02*
X197202381Y-58807149D01*
X197202381Y-58807149D02*
X197083333Y-58807149D01*
X197583333Y-58807149D02*
X197583333Y-58307149D01*
X197583333Y-58307149D02*
X197750000Y-58664292D01*
X197750000Y-58664292D02*
X197916666Y-58307149D01*
X197916666Y-58307149D02*
X197916666Y-58807149D01*
X197119047Y-60330959D02*
X197071428Y-60307149D01*
X197071428Y-60307149D02*
X196999999Y-60307149D01*
X196999999Y-60307149D02*
X196928571Y-60330959D01*
X196928571Y-60330959D02*
X196880952Y-60378578D01*
X196880952Y-60378578D02*
X196857142Y-60426197D01*
X196857142Y-60426197D02*
X196833333Y-60521435D01*
X196833333Y-60521435D02*
X196833333Y-60592863D01*
X196833333Y-60592863D02*
X196857142Y-60688101D01*
X196857142Y-60688101D02*
X196880952Y-60735720D01*
X196880952Y-60735720D02*
X196928571Y-60783340D01*
X196928571Y-60783340D02*
X196999999Y-60807149D01*
X196999999Y-60807149D02*
X197047618Y-60807149D01*
X197047618Y-60807149D02*
X197119047Y-60783340D01*
X197119047Y-60783340D02*
X197142856Y-60759530D01*
X197142856Y-60759530D02*
X197142856Y-60592863D01*
X197142856Y-60592863D02*
X197047618Y-60592863D01*
X197357142Y-60807149D02*
X197357142Y-60307149D01*
X197357142Y-60307149D02*
X197642856Y-60807149D01*
X197642856Y-60807149D02*
X197642856Y-60307149D01*
X197880952Y-60807149D02*
X197880952Y-60307149D01*
X197880952Y-60307149D02*
X198000000Y-60307149D01*
X198000000Y-60307149D02*
X198071428Y-60330959D01*
X198071428Y-60330959D02*
X198119047Y-60378578D01*
X198119047Y-60378578D02*
X198142857Y-60426197D01*
X198142857Y-60426197D02*
X198166666Y-60521435D01*
X198166666Y-60521435D02*
X198166666Y-60592863D01*
X198166666Y-60592863D02*
X198142857Y-60688101D01*
X198142857Y-60688101D02*
X198119047Y-60735720D01*
X198119047Y-60735720D02*
X198071428Y-60783340D01*
X198071428Y-60783340D02*
X198000000Y-60807149D01*
X198000000Y-60807149D02*
X197880952Y-60807149D01*
X199119047Y-58807149D02*
X199119047Y-58307149D01*
X199119047Y-58307149D02*
X199238095Y-58307149D01*
X199238095Y-58307149D02*
X199309523Y-58330959D01*
X199309523Y-58330959D02*
X199357142Y-58378578D01*
X199357142Y-58378578D02*
X199380952Y-58426197D01*
X199380952Y-58426197D02*
X199404761Y-58521435D01*
X199404761Y-58521435D02*
X199404761Y-58592863D01*
X199404761Y-58592863D02*
X199380952Y-58688101D01*
X199380952Y-58688101D02*
X199357142Y-58735720D01*
X199357142Y-58735720D02*
X199309523Y-58783340D01*
X199309523Y-58783340D02*
X199238095Y-58807149D01*
X199238095Y-58807149D02*
X199119047Y-58807149D01*
X199619047Y-58807149D02*
X199619047Y-58307149D01*
X199619047Y-58307149D02*
X199809523Y-58307149D01*
X199809523Y-58307149D02*
X199857142Y-58330959D01*
X199857142Y-58330959D02*
X199880952Y-58354768D01*
X199880952Y-58354768D02*
X199904761Y-58402387D01*
X199904761Y-58402387D02*
X199904761Y-58473816D01*
X199904761Y-58473816D02*
X199880952Y-58521435D01*
X199880952Y-58521435D02*
X199857142Y-58545244D01*
X199857142Y-58545244D02*
X199809523Y-58569054D01*
X199809523Y-58569054D02*
X199619047Y-58569054D01*
X198916667Y-60807149D02*
X198916667Y-60307149D01*
X198916667Y-60307149D02*
X199107143Y-60307149D01*
X199107143Y-60307149D02*
X199154762Y-60330959D01*
X199154762Y-60330959D02*
X199178572Y-60354768D01*
X199178572Y-60354768D02*
X199202381Y-60402387D01*
X199202381Y-60402387D02*
X199202381Y-60473816D01*
X199202381Y-60473816D02*
X199178572Y-60521435D01*
X199178572Y-60521435D02*
X199154762Y-60545244D01*
X199154762Y-60545244D02*
X199107143Y-60569054D01*
X199107143Y-60569054D02*
X198916667Y-60569054D01*
X199392858Y-60664292D02*
X199630953Y-60664292D01*
X199345239Y-60807149D02*
X199511905Y-60307149D01*
X199511905Y-60307149D02*
X199678572Y-60807149D01*
X199869048Y-60807149D02*
X199964286Y-60807149D01*
X199964286Y-60807149D02*
X200011905Y-60783340D01*
X200011905Y-60783340D02*
X200035714Y-60759530D01*
X200035714Y-60759530D02*
X200083333Y-60688101D01*
X200083333Y-60688101D02*
X200107143Y-60592863D01*
X200107143Y-60592863D02*
X200107143Y-60402387D01*
X200107143Y-60402387D02*
X200083333Y-60354768D01*
X200083333Y-60354768D02*
X200059524Y-60330959D01*
X200059524Y-60330959D02*
X200011905Y-60307149D01*
X200011905Y-60307149D02*
X199916667Y-60307149D01*
X199916667Y-60307149D02*
X199869048Y-60330959D01*
X199869048Y-60330959D02*
X199845238Y-60354768D01*
X199845238Y-60354768D02*
X199821429Y-60402387D01*
X199821429Y-60402387D02*
X199821429Y-60521435D01*
X199821429Y-60521435D02*
X199845238Y-60569054D01*
X199845238Y-60569054D02*
X199869048Y-60592863D01*
X199869048Y-60592863D02*
X199916667Y-60616673D01*
X199916667Y-60616673D02*
X200011905Y-60616673D01*
X200011905Y-60616673D02*
X200059524Y-60592863D01*
X200059524Y-60592863D02*
X200083333Y-60569054D01*
X200083333Y-60569054D02*
X200107143Y-60521435D01*
X201119048Y-58307149D02*
X201404762Y-58307149D01*
X201261905Y-58807149D02*
X201261905Y-58307149D01*
X201523809Y-58307149D02*
X201857142Y-58807149D01*
X201857142Y-58307149D02*
X201523809Y-58807149D01*
X200880953Y-60307149D02*
X201190477Y-60307149D01*
X201190477Y-60307149D02*
X201023810Y-60497625D01*
X201023810Y-60497625D02*
X201095239Y-60497625D01*
X201095239Y-60497625D02*
X201142858Y-60521435D01*
X201142858Y-60521435D02*
X201166667Y-60545244D01*
X201166667Y-60545244D02*
X201190477Y-60592863D01*
X201190477Y-60592863D02*
X201190477Y-60711911D01*
X201190477Y-60711911D02*
X201166667Y-60759530D01*
X201166667Y-60759530D02*
X201142858Y-60783340D01*
X201142858Y-60783340D02*
X201095239Y-60807149D01*
X201095239Y-60807149D02*
X200952382Y-60807149D01*
X200952382Y-60807149D02*
X200904763Y-60783340D01*
X200904763Y-60783340D02*
X200880953Y-60759530D01*
X201333334Y-60307149D02*
X201500000Y-60807149D01*
X201500000Y-60807149D02*
X201666667Y-60307149D01*
X201785714Y-60307149D02*
X202095238Y-60307149D01*
X202095238Y-60307149D02*
X201928571Y-60497625D01*
X201928571Y-60497625D02*
X202000000Y-60497625D01*
X202000000Y-60497625D02*
X202047619Y-60521435D01*
X202047619Y-60521435D02*
X202071428Y-60545244D01*
X202071428Y-60545244D02*
X202095238Y-60592863D01*
X202095238Y-60592863D02*
X202095238Y-60711911D01*
X202095238Y-60711911D02*
X202071428Y-60759530D01*
X202071428Y-60759530D02*
X202047619Y-60783340D01*
X202047619Y-60783340D02*
X202000000Y-60807149D01*
X202000000Y-60807149D02*
X201857143Y-60807149D01*
X201857143Y-60807149D02*
X201809524Y-60783340D01*
X201809524Y-60783340D02*
X201785714Y-60759530D01*
X203416666Y-58807149D02*
X203250000Y-58569054D01*
X203130952Y-58807149D02*
X203130952Y-58307149D01*
X203130952Y-58307149D02*
X203321428Y-58307149D01*
X203321428Y-58307149D02*
X203369047Y-58330959D01*
X203369047Y-58330959D02*
X203392857Y-58354768D01*
X203392857Y-58354768D02*
X203416666Y-58402387D01*
X203416666Y-58402387D02*
X203416666Y-58473816D01*
X203416666Y-58473816D02*
X203392857Y-58521435D01*
X203392857Y-58521435D02*
X203369047Y-58545244D01*
X203369047Y-58545244D02*
X203321428Y-58569054D01*
X203321428Y-58569054D02*
X203130952Y-58569054D01*
X203583333Y-58307149D02*
X203916666Y-58807149D01*
X203916666Y-58307149D02*
X203583333Y-58807149D01*
X203404762Y-60307149D02*
X203166667Y-60307149D01*
X203166667Y-60307149D02*
X203142858Y-60545244D01*
X203142858Y-60545244D02*
X203166667Y-60521435D01*
X203166667Y-60521435D02*
X203214286Y-60497625D01*
X203214286Y-60497625D02*
X203333334Y-60497625D01*
X203333334Y-60497625D02*
X203380953Y-60521435D01*
X203380953Y-60521435D02*
X203404762Y-60545244D01*
X203404762Y-60545244D02*
X203428572Y-60592863D01*
X203428572Y-60592863D02*
X203428572Y-60711911D01*
X203428572Y-60711911D02*
X203404762Y-60759530D01*
X203404762Y-60759530D02*
X203380953Y-60783340D01*
X203380953Y-60783340D02*
X203333334Y-60807149D01*
X203333334Y-60807149D02*
X203214286Y-60807149D01*
X203214286Y-60807149D02*
X203166667Y-60783340D01*
X203166667Y-60783340D02*
X203142858Y-60759530D01*
X203571429Y-60307149D02*
X203738095Y-60807149D01*
X203738095Y-60807149D02*
X203904762Y-60307149D01*
D11*
X165142857Y-123431009D02*
X165476190Y-123431009D01*
X165619047Y-123954819D02*
X165142857Y-123954819D01*
X165142857Y-123954819D02*
X165142857Y-122954819D01*
X165142857Y-122954819D02*
X165619047Y-122954819D01*
X166000000Y-123907200D02*
X166142857Y-123954819D01*
X166142857Y-123954819D02*
X166380952Y-123954819D01*
X166380952Y-123954819D02*
X166476190Y-123907200D01*
X166476190Y-123907200D02*
X166523809Y-123859580D01*
X166523809Y-123859580D02*
X166571428Y-123764342D01*
X166571428Y-123764342D02*
X166571428Y-123669104D01*
X166571428Y-123669104D02*
X166523809Y-123573866D01*
X166523809Y-123573866D02*
X166476190Y-123526247D01*
X166476190Y-123526247D02*
X166380952Y-123478628D01*
X166380952Y-123478628D02*
X166190476Y-123431009D01*
X166190476Y-123431009D02*
X166095238Y-123383390D01*
X166095238Y-123383390D02*
X166047619Y-123335771D01*
X166047619Y-123335771D02*
X166000000Y-123240533D01*
X166000000Y-123240533D02*
X166000000Y-123145295D01*
X166000000Y-123145295D02*
X166047619Y-123050057D01*
X166047619Y-123050057D02*
X166095238Y-123002438D01*
X166095238Y-123002438D02*
X166190476Y-122954819D01*
X166190476Y-122954819D02*
X166428571Y-122954819D01*
X166428571Y-122954819D02*
X166571428Y-123002438D01*
X167000000Y-123954819D02*
X167000000Y-122954819D01*
X167000000Y-122954819D02*
X167380952Y-122954819D01*
X167380952Y-122954819D02*
X167476190Y-123002438D01*
X167476190Y-123002438D02*
X167523809Y-123050057D01*
X167523809Y-123050057D02*
X167571428Y-123145295D01*
X167571428Y-123145295D02*
X167571428Y-123288152D01*
X167571428Y-123288152D02*
X167523809Y-123383390D01*
X167523809Y-123383390D02*
X167476190Y-123431009D01*
X167476190Y-123431009D02*
X167380952Y-123478628D01*
X167380952Y-123478628D02*
X167000000Y-123478628D01*
X167904762Y-122954819D02*
X168523809Y-122954819D01*
X168523809Y-122954819D02*
X168190476Y-123335771D01*
X168190476Y-123335771D02*
X168333333Y-123335771D01*
X168333333Y-123335771D02*
X168428571Y-123383390D01*
X168428571Y-123383390D02*
X168476190Y-123431009D01*
X168476190Y-123431009D02*
X168523809Y-123526247D01*
X168523809Y-123526247D02*
X168523809Y-123764342D01*
X168523809Y-123764342D02*
X168476190Y-123859580D01*
X168476190Y-123859580D02*
X168428571Y-123907200D01*
X168428571Y-123907200D02*
X168333333Y-123954819D01*
X168333333Y-123954819D02*
X168047619Y-123954819D01*
X168047619Y-123954819D02*
X167952381Y-123907200D01*
X167952381Y-123907200D02*
X167904762Y-123859580D01*
X168904762Y-123050057D02*
X168952381Y-123002438D01*
X168952381Y-123002438D02*
X169047619Y-122954819D01*
X169047619Y-122954819D02*
X169285714Y-122954819D01*
X169285714Y-122954819D02*
X169380952Y-123002438D01*
X169380952Y-123002438D02*
X169428571Y-123050057D01*
X169428571Y-123050057D02*
X169476190Y-123145295D01*
X169476190Y-123145295D02*
X169476190Y-123240533D01*
X169476190Y-123240533D02*
X169428571Y-123383390D01*
X169428571Y-123383390D02*
X168857143Y-123954819D01*
X168857143Y-123954819D02*
X169476190Y-123954819D01*
X169666667Y-124050057D02*
X170428571Y-124050057D01*
X171238095Y-123859580D02*
X171190476Y-123907200D01*
X171190476Y-123907200D02*
X171047619Y-123954819D01*
X171047619Y-123954819D02*
X170952381Y-123954819D01*
X170952381Y-123954819D02*
X170809524Y-123907200D01*
X170809524Y-123907200D02*
X170714286Y-123811961D01*
X170714286Y-123811961D02*
X170666667Y-123716723D01*
X170666667Y-123716723D02*
X170619048Y-123526247D01*
X170619048Y-123526247D02*
X170619048Y-123383390D01*
X170619048Y-123383390D02*
X170666667Y-123192914D01*
X170666667Y-123192914D02*
X170714286Y-123097676D01*
X170714286Y-123097676D02*
X170809524Y-123002438D01*
X170809524Y-123002438D02*
X170952381Y-122954819D01*
X170952381Y-122954819D02*
X171047619Y-122954819D01*
X171047619Y-122954819D02*
X171190476Y-123002438D01*
X171190476Y-123002438D02*
X171238095Y-123050057D01*
X172095238Y-122954819D02*
X171904762Y-122954819D01*
X171904762Y-122954819D02*
X171809524Y-123002438D01*
X171809524Y-123002438D02*
X171761905Y-123050057D01*
X171761905Y-123050057D02*
X171666667Y-123192914D01*
X171666667Y-123192914D02*
X171619048Y-123383390D01*
X171619048Y-123383390D02*
X171619048Y-123764342D01*
X171619048Y-123764342D02*
X171666667Y-123859580D01*
X171666667Y-123859580D02*
X171714286Y-123907200D01*
X171714286Y-123907200D02*
X171809524Y-123954819D01*
X171809524Y-123954819D02*
X172000000Y-123954819D01*
X172000000Y-123954819D02*
X172095238Y-123907200D01*
X172095238Y-123907200D02*
X172142857Y-123859580D01*
X172142857Y-123859580D02*
X172190476Y-123764342D01*
X172190476Y-123764342D02*
X172190476Y-123526247D01*
X172190476Y-123526247D02*
X172142857Y-123431009D01*
X172142857Y-123431009D02*
X172095238Y-123383390D01*
X172095238Y-123383390D02*
X172000000Y-123335771D01*
X172000000Y-123335771D02*
X171809524Y-123335771D01*
X171809524Y-123335771D02*
X171714286Y-123383390D01*
X171714286Y-123383390D02*
X171666667Y-123431009D01*
X171666667Y-123431009D02*
X171619048Y-123526247D01*
X172380953Y-124050057D02*
X173142857Y-124050057D01*
X173380953Y-123954819D02*
X173380953Y-122954819D01*
X173380953Y-122954819D02*
X173619048Y-122954819D01*
X173619048Y-122954819D02*
X173761905Y-123002438D01*
X173761905Y-123002438D02*
X173857143Y-123097676D01*
X173857143Y-123097676D02*
X173904762Y-123192914D01*
X173904762Y-123192914D02*
X173952381Y-123383390D01*
X173952381Y-123383390D02*
X173952381Y-123526247D01*
X173952381Y-123526247D02*
X173904762Y-123716723D01*
X173904762Y-123716723D02*
X173857143Y-123811961D01*
X173857143Y-123811961D02*
X173761905Y-123907200D01*
X173761905Y-123907200D02*
X173619048Y-123954819D01*
X173619048Y-123954819D02*
X173380953Y-123954819D01*
X174380953Y-123431009D02*
X174714286Y-123431009D01*
X174857143Y-123954819D02*
X174380953Y-123954819D01*
X174380953Y-123954819D02*
X174380953Y-122954819D01*
X174380953Y-122954819D02*
X174857143Y-122954819D01*
X175142858Y-122954819D02*
X175476191Y-123954819D01*
X175476191Y-123954819D02*
X175809524Y-122954819D01*
X176142858Y-123954819D02*
X176142858Y-122954819D01*
X176714286Y-123954819D02*
X176285715Y-123383390D01*
X176714286Y-122954819D02*
X176142858Y-123526247D01*
X177142858Y-123954819D02*
X177142858Y-122954819D01*
X177476191Y-122954819D02*
X178047619Y-122954819D01*
X177761905Y-123954819D02*
X177761905Y-122954819D01*
X178952381Y-123859580D02*
X178904762Y-123907200D01*
X178904762Y-123907200D02*
X178761905Y-123954819D01*
X178761905Y-123954819D02*
X178666667Y-123954819D01*
X178666667Y-123954819D02*
X178523810Y-123907200D01*
X178523810Y-123907200D02*
X178428572Y-123811961D01*
X178428572Y-123811961D02*
X178380953Y-123716723D01*
X178380953Y-123716723D02*
X178333334Y-123526247D01*
X178333334Y-123526247D02*
X178333334Y-123383390D01*
X178333334Y-123383390D02*
X178380953Y-123192914D01*
X178380953Y-123192914D02*
X178428572Y-123097676D01*
X178428572Y-123097676D02*
X178523810Y-123002438D01*
X178523810Y-123002438D02*
X178666667Y-122954819D01*
X178666667Y-122954819D02*
X178761905Y-122954819D01*
X178761905Y-122954819D02*
X178904762Y-123002438D01*
X178904762Y-123002438D02*
X178952381Y-123050057D01*
X179904762Y-123954819D02*
X179333334Y-123954819D01*
X179619048Y-123954819D02*
X179619048Y-122954819D01*
X179619048Y-122954819D02*
X179523810Y-123097676D01*
X179523810Y-123097676D02*
X179428572Y-123192914D01*
X179428572Y-123192914D02*
X179333334Y-123240533D01*
D13*
X163810953Y-68227149D02*
X164120477Y-68227149D01*
X164120477Y-68227149D02*
X163953810Y-68417625D01*
X163953810Y-68417625D02*
X164025239Y-68417625D01*
X164025239Y-68417625D02*
X164072858Y-68441435D01*
X164072858Y-68441435D02*
X164096667Y-68465244D01*
X164096667Y-68465244D02*
X164120477Y-68512863D01*
X164120477Y-68512863D02*
X164120477Y-68631911D01*
X164120477Y-68631911D02*
X164096667Y-68679530D01*
X164096667Y-68679530D02*
X164072858Y-68703340D01*
X164072858Y-68703340D02*
X164025239Y-68727149D01*
X164025239Y-68727149D02*
X163882382Y-68727149D01*
X163882382Y-68727149D02*
X163834763Y-68703340D01*
X163834763Y-68703340D02*
X163810953Y-68679530D01*
X164263334Y-68227149D02*
X164430000Y-68727149D01*
X164430000Y-68727149D02*
X164596667Y-68227149D01*
X164715714Y-68227149D02*
X165025238Y-68227149D01*
X165025238Y-68227149D02*
X164858571Y-68417625D01*
X164858571Y-68417625D02*
X164930000Y-68417625D01*
X164930000Y-68417625D02*
X164977619Y-68441435D01*
X164977619Y-68441435D02*
X165001428Y-68465244D01*
X165001428Y-68465244D02*
X165025238Y-68512863D01*
X165025238Y-68512863D02*
X165025238Y-68631911D01*
X165025238Y-68631911D02*
X165001428Y-68679530D01*
X165001428Y-68679530D02*
X164977619Y-68703340D01*
X164977619Y-68703340D02*
X164930000Y-68727149D01*
X164930000Y-68727149D02*
X164787143Y-68727149D01*
X164787143Y-68727149D02*
X164739524Y-68703340D01*
X164739524Y-68703340D02*
X164715714Y-68679530D01*
X164156190Y-71267149D02*
X163989524Y-71029054D01*
X163870476Y-71267149D02*
X163870476Y-70767149D01*
X163870476Y-70767149D02*
X164060952Y-70767149D01*
X164060952Y-70767149D02*
X164108571Y-70790959D01*
X164108571Y-70790959D02*
X164132381Y-70814768D01*
X164132381Y-70814768D02*
X164156190Y-70862387D01*
X164156190Y-70862387D02*
X164156190Y-70933816D01*
X164156190Y-70933816D02*
X164132381Y-70981435D01*
X164132381Y-70981435D02*
X164108571Y-71005244D01*
X164108571Y-71005244D02*
X164060952Y-71029054D01*
X164060952Y-71029054D02*
X163870476Y-71029054D01*
X164346667Y-71243340D02*
X164418095Y-71267149D01*
X164418095Y-71267149D02*
X164537143Y-71267149D01*
X164537143Y-71267149D02*
X164584762Y-71243340D01*
X164584762Y-71243340D02*
X164608571Y-71219530D01*
X164608571Y-71219530D02*
X164632381Y-71171911D01*
X164632381Y-71171911D02*
X164632381Y-71124292D01*
X164632381Y-71124292D02*
X164608571Y-71076673D01*
X164608571Y-71076673D02*
X164584762Y-71052863D01*
X164584762Y-71052863D02*
X164537143Y-71029054D01*
X164537143Y-71029054D02*
X164441905Y-71005244D01*
X164441905Y-71005244D02*
X164394286Y-70981435D01*
X164394286Y-70981435D02*
X164370476Y-70957625D01*
X164370476Y-70957625D02*
X164346667Y-70910006D01*
X164346667Y-70910006D02*
X164346667Y-70862387D01*
X164346667Y-70862387D02*
X164370476Y-70814768D01*
X164370476Y-70814768D02*
X164394286Y-70790959D01*
X164394286Y-70790959D02*
X164441905Y-70767149D01*
X164441905Y-70767149D02*
X164560952Y-70767149D01*
X164560952Y-70767149D02*
X164632381Y-70790959D01*
X164775238Y-70767149D02*
X165060952Y-70767149D01*
X164918095Y-71267149D02*
X164918095Y-70767149D01*
X163691905Y-73330959D02*
X163644286Y-73307149D01*
X163644286Y-73307149D02*
X163572857Y-73307149D01*
X163572857Y-73307149D02*
X163501429Y-73330959D01*
X163501429Y-73330959D02*
X163453810Y-73378578D01*
X163453810Y-73378578D02*
X163430000Y-73426197D01*
X163430000Y-73426197D02*
X163406191Y-73521435D01*
X163406191Y-73521435D02*
X163406191Y-73592863D01*
X163406191Y-73592863D02*
X163430000Y-73688101D01*
X163430000Y-73688101D02*
X163453810Y-73735720D01*
X163453810Y-73735720D02*
X163501429Y-73783340D01*
X163501429Y-73783340D02*
X163572857Y-73807149D01*
X163572857Y-73807149D02*
X163620476Y-73807149D01*
X163620476Y-73807149D02*
X163691905Y-73783340D01*
X163691905Y-73783340D02*
X163715714Y-73759530D01*
X163715714Y-73759530D02*
X163715714Y-73592863D01*
X163715714Y-73592863D02*
X163620476Y-73592863D01*
X163930000Y-73807149D02*
X163930000Y-73307149D01*
X163930000Y-73307149D02*
X164120476Y-73307149D01*
X164120476Y-73307149D02*
X164168095Y-73330959D01*
X164168095Y-73330959D02*
X164191905Y-73354768D01*
X164191905Y-73354768D02*
X164215714Y-73402387D01*
X164215714Y-73402387D02*
X164215714Y-73473816D01*
X164215714Y-73473816D02*
X164191905Y-73521435D01*
X164191905Y-73521435D02*
X164168095Y-73545244D01*
X164168095Y-73545244D02*
X164120476Y-73569054D01*
X164120476Y-73569054D02*
X163930000Y-73569054D01*
X164430000Y-73807149D02*
X164430000Y-73307149D01*
X164763333Y-73307149D02*
X164858571Y-73307149D01*
X164858571Y-73307149D02*
X164906190Y-73330959D01*
X164906190Y-73330959D02*
X164953809Y-73378578D01*
X164953809Y-73378578D02*
X164977619Y-73473816D01*
X164977619Y-73473816D02*
X164977619Y-73640482D01*
X164977619Y-73640482D02*
X164953809Y-73735720D01*
X164953809Y-73735720D02*
X164906190Y-73783340D01*
X164906190Y-73783340D02*
X164858571Y-73807149D01*
X164858571Y-73807149D02*
X164763333Y-73807149D01*
X164763333Y-73807149D02*
X164715714Y-73783340D01*
X164715714Y-73783340D02*
X164668095Y-73735720D01*
X164668095Y-73735720D02*
X164644286Y-73640482D01*
X164644286Y-73640482D02*
X164644286Y-73473816D01*
X164644286Y-73473816D02*
X164668095Y-73378578D01*
X164668095Y-73378578D02*
X164715714Y-73330959D01*
X164715714Y-73330959D02*
X164763333Y-73307149D01*
X165406191Y-73473816D02*
X165406191Y-73807149D01*
X165287143Y-73283340D02*
X165168096Y-73640482D01*
X165168096Y-73640482D02*
X165477619Y-73640482D01*
X163691905Y-75870959D02*
X163644286Y-75847149D01*
X163644286Y-75847149D02*
X163572857Y-75847149D01*
X163572857Y-75847149D02*
X163501429Y-75870959D01*
X163501429Y-75870959D02*
X163453810Y-75918578D01*
X163453810Y-75918578D02*
X163430000Y-75966197D01*
X163430000Y-75966197D02*
X163406191Y-76061435D01*
X163406191Y-76061435D02*
X163406191Y-76132863D01*
X163406191Y-76132863D02*
X163430000Y-76228101D01*
X163430000Y-76228101D02*
X163453810Y-76275720D01*
X163453810Y-76275720D02*
X163501429Y-76323340D01*
X163501429Y-76323340D02*
X163572857Y-76347149D01*
X163572857Y-76347149D02*
X163620476Y-76347149D01*
X163620476Y-76347149D02*
X163691905Y-76323340D01*
X163691905Y-76323340D02*
X163715714Y-76299530D01*
X163715714Y-76299530D02*
X163715714Y-76132863D01*
X163715714Y-76132863D02*
X163620476Y-76132863D01*
X163930000Y-76347149D02*
X163930000Y-75847149D01*
X163930000Y-75847149D02*
X164120476Y-75847149D01*
X164120476Y-75847149D02*
X164168095Y-75870959D01*
X164168095Y-75870959D02*
X164191905Y-75894768D01*
X164191905Y-75894768D02*
X164215714Y-75942387D01*
X164215714Y-75942387D02*
X164215714Y-76013816D01*
X164215714Y-76013816D02*
X164191905Y-76061435D01*
X164191905Y-76061435D02*
X164168095Y-76085244D01*
X164168095Y-76085244D02*
X164120476Y-76109054D01*
X164120476Y-76109054D02*
X163930000Y-76109054D01*
X164430000Y-76347149D02*
X164430000Y-75847149D01*
X164763333Y-75847149D02*
X164858571Y-75847149D01*
X164858571Y-75847149D02*
X164906190Y-75870959D01*
X164906190Y-75870959D02*
X164953809Y-75918578D01*
X164953809Y-75918578D02*
X164977619Y-76013816D01*
X164977619Y-76013816D02*
X164977619Y-76180482D01*
X164977619Y-76180482D02*
X164953809Y-76275720D01*
X164953809Y-76275720D02*
X164906190Y-76323340D01*
X164906190Y-76323340D02*
X164858571Y-76347149D01*
X164858571Y-76347149D02*
X164763333Y-76347149D01*
X164763333Y-76347149D02*
X164715714Y-76323340D01*
X164715714Y-76323340D02*
X164668095Y-76275720D01*
X164668095Y-76275720D02*
X164644286Y-76180482D01*
X164644286Y-76180482D02*
X164644286Y-76013816D01*
X164644286Y-76013816D02*
X164668095Y-75918578D01*
X164668095Y-75918578D02*
X164715714Y-75870959D01*
X164715714Y-75870959D02*
X164763333Y-75847149D01*
X165430000Y-75847149D02*
X165191905Y-75847149D01*
X165191905Y-75847149D02*
X165168096Y-76085244D01*
X165168096Y-76085244D02*
X165191905Y-76061435D01*
X165191905Y-76061435D02*
X165239524Y-76037625D01*
X165239524Y-76037625D02*
X165358572Y-76037625D01*
X165358572Y-76037625D02*
X165406191Y-76061435D01*
X165406191Y-76061435D02*
X165430000Y-76085244D01*
X165430000Y-76085244D02*
X165453810Y-76132863D01*
X165453810Y-76132863D02*
X165453810Y-76251911D01*
X165453810Y-76251911D02*
X165430000Y-76299530D01*
X165430000Y-76299530D02*
X165406191Y-76323340D01*
X165406191Y-76323340D02*
X165358572Y-76347149D01*
X165358572Y-76347149D02*
X165239524Y-76347149D01*
X165239524Y-76347149D02*
X165191905Y-76323340D01*
X165191905Y-76323340D02*
X165168096Y-76299530D01*
X163691905Y-78410959D02*
X163644286Y-78387149D01*
X163644286Y-78387149D02*
X163572857Y-78387149D01*
X163572857Y-78387149D02*
X163501429Y-78410959D01*
X163501429Y-78410959D02*
X163453810Y-78458578D01*
X163453810Y-78458578D02*
X163430000Y-78506197D01*
X163430000Y-78506197D02*
X163406191Y-78601435D01*
X163406191Y-78601435D02*
X163406191Y-78672863D01*
X163406191Y-78672863D02*
X163430000Y-78768101D01*
X163430000Y-78768101D02*
X163453810Y-78815720D01*
X163453810Y-78815720D02*
X163501429Y-78863340D01*
X163501429Y-78863340D02*
X163572857Y-78887149D01*
X163572857Y-78887149D02*
X163620476Y-78887149D01*
X163620476Y-78887149D02*
X163691905Y-78863340D01*
X163691905Y-78863340D02*
X163715714Y-78839530D01*
X163715714Y-78839530D02*
X163715714Y-78672863D01*
X163715714Y-78672863D02*
X163620476Y-78672863D01*
X163930000Y-78887149D02*
X163930000Y-78387149D01*
X163930000Y-78387149D02*
X164120476Y-78387149D01*
X164120476Y-78387149D02*
X164168095Y-78410959D01*
X164168095Y-78410959D02*
X164191905Y-78434768D01*
X164191905Y-78434768D02*
X164215714Y-78482387D01*
X164215714Y-78482387D02*
X164215714Y-78553816D01*
X164215714Y-78553816D02*
X164191905Y-78601435D01*
X164191905Y-78601435D02*
X164168095Y-78625244D01*
X164168095Y-78625244D02*
X164120476Y-78649054D01*
X164120476Y-78649054D02*
X163930000Y-78649054D01*
X164430000Y-78887149D02*
X164430000Y-78387149D01*
X164763333Y-78387149D02*
X164858571Y-78387149D01*
X164858571Y-78387149D02*
X164906190Y-78410959D01*
X164906190Y-78410959D02*
X164953809Y-78458578D01*
X164953809Y-78458578D02*
X164977619Y-78553816D01*
X164977619Y-78553816D02*
X164977619Y-78720482D01*
X164977619Y-78720482D02*
X164953809Y-78815720D01*
X164953809Y-78815720D02*
X164906190Y-78863340D01*
X164906190Y-78863340D02*
X164858571Y-78887149D01*
X164858571Y-78887149D02*
X164763333Y-78887149D01*
X164763333Y-78887149D02*
X164715714Y-78863340D01*
X164715714Y-78863340D02*
X164668095Y-78815720D01*
X164668095Y-78815720D02*
X164644286Y-78720482D01*
X164644286Y-78720482D02*
X164644286Y-78553816D01*
X164644286Y-78553816D02*
X164668095Y-78458578D01*
X164668095Y-78458578D02*
X164715714Y-78410959D01*
X164715714Y-78410959D02*
X164763333Y-78387149D01*
X165406191Y-78387149D02*
X165310953Y-78387149D01*
X165310953Y-78387149D02*
X165263334Y-78410959D01*
X165263334Y-78410959D02*
X165239524Y-78434768D01*
X165239524Y-78434768D02*
X165191905Y-78506197D01*
X165191905Y-78506197D02*
X165168096Y-78601435D01*
X165168096Y-78601435D02*
X165168096Y-78791911D01*
X165168096Y-78791911D02*
X165191905Y-78839530D01*
X165191905Y-78839530D02*
X165215715Y-78863340D01*
X165215715Y-78863340D02*
X165263334Y-78887149D01*
X165263334Y-78887149D02*
X165358572Y-78887149D01*
X165358572Y-78887149D02*
X165406191Y-78863340D01*
X165406191Y-78863340D02*
X165430000Y-78839530D01*
X165430000Y-78839530D02*
X165453810Y-78791911D01*
X165453810Y-78791911D02*
X165453810Y-78672863D01*
X165453810Y-78672863D02*
X165430000Y-78625244D01*
X165430000Y-78625244D02*
X165406191Y-78601435D01*
X165406191Y-78601435D02*
X165358572Y-78577625D01*
X165358572Y-78577625D02*
X165263334Y-78577625D01*
X165263334Y-78577625D02*
X165215715Y-78601435D01*
X165215715Y-78601435D02*
X165191905Y-78625244D01*
X165191905Y-78625244D02*
X165168096Y-78672863D01*
X163691905Y-80950959D02*
X163644286Y-80927149D01*
X163644286Y-80927149D02*
X163572857Y-80927149D01*
X163572857Y-80927149D02*
X163501429Y-80950959D01*
X163501429Y-80950959D02*
X163453810Y-80998578D01*
X163453810Y-80998578D02*
X163430000Y-81046197D01*
X163430000Y-81046197D02*
X163406191Y-81141435D01*
X163406191Y-81141435D02*
X163406191Y-81212863D01*
X163406191Y-81212863D02*
X163430000Y-81308101D01*
X163430000Y-81308101D02*
X163453810Y-81355720D01*
X163453810Y-81355720D02*
X163501429Y-81403340D01*
X163501429Y-81403340D02*
X163572857Y-81427149D01*
X163572857Y-81427149D02*
X163620476Y-81427149D01*
X163620476Y-81427149D02*
X163691905Y-81403340D01*
X163691905Y-81403340D02*
X163715714Y-81379530D01*
X163715714Y-81379530D02*
X163715714Y-81212863D01*
X163715714Y-81212863D02*
X163620476Y-81212863D01*
X163930000Y-81427149D02*
X163930000Y-80927149D01*
X163930000Y-80927149D02*
X164120476Y-80927149D01*
X164120476Y-80927149D02*
X164168095Y-80950959D01*
X164168095Y-80950959D02*
X164191905Y-80974768D01*
X164191905Y-80974768D02*
X164215714Y-81022387D01*
X164215714Y-81022387D02*
X164215714Y-81093816D01*
X164215714Y-81093816D02*
X164191905Y-81141435D01*
X164191905Y-81141435D02*
X164168095Y-81165244D01*
X164168095Y-81165244D02*
X164120476Y-81189054D01*
X164120476Y-81189054D02*
X163930000Y-81189054D01*
X164430000Y-81427149D02*
X164430000Y-80927149D01*
X164763333Y-80927149D02*
X164858571Y-80927149D01*
X164858571Y-80927149D02*
X164906190Y-80950959D01*
X164906190Y-80950959D02*
X164953809Y-80998578D01*
X164953809Y-80998578D02*
X164977619Y-81093816D01*
X164977619Y-81093816D02*
X164977619Y-81260482D01*
X164977619Y-81260482D02*
X164953809Y-81355720D01*
X164953809Y-81355720D02*
X164906190Y-81403340D01*
X164906190Y-81403340D02*
X164858571Y-81427149D01*
X164858571Y-81427149D02*
X164763333Y-81427149D01*
X164763333Y-81427149D02*
X164715714Y-81403340D01*
X164715714Y-81403340D02*
X164668095Y-81355720D01*
X164668095Y-81355720D02*
X164644286Y-81260482D01*
X164644286Y-81260482D02*
X164644286Y-81093816D01*
X164644286Y-81093816D02*
X164668095Y-80998578D01*
X164668095Y-80998578D02*
X164715714Y-80950959D01*
X164715714Y-80950959D02*
X164763333Y-80927149D01*
X165144286Y-80927149D02*
X165477619Y-80927149D01*
X165477619Y-80927149D02*
X165263334Y-81427149D01*
X163691905Y-83490959D02*
X163644286Y-83467149D01*
X163644286Y-83467149D02*
X163572857Y-83467149D01*
X163572857Y-83467149D02*
X163501429Y-83490959D01*
X163501429Y-83490959D02*
X163453810Y-83538578D01*
X163453810Y-83538578D02*
X163430000Y-83586197D01*
X163430000Y-83586197D02*
X163406191Y-83681435D01*
X163406191Y-83681435D02*
X163406191Y-83752863D01*
X163406191Y-83752863D02*
X163430000Y-83848101D01*
X163430000Y-83848101D02*
X163453810Y-83895720D01*
X163453810Y-83895720D02*
X163501429Y-83943340D01*
X163501429Y-83943340D02*
X163572857Y-83967149D01*
X163572857Y-83967149D02*
X163620476Y-83967149D01*
X163620476Y-83967149D02*
X163691905Y-83943340D01*
X163691905Y-83943340D02*
X163715714Y-83919530D01*
X163715714Y-83919530D02*
X163715714Y-83752863D01*
X163715714Y-83752863D02*
X163620476Y-83752863D01*
X163930000Y-83967149D02*
X163930000Y-83467149D01*
X163930000Y-83467149D02*
X164120476Y-83467149D01*
X164120476Y-83467149D02*
X164168095Y-83490959D01*
X164168095Y-83490959D02*
X164191905Y-83514768D01*
X164191905Y-83514768D02*
X164215714Y-83562387D01*
X164215714Y-83562387D02*
X164215714Y-83633816D01*
X164215714Y-83633816D02*
X164191905Y-83681435D01*
X164191905Y-83681435D02*
X164168095Y-83705244D01*
X164168095Y-83705244D02*
X164120476Y-83729054D01*
X164120476Y-83729054D02*
X163930000Y-83729054D01*
X164430000Y-83967149D02*
X164430000Y-83467149D01*
X164763333Y-83467149D02*
X164858571Y-83467149D01*
X164858571Y-83467149D02*
X164906190Y-83490959D01*
X164906190Y-83490959D02*
X164953809Y-83538578D01*
X164953809Y-83538578D02*
X164977619Y-83633816D01*
X164977619Y-83633816D02*
X164977619Y-83800482D01*
X164977619Y-83800482D02*
X164953809Y-83895720D01*
X164953809Y-83895720D02*
X164906190Y-83943340D01*
X164906190Y-83943340D02*
X164858571Y-83967149D01*
X164858571Y-83967149D02*
X164763333Y-83967149D01*
X164763333Y-83967149D02*
X164715714Y-83943340D01*
X164715714Y-83943340D02*
X164668095Y-83895720D01*
X164668095Y-83895720D02*
X164644286Y-83800482D01*
X164644286Y-83800482D02*
X164644286Y-83633816D01*
X164644286Y-83633816D02*
X164668095Y-83538578D01*
X164668095Y-83538578D02*
X164715714Y-83490959D01*
X164715714Y-83490959D02*
X164763333Y-83467149D01*
X165287143Y-83467149D02*
X165334762Y-83467149D01*
X165334762Y-83467149D02*
X165382381Y-83490959D01*
X165382381Y-83490959D02*
X165406191Y-83514768D01*
X165406191Y-83514768D02*
X165430000Y-83562387D01*
X165430000Y-83562387D02*
X165453810Y-83657625D01*
X165453810Y-83657625D02*
X165453810Y-83776673D01*
X165453810Y-83776673D02*
X165430000Y-83871911D01*
X165430000Y-83871911D02*
X165406191Y-83919530D01*
X165406191Y-83919530D02*
X165382381Y-83943340D01*
X165382381Y-83943340D02*
X165334762Y-83967149D01*
X165334762Y-83967149D02*
X165287143Y-83967149D01*
X165287143Y-83967149D02*
X165239524Y-83943340D01*
X165239524Y-83943340D02*
X165215715Y-83919530D01*
X165215715Y-83919530D02*
X165191905Y-83871911D01*
X165191905Y-83871911D02*
X165168096Y-83776673D01*
X165168096Y-83776673D02*
X165168096Y-83657625D01*
X165168096Y-83657625D02*
X165191905Y-83562387D01*
X165191905Y-83562387D02*
X165215715Y-83514768D01*
X165215715Y-83514768D02*
X165239524Y-83490959D01*
X165239524Y-83490959D02*
X165287143Y-83467149D01*
X163691905Y-86030959D02*
X163644286Y-86007149D01*
X163644286Y-86007149D02*
X163572857Y-86007149D01*
X163572857Y-86007149D02*
X163501429Y-86030959D01*
X163501429Y-86030959D02*
X163453810Y-86078578D01*
X163453810Y-86078578D02*
X163430000Y-86126197D01*
X163430000Y-86126197D02*
X163406191Y-86221435D01*
X163406191Y-86221435D02*
X163406191Y-86292863D01*
X163406191Y-86292863D02*
X163430000Y-86388101D01*
X163430000Y-86388101D02*
X163453810Y-86435720D01*
X163453810Y-86435720D02*
X163501429Y-86483340D01*
X163501429Y-86483340D02*
X163572857Y-86507149D01*
X163572857Y-86507149D02*
X163620476Y-86507149D01*
X163620476Y-86507149D02*
X163691905Y-86483340D01*
X163691905Y-86483340D02*
X163715714Y-86459530D01*
X163715714Y-86459530D02*
X163715714Y-86292863D01*
X163715714Y-86292863D02*
X163620476Y-86292863D01*
X163930000Y-86507149D02*
X163930000Y-86007149D01*
X163930000Y-86007149D02*
X164120476Y-86007149D01*
X164120476Y-86007149D02*
X164168095Y-86030959D01*
X164168095Y-86030959D02*
X164191905Y-86054768D01*
X164191905Y-86054768D02*
X164215714Y-86102387D01*
X164215714Y-86102387D02*
X164215714Y-86173816D01*
X164215714Y-86173816D02*
X164191905Y-86221435D01*
X164191905Y-86221435D02*
X164168095Y-86245244D01*
X164168095Y-86245244D02*
X164120476Y-86269054D01*
X164120476Y-86269054D02*
X163930000Y-86269054D01*
X164430000Y-86507149D02*
X164430000Y-86007149D01*
X164763333Y-86007149D02*
X164858571Y-86007149D01*
X164858571Y-86007149D02*
X164906190Y-86030959D01*
X164906190Y-86030959D02*
X164953809Y-86078578D01*
X164953809Y-86078578D02*
X164977619Y-86173816D01*
X164977619Y-86173816D02*
X164977619Y-86340482D01*
X164977619Y-86340482D02*
X164953809Y-86435720D01*
X164953809Y-86435720D02*
X164906190Y-86483340D01*
X164906190Y-86483340D02*
X164858571Y-86507149D01*
X164858571Y-86507149D02*
X164763333Y-86507149D01*
X164763333Y-86507149D02*
X164715714Y-86483340D01*
X164715714Y-86483340D02*
X164668095Y-86435720D01*
X164668095Y-86435720D02*
X164644286Y-86340482D01*
X164644286Y-86340482D02*
X164644286Y-86173816D01*
X164644286Y-86173816D02*
X164668095Y-86078578D01*
X164668095Y-86078578D02*
X164715714Y-86030959D01*
X164715714Y-86030959D02*
X164763333Y-86007149D01*
X165453810Y-86507149D02*
X165168096Y-86507149D01*
X165310953Y-86507149D02*
X165310953Y-86007149D01*
X165310953Y-86007149D02*
X165263334Y-86078578D01*
X165263334Y-86078578D02*
X165215715Y-86126197D01*
X165215715Y-86126197D02*
X165168096Y-86150006D01*
X163691905Y-88570959D02*
X163644286Y-88547149D01*
X163644286Y-88547149D02*
X163572857Y-88547149D01*
X163572857Y-88547149D02*
X163501429Y-88570959D01*
X163501429Y-88570959D02*
X163453810Y-88618578D01*
X163453810Y-88618578D02*
X163430000Y-88666197D01*
X163430000Y-88666197D02*
X163406191Y-88761435D01*
X163406191Y-88761435D02*
X163406191Y-88832863D01*
X163406191Y-88832863D02*
X163430000Y-88928101D01*
X163430000Y-88928101D02*
X163453810Y-88975720D01*
X163453810Y-88975720D02*
X163501429Y-89023340D01*
X163501429Y-89023340D02*
X163572857Y-89047149D01*
X163572857Y-89047149D02*
X163620476Y-89047149D01*
X163620476Y-89047149D02*
X163691905Y-89023340D01*
X163691905Y-89023340D02*
X163715714Y-88999530D01*
X163715714Y-88999530D02*
X163715714Y-88832863D01*
X163715714Y-88832863D02*
X163620476Y-88832863D01*
X163930000Y-89047149D02*
X163930000Y-88547149D01*
X163930000Y-88547149D02*
X164120476Y-88547149D01*
X164120476Y-88547149D02*
X164168095Y-88570959D01*
X164168095Y-88570959D02*
X164191905Y-88594768D01*
X164191905Y-88594768D02*
X164215714Y-88642387D01*
X164215714Y-88642387D02*
X164215714Y-88713816D01*
X164215714Y-88713816D02*
X164191905Y-88761435D01*
X164191905Y-88761435D02*
X164168095Y-88785244D01*
X164168095Y-88785244D02*
X164120476Y-88809054D01*
X164120476Y-88809054D02*
X163930000Y-88809054D01*
X164430000Y-89047149D02*
X164430000Y-88547149D01*
X164763333Y-88547149D02*
X164858571Y-88547149D01*
X164858571Y-88547149D02*
X164906190Y-88570959D01*
X164906190Y-88570959D02*
X164953809Y-88618578D01*
X164953809Y-88618578D02*
X164977619Y-88713816D01*
X164977619Y-88713816D02*
X164977619Y-88880482D01*
X164977619Y-88880482D02*
X164953809Y-88975720D01*
X164953809Y-88975720D02*
X164906190Y-89023340D01*
X164906190Y-89023340D02*
X164858571Y-89047149D01*
X164858571Y-89047149D02*
X164763333Y-89047149D01*
X164763333Y-89047149D02*
X164715714Y-89023340D01*
X164715714Y-89023340D02*
X164668095Y-88975720D01*
X164668095Y-88975720D02*
X164644286Y-88880482D01*
X164644286Y-88880482D02*
X164644286Y-88713816D01*
X164644286Y-88713816D02*
X164668095Y-88618578D01*
X164668095Y-88618578D02*
X164715714Y-88570959D01*
X164715714Y-88570959D02*
X164763333Y-88547149D01*
X165263334Y-88761435D02*
X165215715Y-88737625D01*
X165215715Y-88737625D02*
X165191905Y-88713816D01*
X165191905Y-88713816D02*
X165168096Y-88666197D01*
X165168096Y-88666197D02*
X165168096Y-88642387D01*
X165168096Y-88642387D02*
X165191905Y-88594768D01*
X165191905Y-88594768D02*
X165215715Y-88570959D01*
X165215715Y-88570959D02*
X165263334Y-88547149D01*
X165263334Y-88547149D02*
X165358572Y-88547149D01*
X165358572Y-88547149D02*
X165406191Y-88570959D01*
X165406191Y-88570959D02*
X165430000Y-88594768D01*
X165430000Y-88594768D02*
X165453810Y-88642387D01*
X165453810Y-88642387D02*
X165453810Y-88666197D01*
X165453810Y-88666197D02*
X165430000Y-88713816D01*
X165430000Y-88713816D02*
X165406191Y-88737625D01*
X165406191Y-88737625D02*
X165358572Y-88761435D01*
X165358572Y-88761435D02*
X165263334Y-88761435D01*
X165263334Y-88761435D02*
X165215715Y-88785244D01*
X165215715Y-88785244D02*
X165191905Y-88809054D01*
X165191905Y-88809054D02*
X165168096Y-88856673D01*
X165168096Y-88856673D02*
X165168096Y-88951911D01*
X165168096Y-88951911D02*
X165191905Y-88999530D01*
X165191905Y-88999530D02*
X165215715Y-89023340D01*
X165215715Y-89023340D02*
X165263334Y-89047149D01*
X165263334Y-89047149D02*
X165358572Y-89047149D01*
X165358572Y-89047149D02*
X165406191Y-89023340D01*
X165406191Y-89023340D02*
X165430000Y-88999530D01*
X165430000Y-88999530D02*
X165453810Y-88951911D01*
X165453810Y-88951911D02*
X165453810Y-88856673D01*
X165453810Y-88856673D02*
X165430000Y-88809054D01*
X165430000Y-88809054D02*
X165406191Y-88785244D01*
X165406191Y-88785244D02*
X165358572Y-88761435D01*
X163453810Y-91110959D02*
X163406191Y-91087149D01*
X163406191Y-91087149D02*
X163334762Y-91087149D01*
X163334762Y-91087149D02*
X163263334Y-91110959D01*
X163263334Y-91110959D02*
X163215715Y-91158578D01*
X163215715Y-91158578D02*
X163191905Y-91206197D01*
X163191905Y-91206197D02*
X163168096Y-91301435D01*
X163168096Y-91301435D02*
X163168096Y-91372863D01*
X163168096Y-91372863D02*
X163191905Y-91468101D01*
X163191905Y-91468101D02*
X163215715Y-91515720D01*
X163215715Y-91515720D02*
X163263334Y-91563340D01*
X163263334Y-91563340D02*
X163334762Y-91587149D01*
X163334762Y-91587149D02*
X163382381Y-91587149D01*
X163382381Y-91587149D02*
X163453810Y-91563340D01*
X163453810Y-91563340D02*
X163477619Y-91539530D01*
X163477619Y-91539530D02*
X163477619Y-91372863D01*
X163477619Y-91372863D02*
X163382381Y-91372863D01*
X163691905Y-91587149D02*
X163691905Y-91087149D01*
X163691905Y-91087149D02*
X163882381Y-91087149D01*
X163882381Y-91087149D02*
X163930000Y-91110959D01*
X163930000Y-91110959D02*
X163953810Y-91134768D01*
X163953810Y-91134768D02*
X163977619Y-91182387D01*
X163977619Y-91182387D02*
X163977619Y-91253816D01*
X163977619Y-91253816D02*
X163953810Y-91301435D01*
X163953810Y-91301435D02*
X163930000Y-91325244D01*
X163930000Y-91325244D02*
X163882381Y-91349054D01*
X163882381Y-91349054D02*
X163691905Y-91349054D01*
X164191905Y-91587149D02*
X164191905Y-91087149D01*
X164525238Y-91087149D02*
X164620476Y-91087149D01*
X164620476Y-91087149D02*
X164668095Y-91110959D01*
X164668095Y-91110959D02*
X164715714Y-91158578D01*
X164715714Y-91158578D02*
X164739524Y-91253816D01*
X164739524Y-91253816D02*
X164739524Y-91420482D01*
X164739524Y-91420482D02*
X164715714Y-91515720D01*
X164715714Y-91515720D02*
X164668095Y-91563340D01*
X164668095Y-91563340D02*
X164620476Y-91587149D01*
X164620476Y-91587149D02*
X164525238Y-91587149D01*
X164525238Y-91587149D02*
X164477619Y-91563340D01*
X164477619Y-91563340D02*
X164430000Y-91515720D01*
X164430000Y-91515720D02*
X164406191Y-91420482D01*
X164406191Y-91420482D02*
X164406191Y-91253816D01*
X164406191Y-91253816D02*
X164430000Y-91158578D01*
X164430000Y-91158578D02*
X164477619Y-91110959D01*
X164477619Y-91110959D02*
X164525238Y-91087149D01*
X165215715Y-91587149D02*
X164930001Y-91587149D01*
X165072858Y-91587149D02*
X165072858Y-91087149D01*
X165072858Y-91087149D02*
X165025239Y-91158578D01*
X165025239Y-91158578D02*
X164977620Y-91206197D01*
X164977620Y-91206197D02*
X164930001Y-91230006D01*
X165525238Y-91087149D02*
X165572857Y-91087149D01*
X165572857Y-91087149D02*
X165620476Y-91110959D01*
X165620476Y-91110959D02*
X165644286Y-91134768D01*
X165644286Y-91134768D02*
X165668095Y-91182387D01*
X165668095Y-91182387D02*
X165691905Y-91277625D01*
X165691905Y-91277625D02*
X165691905Y-91396673D01*
X165691905Y-91396673D02*
X165668095Y-91491911D01*
X165668095Y-91491911D02*
X165644286Y-91539530D01*
X165644286Y-91539530D02*
X165620476Y-91563340D01*
X165620476Y-91563340D02*
X165572857Y-91587149D01*
X165572857Y-91587149D02*
X165525238Y-91587149D01*
X165525238Y-91587149D02*
X165477619Y-91563340D01*
X165477619Y-91563340D02*
X165453810Y-91539530D01*
X165453810Y-91539530D02*
X165430000Y-91491911D01*
X165430000Y-91491911D02*
X165406191Y-91396673D01*
X165406191Y-91396673D02*
X165406191Y-91277625D01*
X165406191Y-91277625D02*
X165430000Y-91182387D01*
X165430000Y-91182387D02*
X165453810Y-91134768D01*
X165453810Y-91134768D02*
X165477619Y-91110959D01*
X165477619Y-91110959D02*
X165525238Y-91087149D01*
X163453810Y-93650959D02*
X163406191Y-93627149D01*
X163406191Y-93627149D02*
X163334762Y-93627149D01*
X163334762Y-93627149D02*
X163263334Y-93650959D01*
X163263334Y-93650959D02*
X163215715Y-93698578D01*
X163215715Y-93698578D02*
X163191905Y-93746197D01*
X163191905Y-93746197D02*
X163168096Y-93841435D01*
X163168096Y-93841435D02*
X163168096Y-93912863D01*
X163168096Y-93912863D02*
X163191905Y-94008101D01*
X163191905Y-94008101D02*
X163215715Y-94055720D01*
X163215715Y-94055720D02*
X163263334Y-94103340D01*
X163263334Y-94103340D02*
X163334762Y-94127149D01*
X163334762Y-94127149D02*
X163382381Y-94127149D01*
X163382381Y-94127149D02*
X163453810Y-94103340D01*
X163453810Y-94103340D02*
X163477619Y-94079530D01*
X163477619Y-94079530D02*
X163477619Y-93912863D01*
X163477619Y-93912863D02*
X163382381Y-93912863D01*
X163691905Y-94127149D02*
X163691905Y-93627149D01*
X163691905Y-93627149D02*
X163882381Y-93627149D01*
X163882381Y-93627149D02*
X163930000Y-93650959D01*
X163930000Y-93650959D02*
X163953810Y-93674768D01*
X163953810Y-93674768D02*
X163977619Y-93722387D01*
X163977619Y-93722387D02*
X163977619Y-93793816D01*
X163977619Y-93793816D02*
X163953810Y-93841435D01*
X163953810Y-93841435D02*
X163930000Y-93865244D01*
X163930000Y-93865244D02*
X163882381Y-93889054D01*
X163882381Y-93889054D02*
X163691905Y-93889054D01*
X164191905Y-94127149D02*
X164191905Y-93627149D01*
X164525238Y-93627149D02*
X164620476Y-93627149D01*
X164620476Y-93627149D02*
X164668095Y-93650959D01*
X164668095Y-93650959D02*
X164715714Y-93698578D01*
X164715714Y-93698578D02*
X164739524Y-93793816D01*
X164739524Y-93793816D02*
X164739524Y-93960482D01*
X164739524Y-93960482D02*
X164715714Y-94055720D01*
X164715714Y-94055720D02*
X164668095Y-94103340D01*
X164668095Y-94103340D02*
X164620476Y-94127149D01*
X164620476Y-94127149D02*
X164525238Y-94127149D01*
X164525238Y-94127149D02*
X164477619Y-94103340D01*
X164477619Y-94103340D02*
X164430000Y-94055720D01*
X164430000Y-94055720D02*
X164406191Y-93960482D01*
X164406191Y-93960482D02*
X164406191Y-93793816D01*
X164406191Y-93793816D02*
X164430000Y-93698578D01*
X164430000Y-93698578D02*
X164477619Y-93650959D01*
X164477619Y-93650959D02*
X164525238Y-93627149D01*
X165215715Y-94127149D02*
X164930001Y-94127149D01*
X165072858Y-94127149D02*
X165072858Y-93627149D01*
X165072858Y-93627149D02*
X165025239Y-93698578D01*
X165025239Y-93698578D02*
X164977620Y-93746197D01*
X164977620Y-93746197D02*
X164930001Y-93770006D01*
X165691905Y-94127149D02*
X165406191Y-94127149D01*
X165549048Y-94127149D02*
X165549048Y-93627149D01*
X165549048Y-93627149D02*
X165501429Y-93698578D01*
X165501429Y-93698578D02*
X165453810Y-93746197D01*
X165453810Y-93746197D02*
X165406191Y-93770006D01*
X163691905Y-96190959D02*
X163644286Y-96167149D01*
X163644286Y-96167149D02*
X163572857Y-96167149D01*
X163572857Y-96167149D02*
X163501429Y-96190959D01*
X163501429Y-96190959D02*
X163453810Y-96238578D01*
X163453810Y-96238578D02*
X163430000Y-96286197D01*
X163430000Y-96286197D02*
X163406191Y-96381435D01*
X163406191Y-96381435D02*
X163406191Y-96452863D01*
X163406191Y-96452863D02*
X163430000Y-96548101D01*
X163430000Y-96548101D02*
X163453810Y-96595720D01*
X163453810Y-96595720D02*
X163501429Y-96643340D01*
X163501429Y-96643340D02*
X163572857Y-96667149D01*
X163572857Y-96667149D02*
X163620476Y-96667149D01*
X163620476Y-96667149D02*
X163691905Y-96643340D01*
X163691905Y-96643340D02*
X163715714Y-96619530D01*
X163715714Y-96619530D02*
X163715714Y-96452863D01*
X163715714Y-96452863D02*
X163620476Y-96452863D01*
X163930000Y-96667149D02*
X163930000Y-96167149D01*
X163930000Y-96167149D02*
X164120476Y-96167149D01*
X164120476Y-96167149D02*
X164168095Y-96190959D01*
X164168095Y-96190959D02*
X164191905Y-96214768D01*
X164191905Y-96214768D02*
X164215714Y-96262387D01*
X164215714Y-96262387D02*
X164215714Y-96333816D01*
X164215714Y-96333816D02*
X164191905Y-96381435D01*
X164191905Y-96381435D02*
X164168095Y-96405244D01*
X164168095Y-96405244D02*
X164120476Y-96429054D01*
X164120476Y-96429054D02*
X163930000Y-96429054D01*
X164430000Y-96667149D02*
X164430000Y-96167149D01*
X164763333Y-96167149D02*
X164858571Y-96167149D01*
X164858571Y-96167149D02*
X164906190Y-96190959D01*
X164906190Y-96190959D02*
X164953809Y-96238578D01*
X164953809Y-96238578D02*
X164977619Y-96333816D01*
X164977619Y-96333816D02*
X164977619Y-96500482D01*
X164977619Y-96500482D02*
X164953809Y-96595720D01*
X164953809Y-96595720D02*
X164906190Y-96643340D01*
X164906190Y-96643340D02*
X164858571Y-96667149D01*
X164858571Y-96667149D02*
X164763333Y-96667149D01*
X164763333Y-96667149D02*
X164715714Y-96643340D01*
X164715714Y-96643340D02*
X164668095Y-96595720D01*
X164668095Y-96595720D02*
X164644286Y-96500482D01*
X164644286Y-96500482D02*
X164644286Y-96333816D01*
X164644286Y-96333816D02*
X164668095Y-96238578D01*
X164668095Y-96238578D02*
X164715714Y-96190959D01*
X164715714Y-96190959D02*
X164763333Y-96167149D01*
X165168096Y-96214768D02*
X165191905Y-96190959D01*
X165191905Y-96190959D02*
X165239524Y-96167149D01*
X165239524Y-96167149D02*
X165358572Y-96167149D01*
X165358572Y-96167149D02*
X165406191Y-96190959D01*
X165406191Y-96190959D02*
X165430000Y-96214768D01*
X165430000Y-96214768D02*
X165453810Y-96262387D01*
X165453810Y-96262387D02*
X165453810Y-96310006D01*
X165453810Y-96310006D02*
X165430000Y-96381435D01*
X165430000Y-96381435D02*
X165144286Y-96667149D01*
X165144286Y-96667149D02*
X165453810Y-96667149D01*
X163691905Y-98730959D02*
X163644286Y-98707149D01*
X163644286Y-98707149D02*
X163572857Y-98707149D01*
X163572857Y-98707149D02*
X163501429Y-98730959D01*
X163501429Y-98730959D02*
X163453810Y-98778578D01*
X163453810Y-98778578D02*
X163430000Y-98826197D01*
X163430000Y-98826197D02*
X163406191Y-98921435D01*
X163406191Y-98921435D02*
X163406191Y-98992863D01*
X163406191Y-98992863D02*
X163430000Y-99088101D01*
X163430000Y-99088101D02*
X163453810Y-99135720D01*
X163453810Y-99135720D02*
X163501429Y-99183340D01*
X163501429Y-99183340D02*
X163572857Y-99207149D01*
X163572857Y-99207149D02*
X163620476Y-99207149D01*
X163620476Y-99207149D02*
X163691905Y-99183340D01*
X163691905Y-99183340D02*
X163715714Y-99159530D01*
X163715714Y-99159530D02*
X163715714Y-98992863D01*
X163715714Y-98992863D02*
X163620476Y-98992863D01*
X163930000Y-99207149D02*
X163930000Y-98707149D01*
X163930000Y-98707149D02*
X164120476Y-98707149D01*
X164120476Y-98707149D02*
X164168095Y-98730959D01*
X164168095Y-98730959D02*
X164191905Y-98754768D01*
X164191905Y-98754768D02*
X164215714Y-98802387D01*
X164215714Y-98802387D02*
X164215714Y-98873816D01*
X164215714Y-98873816D02*
X164191905Y-98921435D01*
X164191905Y-98921435D02*
X164168095Y-98945244D01*
X164168095Y-98945244D02*
X164120476Y-98969054D01*
X164120476Y-98969054D02*
X163930000Y-98969054D01*
X164430000Y-99207149D02*
X164430000Y-98707149D01*
X164763333Y-98707149D02*
X164858571Y-98707149D01*
X164858571Y-98707149D02*
X164906190Y-98730959D01*
X164906190Y-98730959D02*
X164953809Y-98778578D01*
X164953809Y-98778578D02*
X164977619Y-98873816D01*
X164977619Y-98873816D02*
X164977619Y-99040482D01*
X164977619Y-99040482D02*
X164953809Y-99135720D01*
X164953809Y-99135720D02*
X164906190Y-99183340D01*
X164906190Y-99183340D02*
X164858571Y-99207149D01*
X164858571Y-99207149D02*
X164763333Y-99207149D01*
X164763333Y-99207149D02*
X164715714Y-99183340D01*
X164715714Y-99183340D02*
X164668095Y-99135720D01*
X164668095Y-99135720D02*
X164644286Y-99040482D01*
X164644286Y-99040482D02*
X164644286Y-98873816D01*
X164644286Y-98873816D02*
X164668095Y-98778578D01*
X164668095Y-98778578D02*
X164715714Y-98730959D01*
X164715714Y-98730959D02*
X164763333Y-98707149D01*
X165144286Y-98707149D02*
X165453810Y-98707149D01*
X165453810Y-98707149D02*
X165287143Y-98897625D01*
X165287143Y-98897625D02*
X165358572Y-98897625D01*
X165358572Y-98897625D02*
X165406191Y-98921435D01*
X165406191Y-98921435D02*
X165430000Y-98945244D01*
X165430000Y-98945244D02*
X165453810Y-98992863D01*
X165453810Y-98992863D02*
X165453810Y-99111911D01*
X165453810Y-99111911D02*
X165430000Y-99159530D01*
X165430000Y-99159530D02*
X165406191Y-99183340D01*
X165406191Y-99183340D02*
X165358572Y-99207149D01*
X165358572Y-99207149D02*
X165215715Y-99207149D01*
X165215715Y-99207149D02*
X165168096Y-99183340D01*
X165168096Y-99183340D02*
X165144286Y-99159530D01*
X164334762Y-101247149D02*
X164096667Y-101247149D01*
X164096667Y-101247149D02*
X164072858Y-101485244D01*
X164072858Y-101485244D02*
X164096667Y-101461435D01*
X164096667Y-101461435D02*
X164144286Y-101437625D01*
X164144286Y-101437625D02*
X164263334Y-101437625D01*
X164263334Y-101437625D02*
X164310953Y-101461435D01*
X164310953Y-101461435D02*
X164334762Y-101485244D01*
X164334762Y-101485244D02*
X164358572Y-101532863D01*
X164358572Y-101532863D02*
X164358572Y-101651911D01*
X164358572Y-101651911D02*
X164334762Y-101699530D01*
X164334762Y-101699530D02*
X164310953Y-101723340D01*
X164310953Y-101723340D02*
X164263334Y-101747149D01*
X164263334Y-101747149D02*
X164144286Y-101747149D01*
X164144286Y-101747149D02*
X164096667Y-101723340D01*
X164096667Y-101723340D02*
X164072858Y-101699530D01*
X164501429Y-101247149D02*
X164668095Y-101747149D01*
X164668095Y-101747149D02*
X164834762Y-101247149D01*
X164049047Y-103810959D02*
X164001428Y-103787149D01*
X164001428Y-103787149D02*
X163929999Y-103787149D01*
X163929999Y-103787149D02*
X163858571Y-103810959D01*
X163858571Y-103810959D02*
X163810952Y-103858578D01*
X163810952Y-103858578D02*
X163787142Y-103906197D01*
X163787142Y-103906197D02*
X163763333Y-104001435D01*
X163763333Y-104001435D02*
X163763333Y-104072863D01*
X163763333Y-104072863D02*
X163787142Y-104168101D01*
X163787142Y-104168101D02*
X163810952Y-104215720D01*
X163810952Y-104215720D02*
X163858571Y-104263340D01*
X163858571Y-104263340D02*
X163929999Y-104287149D01*
X163929999Y-104287149D02*
X163977618Y-104287149D01*
X163977618Y-104287149D02*
X164049047Y-104263340D01*
X164049047Y-104263340D02*
X164072856Y-104239530D01*
X164072856Y-104239530D02*
X164072856Y-104072863D01*
X164072856Y-104072863D02*
X163977618Y-104072863D01*
X164287142Y-104287149D02*
X164287142Y-103787149D01*
X164287142Y-103787149D02*
X164572856Y-104287149D01*
X164572856Y-104287149D02*
X164572856Y-103787149D01*
X164810952Y-104287149D02*
X164810952Y-103787149D01*
X164810952Y-103787149D02*
X164930000Y-103787149D01*
X164930000Y-103787149D02*
X165001428Y-103810959D01*
X165001428Y-103810959D02*
X165049047Y-103858578D01*
X165049047Y-103858578D02*
X165072857Y-103906197D01*
X165072857Y-103906197D02*
X165096666Y-104001435D01*
X165096666Y-104001435D02*
X165096666Y-104072863D01*
X165096666Y-104072863D02*
X165072857Y-104168101D01*
X165072857Y-104168101D02*
X165049047Y-104215720D01*
X165049047Y-104215720D02*
X165001428Y-104263340D01*
X165001428Y-104263340D02*
X164930000Y-104287149D01*
X164930000Y-104287149D02*
X164810952Y-104287149D01*
X164037142Y-106827149D02*
X164037142Y-106327149D01*
X164037142Y-106327149D02*
X164322856Y-106827149D01*
X164322856Y-106827149D02*
X164322856Y-106327149D01*
X164846666Y-106779530D02*
X164822857Y-106803340D01*
X164822857Y-106803340D02*
X164751428Y-106827149D01*
X164751428Y-106827149D02*
X164703809Y-106827149D01*
X164703809Y-106827149D02*
X164632381Y-106803340D01*
X164632381Y-106803340D02*
X164584762Y-106755720D01*
X164584762Y-106755720D02*
X164560952Y-106708101D01*
X164560952Y-106708101D02*
X164537143Y-106612863D01*
X164537143Y-106612863D02*
X164537143Y-106541435D01*
X164537143Y-106541435D02*
X164560952Y-106446197D01*
X164560952Y-106446197D02*
X164584762Y-106398578D01*
X164584762Y-106398578D02*
X164632381Y-106350959D01*
X164632381Y-106350959D02*
X164703809Y-106327149D01*
X164703809Y-106327149D02*
X164751428Y-106327149D01*
X164751428Y-106327149D02*
X164822857Y-106350959D01*
X164822857Y-106350959D02*
X164846666Y-106374768D01*
X181049047Y-68250959D02*
X181001428Y-68227149D01*
X181001428Y-68227149D02*
X180929999Y-68227149D01*
X180929999Y-68227149D02*
X180858571Y-68250959D01*
X180858571Y-68250959D02*
X180810952Y-68298578D01*
X180810952Y-68298578D02*
X180787142Y-68346197D01*
X180787142Y-68346197D02*
X180763333Y-68441435D01*
X180763333Y-68441435D02*
X180763333Y-68512863D01*
X180763333Y-68512863D02*
X180787142Y-68608101D01*
X180787142Y-68608101D02*
X180810952Y-68655720D01*
X180810952Y-68655720D02*
X180858571Y-68703340D01*
X180858571Y-68703340D02*
X180929999Y-68727149D01*
X180929999Y-68727149D02*
X180977618Y-68727149D01*
X180977618Y-68727149D02*
X181049047Y-68703340D01*
X181049047Y-68703340D02*
X181072856Y-68679530D01*
X181072856Y-68679530D02*
X181072856Y-68512863D01*
X181072856Y-68512863D02*
X180977618Y-68512863D01*
X181287142Y-68727149D02*
X181287142Y-68227149D01*
X181287142Y-68227149D02*
X181572856Y-68727149D01*
X181572856Y-68727149D02*
X181572856Y-68227149D01*
X181810952Y-68727149D02*
X181810952Y-68227149D01*
X181810952Y-68227149D02*
X181930000Y-68227149D01*
X181930000Y-68227149D02*
X182001428Y-68250959D01*
X182001428Y-68250959D02*
X182049047Y-68298578D01*
X182049047Y-68298578D02*
X182072857Y-68346197D01*
X182072857Y-68346197D02*
X182096666Y-68441435D01*
X182096666Y-68441435D02*
X182096666Y-68512863D01*
X182096666Y-68512863D02*
X182072857Y-68608101D01*
X182072857Y-68608101D02*
X182049047Y-68655720D01*
X182049047Y-68655720D02*
X182001428Y-68703340D01*
X182001428Y-68703340D02*
X181930000Y-68727149D01*
X181930000Y-68727149D02*
X181810952Y-68727149D01*
X181049048Y-70767149D02*
X181334762Y-70767149D01*
X181191905Y-71267149D02*
X181191905Y-70767149D01*
X181453809Y-70767149D02*
X181787142Y-71267149D01*
X181787142Y-70767149D02*
X181453809Y-71267149D01*
X181346666Y-73807149D02*
X181180000Y-73569054D01*
X181060952Y-73807149D02*
X181060952Y-73307149D01*
X181060952Y-73307149D02*
X181251428Y-73307149D01*
X181251428Y-73307149D02*
X181299047Y-73330959D01*
X181299047Y-73330959D02*
X181322857Y-73354768D01*
X181322857Y-73354768D02*
X181346666Y-73402387D01*
X181346666Y-73402387D02*
X181346666Y-73473816D01*
X181346666Y-73473816D02*
X181322857Y-73521435D01*
X181322857Y-73521435D02*
X181299047Y-73545244D01*
X181299047Y-73545244D02*
X181251428Y-73569054D01*
X181251428Y-73569054D02*
X181060952Y-73569054D01*
X181513333Y-73307149D02*
X181846666Y-73807149D01*
X181846666Y-73307149D02*
X181513333Y-73807149D01*
X180453810Y-75870959D02*
X180406191Y-75847149D01*
X180406191Y-75847149D02*
X180334762Y-75847149D01*
X180334762Y-75847149D02*
X180263334Y-75870959D01*
X180263334Y-75870959D02*
X180215715Y-75918578D01*
X180215715Y-75918578D02*
X180191905Y-75966197D01*
X180191905Y-75966197D02*
X180168096Y-76061435D01*
X180168096Y-76061435D02*
X180168096Y-76132863D01*
X180168096Y-76132863D02*
X180191905Y-76228101D01*
X180191905Y-76228101D02*
X180215715Y-76275720D01*
X180215715Y-76275720D02*
X180263334Y-76323340D01*
X180263334Y-76323340D02*
X180334762Y-76347149D01*
X180334762Y-76347149D02*
X180382381Y-76347149D01*
X180382381Y-76347149D02*
X180453810Y-76323340D01*
X180453810Y-76323340D02*
X180477619Y-76299530D01*
X180477619Y-76299530D02*
X180477619Y-76132863D01*
X180477619Y-76132863D02*
X180382381Y-76132863D01*
X180691905Y-76347149D02*
X180691905Y-75847149D01*
X180691905Y-75847149D02*
X180882381Y-75847149D01*
X180882381Y-75847149D02*
X180930000Y-75870959D01*
X180930000Y-75870959D02*
X180953810Y-75894768D01*
X180953810Y-75894768D02*
X180977619Y-75942387D01*
X180977619Y-75942387D02*
X180977619Y-76013816D01*
X180977619Y-76013816D02*
X180953810Y-76061435D01*
X180953810Y-76061435D02*
X180930000Y-76085244D01*
X180930000Y-76085244D02*
X180882381Y-76109054D01*
X180882381Y-76109054D02*
X180691905Y-76109054D01*
X181191905Y-76347149D02*
X181191905Y-75847149D01*
X181525238Y-75847149D02*
X181620476Y-75847149D01*
X181620476Y-75847149D02*
X181668095Y-75870959D01*
X181668095Y-75870959D02*
X181715714Y-75918578D01*
X181715714Y-75918578D02*
X181739524Y-76013816D01*
X181739524Y-76013816D02*
X181739524Y-76180482D01*
X181739524Y-76180482D02*
X181715714Y-76275720D01*
X181715714Y-76275720D02*
X181668095Y-76323340D01*
X181668095Y-76323340D02*
X181620476Y-76347149D01*
X181620476Y-76347149D02*
X181525238Y-76347149D01*
X181525238Y-76347149D02*
X181477619Y-76323340D01*
X181477619Y-76323340D02*
X181430000Y-76275720D01*
X181430000Y-76275720D02*
X181406191Y-76180482D01*
X181406191Y-76180482D02*
X181406191Y-76013816D01*
X181406191Y-76013816D02*
X181430000Y-75918578D01*
X181430000Y-75918578D02*
X181477619Y-75870959D01*
X181477619Y-75870959D02*
X181525238Y-75847149D01*
X182215715Y-76347149D02*
X181930001Y-76347149D01*
X182072858Y-76347149D02*
X182072858Y-75847149D01*
X182072858Y-75847149D02*
X182025239Y-75918578D01*
X182025239Y-75918578D02*
X181977620Y-75966197D01*
X181977620Y-75966197D02*
X181930001Y-75990006D01*
X182668095Y-75847149D02*
X182430000Y-75847149D01*
X182430000Y-75847149D02*
X182406191Y-76085244D01*
X182406191Y-76085244D02*
X182430000Y-76061435D01*
X182430000Y-76061435D02*
X182477619Y-76037625D01*
X182477619Y-76037625D02*
X182596667Y-76037625D01*
X182596667Y-76037625D02*
X182644286Y-76061435D01*
X182644286Y-76061435D02*
X182668095Y-76085244D01*
X182668095Y-76085244D02*
X182691905Y-76132863D01*
X182691905Y-76132863D02*
X182691905Y-76251911D01*
X182691905Y-76251911D02*
X182668095Y-76299530D01*
X182668095Y-76299530D02*
X182644286Y-76323340D01*
X182644286Y-76323340D02*
X182596667Y-76347149D01*
X182596667Y-76347149D02*
X182477619Y-76347149D01*
X182477619Y-76347149D02*
X182430000Y-76323340D01*
X182430000Y-76323340D02*
X182406191Y-76299530D01*
X180453810Y-78410959D02*
X180406191Y-78387149D01*
X180406191Y-78387149D02*
X180334762Y-78387149D01*
X180334762Y-78387149D02*
X180263334Y-78410959D01*
X180263334Y-78410959D02*
X180215715Y-78458578D01*
X180215715Y-78458578D02*
X180191905Y-78506197D01*
X180191905Y-78506197D02*
X180168096Y-78601435D01*
X180168096Y-78601435D02*
X180168096Y-78672863D01*
X180168096Y-78672863D02*
X180191905Y-78768101D01*
X180191905Y-78768101D02*
X180215715Y-78815720D01*
X180215715Y-78815720D02*
X180263334Y-78863340D01*
X180263334Y-78863340D02*
X180334762Y-78887149D01*
X180334762Y-78887149D02*
X180382381Y-78887149D01*
X180382381Y-78887149D02*
X180453810Y-78863340D01*
X180453810Y-78863340D02*
X180477619Y-78839530D01*
X180477619Y-78839530D02*
X180477619Y-78672863D01*
X180477619Y-78672863D02*
X180382381Y-78672863D01*
X180691905Y-78887149D02*
X180691905Y-78387149D01*
X180691905Y-78387149D02*
X180882381Y-78387149D01*
X180882381Y-78387149D02*
X180930000Y-78410959D01*
X180930000Y-78410959D02*
X180953810Y-78434768D01*
X180953810Y-78434768D02*
X180977619Y-78482387D01*
X180977619Y-78482387D02*
X180977619Y-78553816D01*
X180977619Y-78553816D02*
X180953810Y-78601435D01*
X180953810Y-78601435D02*
X180930000Y-78625244D01*
X180930000Y-78625244D02*
X180882381Y-78649054D01*
X180882381Y-78649054D02*
X180691905Y-78649054D01*
X181191905Y-78887149D02*
X181191905Y-78387149D01*
X181525238Y-78387149D02*
X181620476Y-78387149D01*
X181620476Y-78387149D02*
X181668095Y-78410959D01*
X181668095Y-78410959D02*
X181715714Y-78458578D01*
X181715714Y-78458578D02*
X181739524Y-78553816D01*
X181739524Y-78553816D02*
X181739524Y-78720482D01*
X181739524Y-78720482D02*
X181715714Y-78815720D01*
X181715714Y-78815720D02*
X181668095Y-78863340D01*
X181668095Y-78863340D02*
X181620476Y-78887149D01*
X181620476Y-78887149D02*
X181525238Y-78887149D01*
X181525238Y-78887149D02*
X181477619Y-78863340D01*
X181477619Y-78863340D02*
X181430000Y-78815720D01*
X181430000Y-78815720D02*
X181406191Y-78720482D01*
X181406191Y-78720482D02*
X181406191Y-78553816D01*
X181406191Y-78553816D02*
X181430000Y-78458578D01*
X181430000Y-78458578D02*
X181477619Y-78410959D01*
X181477619Y-78410959D02*
X181525238Y-78387149D01*
X181930001Y-78434768D02*
X181953810Y-78410959D01*
X181953810Y-78410959D02*
X182001429Y-78387149D01*
X182001429Y-78387149D02*
X182120477Y-78387149D01*
X182120477Y-78387149D02*
X182168096Y-78410959D01*
X182168096Y-78410959D02*
X182191905Y-78434768D01*
X182191905Y-78434768D02*
X182215715Y-78482387D01*
X182215715Y-78482387D02*
X182215715Y-78530006D01*
X182215715Y-78530006D02*
X182191905Y-78601435D01*
X182191905Y-78601435D02*
X181906191Y-78887149D01*
X181906191Y-78887149D02*
X182215715Y-78887149D01*
X182382381Y-78387149D02*
X182691905Y-78387149D01*
X182691905Y-78387149D02*
X182525238Y-78577625D01*
X182525238Y-78577625D02*
X182596667Y-78577625D01*
X182596667Y-78577625D02*
X182644286Y-78601435D01*
X182644286Y-78601435D02*
X182668095Y-78625244D01*
X182668095Y-78625244D02*
X182691905Y-78672863D01*
X182691905Y-78672863D02*
X182691905Y-78791911D01*
X182691905Y-78791911D02*
X182668095Y-78839530D01*
X182668095Y-78839530D02*
X182644286Y-78863340D01*
X182644286Y-78863340D02*
X182596667Y-78887149D01*
X182596667Y-78887149D02*
X182453810Y-78887149D01*
X182453810Y-78887149D02*
X182406191Y-78863340D01*
X182406191Y-78863340D02*
X182382381Y-78839530D01*
X180453810Y-80950959D02*
X180406191Y-80927149D01*
X180406191Y-80927149D02*
X180334762Y-80927149D01*
X180334762Y-80927149D02*
X180263334Y-80950959D01*
X180263334Y-80950959D02*
X180215715Y-80998578D01*
X180215715Y-80998578D02*
X180191905Y-81046197D01*
X180191905Y-81046197D02*
X180168096Y-81141435D01*
X180168096Y-81141435D02*
X180168096Y-81212863D01*
X180168096Y-81212863D02*
X180191905Y-81308101D01*
X180191905Y-81308101D02*
X180215715Y-81355720D01*
X180215715Y-81355720D02*
X180263334Y-81403340D01*
X180263334Y-81403340D02*
X180334762Y-81427149D01*
X180334762Y-81427149D02*
X180382381Y-81427149D01*
X180382381Y-81427149D02*
X180453810Y-81403340D01*
X180453810Y-81403340D02*
X180477619Y-81379530D01*
X180477619Y-81379530D02*
X180477619Y-81212863D01*
X180477619Y-81212863D02*
X180382381Y-81212863D01*
X180691905Y-81427149D02*
X180691905Y-80927149D01*
X180691905Y-80927149D02*
X180882381Y-80927149D01*
X180882381Y-80927149D02*
X180930000Y-80950959D01*
X180930000Y-80950959D02*
X180953810Y-80974768D01*
X180953810Y-80974768D02*
X180977619Y-81022387D01*
X180977619Y-81022387D02*
X180977619Y-81093816D01*
X180977619Y-81093816D02*
X180953810Y-81141435D01*
X180953810Y-81141435D02*
X180930000Y-81165244D01*
X180930000Y-81165244D02*
X180882381Y-81189054D01*
X180882381Y-81189054D02*
X180691905Y-81189054D01*
X181191905Y-81427149D02*
X181191905Y-80927149D01*
X181525238Y-80927149D02*
X181620476Y-80927149D01*
X181620476Y-80927149D02*
X181668095Y-80950959D01*
X181668095Y-80950959D02*
X181715714Y-80998578D01*
X181715714Y-80998578D02*
X181739524Y-81093816D01*
X181739524Y-81093816D02*
X181739524Y-81260482D01*
X181739524Y-81260482D02*
X181715714Y-81355720D01*
X181715714Y-81355720D02*
X181668095Y-81403340D01*
X181668095Y-81403340D02*
X181620476Y-81427149D01*
X181620476Y-81427149D02*
X181525238Y-81427149D01*
X181525238Y-81427149D02*
X181477619Y-81403340D01*
X181477619Y-81403340D02*
X181430000Y-81355720D01*
X181430000Y-81355720D02*
X181406191Y-81260482D01*
X181406191Y-81260482D02*
X181406191Y-81093816D01*
X181406191Y-81093816D02*
X181430000Y-80998578D01*
X181430000Y-80998578D02*
X181477619Y-80950959D01*
X181477619Y-80950959D02*
X181525238Y-80927149D01*
X181930001Y-80974768D02*
X181953810Y-80950959D01*
X181953810Y-80950959D02*
X182001429Y-80927149D01*
X182001429Y-80927149D02*
X182120477Y-80927149D01*
X182120477Y-80927149D02*
X182168096Y-80950959D01*
X182168096Y-80950959D02*
X182191905Y-80974768D01*
X182191905Y-80974768D02*
X182215715Y-81022387D01*
X182215715Y-81022387D02*
X182215715Y-81070006D01*
X182215715Y-81070006D02*
X182191905Y-81141435D01*
X182191905Y-81141435D02*
X181906191Y-81427149D01*
X181906191Y-81427149D02*
X182215715Y-81427149D01*
X182406191Y-80974768D02*
X182430000Y-80950959D01*
X182430000Y-80950959D02*
X182477619Y-80927149D01*
X182477619Y-80927149D02*
X182596667Y-80927149D01*
X182596667Y-80927149D02*
X182644286Y-80950959D01*
X182644286Y-80950959D02*
X182668095Y-80974768D01*
X182668095Y-80974768D02*
X182691905Y-81022387D01*
X182691905Y-81022387D02*
X182691905Y-81070006D01*
X182691905Y-81070006D02*
X182668095Y-81141435D01*
X182668095Y-81141435D02*
X182382381Y-81427149D01*
X182382381Y-81427149D02*
X182691905Y-81427149D01*
X180453810Y-83490959D02*
X180406191Y-83467149D01*
X180406191Y-83467149D02*
X180334762Y-83467149D01*
X180334762Y-83467149D02*
X180263334Y-83490959D01*
X180263334Y-83490959D02*
X180215715Y-83538578D01*
X180215715Y-83538578D02*
X180191905Y-83586197D01*
X180191905Y-83586197D02*
X180168096Y-83681435D01*
X180168096Y-83681435D02*
X180168096Y-83752863D01*
X180168096Y-83752863D02*
X180191905Y-83848101D01*
X180191905Y-83848101D02*
X180215715Y-83895720D01*
X180215715Y-83895720D02*
X180263334Y-83943340D01*
X180263334Y-83943340D02*
X180334762Y-83967149D01*
X180334762Y-83967149D02*
X180382381Y-83967149D01*
X180382381Y-83967149D02*
X180453810Y-83943340D01*
X180453810Y-83943340D02*
X180477619Y-83919530D01*
X180477619Y-83919530D02*
X180477619Y-83752863D01*
X180477619Y-83752863D02*
X180382381Y-83752863D01*
X180691905Y-83967149D02*
X180691905Y-83467149D01*
X180691905Y-83467149D02*
X180882381Y-83467149D01*
X180882381Y-83467149D02*
X180930000Y-83490959D01*
X180930000Y-83490959D02*
X180953810Y-83514768D01*
X180953810Y-83514768D02*
X180977619Y-83562387D01*
X180977619Y-83562387D02*
X180977619Y-83633816D01*
X180977619Y-83633816D02*
X180953810Y-83681435D01*
X180953810Y-83681435D02*
X180930000Y-83705244D01*
X180930000Y-83705244D02*
X180882381Y-83729054D01*
X180882381Y-83729054D02*
X180691905Y-83729054D01*
X181191905Y-83967149D02*
X181191905Y-83467149D01*
X181525238Y-83467149D02*
X181620476Y-83467149D01*
X181620476Y-83467149D02*
X181668095Y-83490959D01*
X181668095Y-83490959D02*
X181715714Y-83538578D01*
X181715714Y-83538578D02*
X181739524Y-83633816D01*
X181739524Y-83633816D02*
X181739524Y-83800482D01*
X181739524Y-83800482D02*
X181715714Y-83895720D01*
X181715714Y-83895720D02*
X181668095Y-83943340D01*
X181668095Y-83943340D02*
X181620476Y-83967149D01*
X181620476Y-83967149D02*
X181525238Y-83967149D01*
X181525238Y-83967149D02*
X181477619Y-83943340D01*
X181477619Y-83943340D02*
X181430000Y-83895720D01*
X181430000Y-83895720D02*
X181406191Y-83800482D01*
X181406191Y-83800482D02*
X181406191Y-83633816D01*
X181406191Y-83633816D02*
X181430000Y-83538578D01*
X181430000Y-83538578D02*
X181477619Y-83490959D01*
X181477619Y-83490959D02*
X181525238Y-83467149D01*
X181930001Y-83514768D02*
X181953810Y-83490959D01*
X181953810Y-83490959D02*
X182001429Y-83467149D01*
X182001429Y-83467149D02*
X182120477Y-83467149D01*
X182120477Y-83467149D02*
X182168096Y-83490959D01*
X182168096Y-83490959D02*
X182191905Y-83514768D01*
X182191905Y-83514768D02*
X182215715Y-83562387D01*
X182215715Y-83562387D02*
X182215715Y-83610006D01*
X182215715Y-83610006D02*
X182191905Y-83681435D01*
X182191905Y-83681435D02*
X181906191Y-83967149D01*
X181906191Y-83967149D02*
X182215715Y-83967149D01*
X182691905Y-83967149D02*
X182406191Y-83967149D01*
X182549048Y-83967149D02*
X182549048Y-83467149D01*
X182549048Y-83467149D02*
X182501429Y-83538578D01*
X182501429Y-83538578D02*
X182453810Y-83586197D01*
X182453810Y-83586197D02*
X182406191Y-83610006D01*
X180453810Y-86030959D02*
X180406191Y-86007149D01*
X180406191Y-86007149D02*
X180334762Y-86007149D01*
X180334762Y-86007149D02*
X180263334Y-86030959D01*
X180263334Y-86030959D02*
X180215715Y-86078578D01*
X180215715Y-86078578D02*
X180191905Y-86126197D01*
X180191905Y-86126197D02*
X180168096Y-86221435D01*
X180168096Y-86221435D02*
X180168096Y-86292863D01*
X180168096Y-86292863D02*
X180191905Y-86388101D01*
X180191905Y-86388101D02*
X180215715Y-86435720D01*
X180215715Y-86435720D02*
X180263334Y-86483340D01*
X180263334Y-86483340D02*
X180334762Y-86507149D01*
X180334762Y-86507149D02*
X180382381Y-86507149D01*
X180382381Y-86507149D02*
X180453810Y-86483340D01*
X180453810Y-86483340D02*
X180477619Y-86459530D01*
X180477619Y-86459530D02*
X180477619Y-86292863D01*
X180477619Y-86292863D02*
X180382381Y-86292863D01*
X180691905Y-86507149D02*
X180691905Y-86007149D01*
X180691905Y-86007149D02*
X180882381Y-86007149D01*
X180882381Y-86007149D02*
X180930000Y-86030959D01*
X180930000Y-86030959D02*
X180953810Y-86054768D01*
X180953810Y-86054768D02*
X180977619Y-86102387D01*
X180977619Y-86102387D02*
X180977619Y-86173816D01*
X180977619Y-86173816D02*
X180953810Y-86221435D01*
X180953810Y-86221435D02*
X180930000Y-86245244D01*
X180930000Y-86245244D02*
X180882381Y-86269054D01*
X180882381Y-86269054D02*
X180691905Y-86269054D01*
X181191905Y-86507149D02*
X181191905Y-86007149D01*
X181525238Y-86007149D02*
X181620476Y-86007149D01*
X181620476Y-86007149D02*
X181668095Y-86030959D01*
X181668095Y-86030959D02*
X181715714Y-86078578D01*
X181715714Y-86078578D02*
X181739524Y-86173816D01*
X181739524Y-86173816D02*
X181739524Y-86340482D01*
X181739524Y-86340482D02*
X181715714Y-86435720D01*
X181715714Y-86435720D02*
X181668095Y-86483340D01*
X181668095Y-86483340D02*
X181620476Y-86507149D01*
X181620476Y-86507149D02*
X181525238Y-86507149D01*
X181525238Y-86507149D02*
X181477619Y-86483340D01*
X181477619Y-86483340D02*
X181430000Y-86435720D01*
X181430000Y-86435720D02*
X181406191Y-86340482D01*
X181406191Y-86340482D02*
X181406191Y-86173816D01*
X181406191Y-86173816D02*
X181430000Y-86078578D01*
X181430000Y-86078578D02*
X181477619Y-86030959D01*
X181477619Y-86030959D02*
X181525238Y-86007149D01*
X181930001Y-86054768D02*
X181953810Y-86030959D01*
X181953810Y-86030959D02*
X182001429Y-86007149D01*
X182001429Y-86007149D02*
X182120477Y-86007149D01*
X182120477Y-86007149D02*
X182168096Y-86030959D01*
X182168096Y-86030959D02*
X182191905Y-86054768D01*
X182191905Y-86054768D02*
X182215715Y-86102387D01*
X182215715Y-86102387D02*
X182215715Y-86150006D01*
X182215715Y-86150006D02*
X182191905Y-86221435D01*
X182191905Y-86221435D02*
X181906191Y-86507149D01*
X181906191Y-86507149D02*
X182215715Y-86507149D01*
X182525238Y-86007149D02*
X182572857Y-86007149D01*
X182572857Y-86007149D02*
X182620476Y-86030959D01*
X182620476Y-86030959D02*
X182644286Y-86054768D01*
X182644286Y-86054768D02*
X182668095Y-86102387D01*
X182668095Y-86102387D02*
X182691905Y-86197625D01*
X182691905Y-86197625D02*
X182691905Y-86316673D01*
X182691905Y-86316673D02*
X182668095Y-86411911D01*
X182668095Y-86411911D02*
X182644286Y-86459530D01*
X182644286Y-86459530D02*
X182620476Y-86483340D01*
X182620476Y-86483340D02*
X182572857Y-86507149D01*
X182572857Y-86507149D02*
X182525238Y-86507149D01*
X182525238Y-86507149D02*
X182477619Y-86483340D01*
X182477619Y-86483340D02*
X182453810Y-86459530D01*
X182453810Y-86459530D02*
X182430000Y-86411911D01*
X182430000Y-86411911D02*
X182406191Y-86316673D01*
X182406191Y-86316673D02*
X182406191Y-86197625D01*
X182406191Y-86197625D02*
X182430000Y-86102387D01*
X182430000Y-86102387D02*
X182453810Y-86054768D01*
X182453810Y-86054768D02*
X182477619Y-86030959D01*
X182477619Y-86030959D02*
X182525238Y-86007149D01*
X180453810Y-88570959D02*
X180406191Y-88547149D01*
X180406191Y-88547149D02*
X180334762Y-88547149D01*
X180334762Y-88547149D02*
X180263334Y-88570959D01*
X180263334Y-88570959D02*
X180215715Y-88618578D01*
X180215715Y-88618578D02*
X180191905Y-88666197D01*
X180191905Y-88666197D02*
X180168096Y-88761435D01*
X180168096Y-88761435D02*
X180168096Y-88832863D01*
X180168096Y-88832863D02*
X180191905Y-88928101D01*
X180191905Y-88928101D02*
X180215715Y-88975720D01*
X180215715Y-88975720D02*
X180263334Y-89023340D01*
X180263334Y-89023340D02*
X180334762Y-89047149D01*
X180334762Y-89047149D02*
X180382381Y-89047149D01*
X180382381Y-89047149D02*
X180453810Y-89023340D01*
X180453810Y-89023340D02*
X180477619Y-88999530D01*
X180477619Y-88999530D02*
X180477619Y-88832863D01*
X180477619Y-88832863D02*
X180382381Y-88832863D01*
X180691905Y-89047149D02*
X180691905Y-88547149D01*
X180691905Y-88547149D02*
X180882381Y-88547149D01*
X180882381Y-88547149D02*
X180930000Y-88570959D01*
X180930000Y-88570959D02*
X180953810Y-88594768D01*
X180953810Y-88594768D02*
X180977619Y-88642387D01*
X180977619Y-88642387D02*
X180977619Y-88713816D01*
X180977619Y-88713816D02*
X180953810Y-88761435D01*
X180953810Y-88761435D02*
X180930000Y-88785244D01*
X180930000Y-88785244D02*
X180882381Y-88809054D01*
X180882381Y-88809054D02*
X180691905Y-88809054D01*
X181191905Y-89047149D02*
X181191905Y-88547149D01*
X181525238Y-88547149D02*
X181620476Y-88547149D01*
X181620476Y-88547149D02*
X181668095Y-88570959D01*
X181668095Y-88570959D02*
X181715714Y-88618578D01*
X181715714Y-88618578D02*
X181739524Y-88713816D01*
X181739524Y-88713816D02*
X181739524Y-88880482D01*
X181739524Y-88880482D02*
X181715714Y-88975720D01*
X181715714Y-88975720D02*
X181668095Y-89023340D01*
X181668095Y-89023340D02*
X181620476Y-89047149D01*
X181620476Y-89047149D02*
X181525238Y-89047149D01*
X181525238Y-89047149D02*
X181477619Y-89023340D01*
X181477619Y-89023340D02*
X181430000Y-88975720D01*
X181430000Y-88975720D02*
X181406191Y-88880482D01*
X181406191Y-88880482D02*
X181406191Y-88713816D01*
X181406191Y-88713816D02*
X181430000Y-88618578D01*
X181430000Y-88618578D02*
X181477619Y-88570959D01*
X181477619Y-88570959D02*
X181525238Y-88547149D01*
X182215715Y-89047149D02*
X181930001Y-89047149D01*
X182072858Y-89047149D02*
X182072858Y-88547149D01*
X182072858Y-88547149D02*
X182025239Y-88618578D01*
X182025239Y-88618578D02*
X181977620Y-88666197D01*
X181977620Y-88666197D02*
X181930001Y-88690006D01*
X182453810Y-89047149D02*
X182549048Y-89047149D01*
X182549048Y-89047149D02*
X182596667Y-89023340D01*
X182596667Y-89023340D02*
X182620476Y-88999530D01*
X182620476Y-88999530D02*
X182668095Y-88928101D01*
X182668095Y-88928101D02*
X182691905Y-88832863D01*
X182691905Y-88832863D02*
X182691905Y-88642387D01*
X182691905Y-88642387D02*
X182668095Y-88594768D01*
X182668095Y-88594768D02*
X182644286Y-88570959D01*
X182644286Y-88570959D02*
X182596667Y-88547149D01*
X182596667Y-88547149D02*
X182501429Y-88547149D01*
X182501429Y-88547149D02*
X182453810Y-88570959D01*
X182453810Y-88570959D02*
X182430000Y-88594768D01*
X182430000Y-88594768D02*
X182406191Y-88642387D01*
X182406191Y-88642387D02*
X182406191Y-88761435D01*
X182406191Y-88761435D02*
X182430000Y-88809054D01*
X182430000Y-88809054D02*
X182453810Y-88832863D01*
X182453810Y-88832863D02*
X182501429Y-88856673D01*
X182501429Y-88856673D02*
X182596667Y-88856673D01*
X182596667Y-88856673D02*
X182644286Y-88832863D01*
X182644286Y-88832863D02*
X182668095Y-88809054D01*
X182668095Y-88809054D02*
X182691905Y-88761435D01*
X180453810Y-91110959D02*
X180406191Y-91087149D01*
X180406191Y-91087149D02*
X180334762Y-91087149D01*
X180334762Y-91087149D02*
X180263334Y-91110959D01*
X180263334Y-91110959D02*
X180215715Y-91158578D01*
X180215715Y-91158578D02*
X180191905Y-91206197D01*
X180191905Y-91206197D02*
X180168096Y-91301435D01*
X180168096Y-91301435D02*
X180168096Y-91372863D01*
X180168096Y-91372863D02*
X180191905Y-91468101D01*
X180191905Y-91468101D02*
X180215715Y-91515720D01*
X180215715Y-91515720D02*
X180263334Y-91563340D01*
X180263334Y-91563340D02*
X180334762Y-91587149D01*
X180334762Y-91587149D02*
X180382381Y-91587149D01*
X180382381Y-91587149D02*
X180453810Y-91563340D01*
X180453810Y-91563340D02*
X180477619Y-91539530D01*
X180477619Y-91539530D02*
X180477619Y-91372863D01*
X180477619Y-91372863D02*
X180382381Y-91372863D01*
X180691905Y-91587149D02*
X180691905Y-91087149D01*
X180691905Y-91087149D02*
X180882381Y-91087149D01*
X180882381Y-91087149D02*
X180930000Y-91110959D01*
X180930000Y-91110959D02*
X180953810Y-91134768D01*
X180953810Y-91134768D02*
X180977619Y-91182387D01*
X180977619Y-91182387D02*
X180977619Y-91253816D01*
X180977619Y-91253816D02*
X180953810Y-91301435D01*
X180953810Y-91301435D02*
X180930000Y-91325244D01*
X180930000Y-91325244D02*
X180882381Y-91349054D01*
X180882381Y-91349054D02*
X180691905Y-91349054D01*
X181191905Y-91587149D02*
X181191905Y-91087149D01*
X181525238Y-91087149D02*
X181620476Y-91087149D01*
X181620476Y-91087149D02*
X181668095Y-91110959D01*
X181668095Y-91110959D02*
X181715714Y-91158578D01*
X181715714Y-91158578D02*
X181739524Y-91253816D01*
X181739524Y-91253816D02*
X181739524Y-91420482D01*
X181739524Y-91420482D02*
X181715714Y-91515720D01*
X181715714Y-91515720D02*
X181668095Y-91563340D01*
X181668095Y-91563340D02*
X181620476Y-91587149D01*
X181620476Y-91587149D02*
X181525238Y-91587149D01*
X181525238Y-91587149D02*
X181477619Y-91563340D01*
X181477619Y-91563340D02*
X181430000Y-91515720D01*
X181430000Y-91515720D02*
X181406191Y-91420482D01*
X181406191Y-91420482D02*
X181406191Y-91253816D01*
X181406191Y-91253816D02*
X181430000Y-91158578D01*
X181430000Y-91158578D02*
X181477619Y-91110959D01*
X181477619Y-91110959D02*
X181525238Y-91087149D01*
X182215715Y-91587149D02*
X181930001Y-91587149D01*
X182072858Y-91587149D02*
X182072858Y-91087149D01*
X182072858Y-91087149D02*
X182025239Y-91158578D01*
X182025239Y-91158578D02*
X181977620Y-91206197D01*
X181977620Y-91206197D02*
X181930001Y-91230006D01*
X182501429Y-91301435D02*
X182453810Y-91277625D01*
X182453810Y-91277625D02*
X182430000Y-91253816D01*
X182430000Y-91253816D02*
X182406191Y-91206197D01*
X182406191Y-91206197D02*
X182406191Y-91182387D01*
X182406191Y-91182387D02*
X182430000Y-91134768D01*
X182430000Y-91134768D02*
X182453810Y-91110959D01*
X182453810Y-91110959D02*
X182501429Y-91087149D01*
X182501429Y-91087149D02*
X182596667Y-91087149D01*
X182596667Y-91087149D02*
X182644286Y-91110959D01*
X182644286Y-91110959D02*
X182668095Y-91134768D01*
X182668095Y-91134768D02*
X182691905Y-91182387D01*
X182691905Y-91182387D02*
X182691905Y-91206197D01*
X182691905Y-91206197D02*
X182668095Y-91253816D01*
X182668095Y-91253816D02*
X182644286Y-91277625D01*
X182644286Y-91277625D02*
X182596667Y-91301435D01*
X182596667Y-91301435D02*
X182501429Y-91301435D01*
X182501429Y-91301435D02*
X182453810Y-91325244D01*
X182453810Y-91325244D02*
X182430000Y-91349054D01*
X182430000Y-91349054D02*
X182406191Y-91396673D01*
X182406191Y-91396673D02*
X182406191Y-91491911D01*
X182406191Y-91491911D02*
X182430000Y-91539530D01*
X182430000Y-91539530D02*
X182453810Y-91563340D01*
X182453810Y-91563340D02*
X182501429Y-91587149D01*
X182501429Y-91587149D02*
X182596667Y-91587149D01*
X182596667Y-91587149D02*
X182644286Y-91563340D01*
X182644286Y-91563340D02*
X182668095Y-91539530D01*
X182668095Y-91539530D02*
X182691905Y-91491911D01*
X182691905Y-91491911D02*
X182691905Y-91396673D01*
X182691905Y-91396673D02*
X182668095Y-91349054D01*
X182668095Y-91349054D02*
X182644286Y-91325244D01*
X182644286Y-91325244D02*
X182596667Y-91301435D01*
X180691905Y-93650959D02*
X180644286Y-93627149D01*
X180644286Y-93627149D02*
X180572857Y-93627149D01*
X180572857Y-93627149D02*
X180501429Y-93650959D01*
X180501429Y-93650959D02*
X180453810Y-93698578D01*
X180453810Y-93698578D02*
X180430000Y-93746197D01*
X180430000Y-93746197D02*
X180406191Y-93841435D01*
X180406191Y-93841435D02*
X180406191Y-93912863D01*
X180406191Y-93912863D02*
X180430000Y-94008101D01*
X180430000Y-94008101D02*
X180453810Y-94055720D01*
X180453810Y-94055720D02*
X180501429Y-94103340D01*
X180501429Y-94103340D02*
X180572857Y-94127149D01*
X180572857Y-94127149D02*
X180620476Y-94127149D01*
X180620476Y-94127149D02*
X180691905Y-94103340D01*
X180691905Y-94103340D02*
X180715714Y-94079530D01*
X180715714Y-94079530D02*
X180715714Y-93912863D01*
X180715714Y-93912863D02*
X180620476Y-93912863D01*
X180930000Y-94127149D02*
X180930000Y-93627149D01*
X180930000Y-93627149D02*
X181120476Y-93627149D01*
X181120476Y-93627149D02*
X181168095Y-93650959D01*
X181168095Y-93650959D02*
X181191905Y-93674768D01*
X181191905Y-93674768D02*
X181215714Y-93722387D01*
X181215714Y-93722387D02*
X181215714Y-93793816D01*
X181215714Y-93793816D02*
X181191905Y-93841435D01*
X181191905Y-93841435D02*
X181168095Y-93865244D01*
X181168095Y-93865244D02*
X181120476Y-93889054D01*
X181120476Y-93889054D02*
X180930000Y-93889054D01*
X181430000Y-94127149D02*
X181430000Y-93627149D01*
X181763333Y-93627149D02*
X181858571Y-93627149D01*
X181858571Y-93627149D02*
X181906190Y-93650959D01*
X181906190Y-93650959D02*
X181953809Y-93698578D01*
X181953809Y-93698578D02*
X181977619Y-93793816D01*
X181977619Y-93793816D02*
X181977619Y-93960482D01*
X181977619Y-93960482D02*
X181953809Y-94055720D01*
X181953809Y-94055720D02*
X181906190Y-94103340D01*
X181906190Y-94103340D02*
X181858571Y-94127149D01*
X181858571Y-94127149D02*
X181763333Y-94127149D01*
X181763333Y-94127149D02*
X181715714Y-94103340D01*
X181715714Y-94103340D02*
X181668095Y-94055720D01*
X181668095Y-94055720D02*
X181644286Y-93960482D01*
X181644286Y-93960482D02*
X181644286Y-93793816D01*
X181644286Y-93793816D02*
X181668095Y-93698578D01*
X181668095Y-93698578D02*
X181715714Y-93650959D01*
X181715714Y-93650959D02*
X181763333Y-93627149D01*
X182215715Y-94127149D02*
X182310953Y-94127149D01*
X182310953Y-94127149D02*
X182358572Y-94103340D01*
X182358572Y-94103340D02*
X182382381Y-94079530D01*
X182382381Y-94079530D02*
X182430000Y-94008101D01*
X182430000Y-94008101D02*
X182453810Y-93912863D01*
X182453810Y-93912863D02*
X182453810Y-93722387D01*
X182453810Y-93722387D02*
X182430000Y-93674768D01*
X182430000Y-93674768D02*
X182406191Y-93650959D01*
X182406191Y-93650959D02*
X182358572Y-93627149D01*
X182358572Y-93627149D02*
X182263334Y-93627149D01*
X182263334Y-93627149D02*
X182215715Y-93650959D01*
X182215715Y-93650959D02*
X182191905Y-93674768D01*
X182191905Y-93674768D02*
X182168096Y-93722387D01*
X182168096Y-93722387D02*
X182168096Y-93841435D01*
X182168096Y-93841435D02*
X182191905Y-93889054D01*
X182191905Y-93889054D02*
X182215715Y-93912863D01*
X182215715Y-93912863D02*
X182263334Y-93936673D01*
X182263334Y-93936673D02*
X182358572Y-93936673D01*
X182358572Y-93936673D02*
X182406191Y-93912863D01*
X182406191Y-93912863D02*
X182430000Y-93889054D01*
X182430000Y-93889054D02*
X182453810Y-93841435D01*
X181049047Y-96190959D02*
X181001428Y-96167149D01*
X181001428Y-96167149D02*
X180929999Y-96167149D01*
X180929999Y-96167149D02*
X180858571Y-96190959D01*
X180858571Y-96190959D02*
X180810952Y-96238578D01*
X180810952Y-96238578D02*
X180787142Y-96286197D01*
X180787142Y-96286197D02*
X180763333Y-96381435D01*
X180763333Y-96381435D02*
X180763333Y-96452863D01*
X180763333Y-96452863D02*
X180787142Y-96548101D01*
X180787142Y-96548101D02*
X180810952Y-96595720D01*
X180810952Y-96595720D02*
X180858571Y-96643340D01*
X180858571Y-96643340D02*
X180929999Y-96667149D01*
X180929999Y-96667149D02*
X180977618Y-96667149D01*
X180977618Y-96667149D02*
X181049047Y-96643340D01*
X181049047Y-96643340D02*
X181072856Y-96619530D01*
X181072856Y-96619530D02*
X181072856Y-96452863D01*
X181072856Y-96452863D02*
X180977618Y-96452863D01*
X181287142Y-96667149D02*
X181287142Y-96167149D01*
X181287142Y-96167149D02*
X181572856Y-96667149D01*
X181572856Y-96667149D02*
X181572856Y-96167149D01*
X181810952Y-96667149D02*
X181810952Y-96167149D01*
X181810952Y-96167149D02*
X181930000Y-96167149D01*
X181930000Y-96167149D02*
X182001428Y-96190959D01*
X182001428Y-96190959D02*
X182049047Y-96238578D01*
X182049047Y-96238578D02*
X182072857Y-96286197D01*
X182072857Y-96286197D02*
X182096666Y-96381435D01*
X182096666Y-96381435D02*
X182096666Y-96452863D01*
X182096666Y-96452863D02*
X182072857Y-96548101D01*
X182072857Y-96548101D02*
X182049047Y-96595720D01*
X182049047Y-96595720D02*
X182001428Y-96643340D01*
X182001428Y-96643340D02*
X181930000Y-96667149D01*
X181930000Y-96667149D02*
X181810952Y-96667149D01*
X180453810Y-98730959D02*
X180406191Y-98707149D01*
X180406191Y-98707149D02*
X180334762Y-98707149D01*
X180334762Y-98707149D02*
X180263334Y-98730959D01*
X180263334Y-98730959D02*
X180215715Y-98778578D01*
X180215715Y-98778578D02*
X180191905Y-98826197D01*
X180191905Y-98826197D02*
X180168096Y-98921435D01*
X180168096Y-98921435D02*
X180168096Y-98992863D01*
X180168096Y-98992863D02*
X180191905Y-99088101D01*
X180191905Y-99088101D02*
X180215715Y-99135720D01*
X180215715Y-99135720D02*
X180263334Y-99183340D01*
X180263334Y-99183340D02*
X180334762Y-99207149D01*
X180334762Y-99207149D02*
X180382381Y-99207149D01*
X180382381Y-99207149D02*
X180453810Y-99183340D01*
X180453810Y-99183340D02*
X180477619Y-99159530D01*
X180477619Y-99159530D02*
X180477619Y-98992863D01*
X180477619Y-98992863D02*
X180382381Y-98992863D01*
X180691905Y-99207149D02*
X180691905Y-98707149D01*
X180691905Y-98707149D02*
X180882381Y-98707149D01*
X180882381Y-98707149D02*
X180930000Y-98730959D01*
X180930000Y-98730959D02*
X180953810Y-98754768D01*
X180953810Y-98754768D02*
X180977619Y-98802387D01*
X180977619Y-98802387D02*
X180977619Y-98873816D01*
X180977619Y-98873816D02*
X180953810Y-98921435D01*
X180953810Y-98921435D02*
X180930000Y-98945244D01*
X180930000Y-98945244D02*
X180882381Y-98969054D01*
X180882381Y-98969054D02*
X180691905Y-98969054D01*
X181191905Y-99207149D02*
X181191905Y-98707149D01*
X181525238Y-98707149D02*
X181620476Y-98707149D01*
X181620476Y-98707149D02*
X181668095Y-98730959D01*
X181668095Y-98730959D02*
X181715714Y-98778578D01*
X181715714Y-98778578D02*
X181739524Y-98873816D01*
X181739524Y-98873816D02*
X181739524Y-99040482D01*
X181739524Y-99040482D02*
X181715714Y-99135720D01*
X181715714Y-99135720D02*
X181668095Y-99183340D01*
X181668095Y-99183340D02*
X181620476Y-99207149D01*
X181620476Y-99207149D02*
X181525238Y-99207149D01*
X181525238Y-99207149D02*
X181477619Y-99183340D01*
X181477619Y-99183340D02*
X181430000Y-99135720D01*
X181430000Y-99135720D02*
X181406191Y-99040482D01*
X181406191Y-99040482D02*
X181406191Y-98873816D01*
X181406191Y-98873816D02*
X181430000Y-98778578D01*
X181430000Y-98778578D02*
X181477619Y-98730959D01*
X181477619Y-98730959D02*
X181525238Y-98707149D01*
X182215715Y-99207149D02*
X181930001Y-99207149D01*
X182072858Y-99207149D02*
X182072858Y-98707149D01*
X182072858Y-98707149D02*
X182025239Y-98778578D01*
X182025239Y-98778578D02*
X181977620Y-98826197D01*
X181977620Y-98826197D02*
X181930001Y-98850006D01*
X182382381Y-98707149D02*
X182691905Y-98707149D01*
X182691905Y-98707149D02*
X182525238Y-98897625D01*
X182525238Y-98897625D02*
X182596667Y-98897625D01*
X182596667Y-98897625D02*
X182644286Y-98921435D01*
X182644286Y-98921435D02*
X182668095Y-98945244D01*
X182668095Y-98945244D02*
X182691905Y-98992863D01*
X182691905Y-98992863D02*
X182691905Y-99111911D01*
X182691905Y-99111911D02*
X182668095Y-99159530D01*
X182668095Y-99159530D02*
X182644286Y-99183340D01*
X182644286Y-99183340D02*
X182596667Y-99207149D01*
X182596667Y-99207149D02*
X182453810Y-99207149D01*
X182453810Y-99207149D02*
X182406191Y-99183340D01*
X182406191Y-99183340D02*
X182382381Y-99159530D01*
X180453810Y-101270959D02*
X180406191Y-101247149D01*
X180406191Y-101247149D02*
X180334762Y-101247149D01*
X180334762Y-101247149D02*
X180263334Y-101270959D01*
X180263334Y-101270959D02*
X180215715Y-101318578D01*
X180215715Y-101318578D02*
X180191905Y-101366197D01*
X180191905Y-101366197D02*
X180168096Y-101461435D01*
X180168096Y-101461435D02*
X180168096Y-101532863D01*
X180168096Y-101532863D02*
X180191905Y-101628101D01*
X180191905Y-101628101D02*
X180215715Y-101675720D01*
X180215715Y-101675720D02*
X180263334Y-101723340D01*
X180263334Y-101723340D02*
X180334762Y-101747149D01*
X180334762Y-101747149D02*
X180382381Y-101747149D01*
X180382381Y-101747149D02*
X180453810Y-101723340D01*
X180453810Y-101723340D02*
X180477619Y-101699530D01*
X180477619Y-101699530D02*
X180477619Y-101532863D01*
X180477619Y-101532863D02*
X180382381Y-101532863D01*
X180691905Y-101747149D02*
X180691905Y-101247149D01*
X180691905Y-101247149D02*
X180882381Y-101247149D01*
X180882381Y-101247149D02*
X180930000Y-101270959D01*
X180930000Y-101270959D02*
X180953810Y-101294768D01*
X180953810Y-101294768D02*
X180977619Y-101342387D01*
X180977619Y-101342387D02*
X180977619Y-101413816D01*
X180977619Y-101413816D02*
X180953810Y-101461435D01*
X180953810Y-101461435D02*
X180930000Y-101485244D01*
X180930000Y-101485244D02*
X180882381Y-101509054D01*
X180882381Y-101509054D02*
X180691905Y-101509054D01*
X181191905Y-101747149D02*
X181191905Y-101247149D01*
X181525238Y-101247149D02*
X181620476Y-101247149D01*
X181620476Y-101247149D02*
X181668095Y-101270959D01*
X181668095Y-101270959D02*
X181715714Y-101318578D01*
X181715714Y-101318578D02*
X181739524Y-101413816D01*
X181739524Y-101413816D02*
X181739524Y-101580482D01*
X181739524Y-101580482D02*
X181715714Y-101675720D01*
X181715714Y-101675720D02*
X181668095Y-101723340D01*
X181668095Y-101723340D02*
X181620476Y-101747149D01*
X181620476Y-101747149D02*
X181525238Y-101747149D01*
X181525238Y-101747149D02*
X181477619Y-101723340D01*
X181477619Y-101723340D02*
X181430000Y-101675720D01*
X181430000Y-101675720D02*
X181406191Y-101580482D01*
X181406191Y-101580482D02*
X181406191Y-101413816D01*
X181406191Y-101413816D02*
X181430000Y-101318578D01*
X181430000Y-101318578D02*
X181477619Y-101270959D01*
X181477619Y-101270959D02*
X181525238Y-101247149D01*
X182215715Y-101747149D02*
X181930001Y-101747149D01*
X182072858Y-101747149D02*
X182072858Y-101247149D01*
X182072858Y-101247149D02*
X182025239Y-101318578D01*
X182025239Y-101318578D02*
X181977620Y-101366197D01*
X181977620Y-101366197D02*
X181930001Y-101390006D01*
X182406191Y-101294768D02*
X182430000Y-101270959D01*
X182430000Y-101270959D02*
X182477619Y-101247149D01*
X182477619Y-101247149D02*
X182596667Y-101247149D01*
X182596667Y-101247149D02*
X182644286Y-101270959D01*
X182644286Y-101270959D02*
X182668095Y-101294768D01*
X182668095Y-101294768D02*
X182691905Y-101342387D01*
X182691905Y-101342387D02*
X182691905Y-101390006D01*
X182691905Y-101390006D02*
X182668095Y-101461435D01*
X182668095Y-101461435D02*
X182382381Y-101747149D01*
X182382381Y-101747149D02*
X182691905Y-101747149D01*
X181049047Y-103810959D02*
X181001428Y-103787149D01*
X181001428Y-103787149D02*
X180929999Y-103787149D01*
X180929999Y-103787149D02*
X180858571Y-103810959D01*
X180858571Y-103810959D02*
X180810952Y-103858578D01*
X180810952Y-103858578D02*
X180787142Y-103906197D01*
X180787142Y-103906197D02*
X180763333Y-104001435D01*
X180763333Y-104001435D02*
X180763333Y-104072863D01*
X180763333Y-104072863D02*
X180787142Y-104168101D01*
X180787142Y-104168101D02*
X180810952Y-104215720D01*
X180810952Y-104215720D02*
X180858571Y-104263340D01*
X180858571Y-104263340D02*
X180929999Y-104287149D01*
X180929999Y-104287149D02*
X180977618Y-104287149D01*
X180977618Y-104287149D02*
X181049047Y-104263340D01*
X181049047Y-104263340D02*
X181072856Y-104239530D01*
X181072856Y-104239530D02*
X181072856Y-104072863D01*
X181072856Y-104072863D02*
X180977618Y-104072863D01*
X181287142Y-104287149D02*
X181287142Y-103787149D01*
X181287142Y-103787149D02*
X181572856Y-104287149D01*
X181572856Y-104287149D02*
X181572856Y-103787149D01*
X181810952Y-104287149D02*
X181810952Y-103787149D01*
X181810952Y-103787149D02*
X181930000Y-103787149D01*
X181930000Y-103787149D02*
X182001428Y-103810959D01*
X182001428Y-103810959D02*
X182049047Y-103858578D01*
X182049047Y-103858578D02*
X182072857Y-103906197D01*
X182072857Y-103906197D02*
X182096666Y-104001435D01*
X182096666Y-104001435D02*
X182096666Y-104072863D01*
X182096666Y-104072863D02*
X182072857Y-104168101D01*
X182072857Y-104168101D02*
X182049047Y-104215720D01*
X182049047Y-104215720D02*
X182001428Y-104263340D01*
X182001428Y-104263340D02*
X181930000Y-104287149D01*
X181930000Y-104287149D02*
X181810952Y-104287149D01*
X181037142Y-106827149D02*
X181037142Y-106327149D01*
X181037142Y-106327149D02*
X181322856Y-106827149D01*
X181322856Y-106827149D02*
X181322856Y-106327149D01*
X181846666Y-106779530D02*
X181822857Y-106803340D01*
X181822857Y-106803340D02*
X181751428Y-106827149D01*
X181751428Y-106827149D02*
X181703809Y-106827149D01*
X181703809Y-106827149D02*
X181632381Y-106803340D01*
X181632381Y-106803340D02*
X181584762Y-106755720D01*
X181584762Y-106755720D02*
X181560952Y-106708101D01*
X181560952Y-106708101D02*
X181537143Y-106612863D01*
X181537143Y-106612863D02*
X181537143Y-106541435D01*
X181537143Y-106541435D02*
X181560952Y-106446197D01*
X181560952Y-106446197D02*
X181584762Y-106398578D01*
X181584762Y-106398578D02*
X181632381Y-106350959D01*
X181632381Y-106350959D02*
X181703809Y-106327149D01*
X181703809Y-106327149D02*
X181751428Y-106327149D01*
X181751428Y-106327149D02*
X181822857Y-106350959D01*
X181822857Y-106350959D02*
X181846666Y-106374768D01*
%TO.C,C3*%
D12*
X192500000Y-120750000D02*
X195500000Y-120750000D01*
X195500000Y-122250000D01*
X192500000Y-122250000D01*
X192500000Y-120750000D01*
%TO.C,U2*%
X189850000Y-102500000D02*
X205850000Y-102500000D01*
X205850000Y-118500000D01*
X189850000Y-118500000D01*
X189850000Y-102500000D01*
%TO.C,C2*%
X187250000Y-94500000D02*
X188750000Y-94500000D01*
X188750000Y-97500000D01*
X187250000Y-97500000D01*
X187250000Y-94500000D01*
%TO.C,C1*%
X207750000Y-105000000D02*
X209250000Y-105000000D01*
X209250000Y-108000000D01*
X207750000Y-108000000D01*
X207750000Y-105000000D01*
%TO.C,U3*%
X190500000Y-54500000D02*
X205500000Y-54500000D01*
X205500000Y-98500000D01*
X190500000Y-98500000D01*
X190500000Y-54500000D01*
%TO.C,U1*%
X160230000Y-53900000D02*
X185630000Y-53900000D01*
X185630000Y-121200000D01*
X160230000Y-121200000D01*
X160230000Y-53900000D01*
%TD*%
M02*
